Besley-Condensed Regular.ufo
<glyph name="asterisk" format="2">
	<advance width="1270" height="2310"/>
	<unicode hex="002A"/>
	<outline>
		<contour>
			<point x="165" y="772" type="curve" smooth="yes"/>
			<point x="136" y="822"/>
			<point x="153" y="881"/>
			<point x="221" y="920" type="curve" smooth="yes"/>
			<point x="317" y="975"/>
			<point x="435" y="998"/>
			<point x="524" y="1032" type="curve" smooth="yes"/>
			<point x="549" y="1041"/>
			<point x="552" y="1042"/>
			<point x="526" y="1052" type="curve" smooth="yes"/>
			<point x="437" y="1086"/>
			<point x="319" y="1110"/>
			<point x="223" y="1165" type="curve" smooth="yes"/>
			<point x="155" y="1204"/>
			<point x="138" y="1262"/>
			<point x="167" y="1312" type="curve" smooth="yes"/>
			<point x="196" y="1362"/>
			<point x="255" y="1377"/>
			<point x="323" y="1338" type="curve" smooth="yes"/>
			<point x="422" y="1281"/>
			<point x="497" y="1193"/>
			<point x="570" y="1133" type="curve" smooth="yes"/>
			<point x="589" y="1118"/>
			<point x="596" y="1108"/>
			<point x="590" y="1142" type="curve" smooth="yes"/>
			<point x="575" y="1235"/>
			<point x="536" y="1339"/>
			<point x="536" y="1458" type="curve" smooth="yes"/>
			<point x="536" y="1536"/>
			<point x="578" y="1580"/>
			<point x="636" y="1580" type="curve" smooth="yes"/>
			<point x="694" y="1580"/>
			<point x="736" y="1536"/>
			<point x="736" y="1458" type="curve" smooth="yes"/>
			<point x="736" y="1340"/>
			<point x="698" y="1235"/>
			<point x="682" y="1142" type="curve" smooth="yes"/>
			<point x="675" y="1099"/>
			<point x="689" y="1119"/>
			<point x="709" y="1136" type="curve" smooth="yes"/>
			<point x="780" y="1196"/>
			<point x="852" y="1278"/>
			<point x="947" y="1333" type="curve" smooth="yes"/>
			<point x="1015" y="1372"/>
			<point x="1074" y="1358"/>
			<point x="1103" y="1308" type="curve" smooth="yes"/>
			<point x="1132" y="1258"/>
			<point x="1115" y="1199"/>
			<point x="1047" y="1160" type="curve" smooth="yes"/>
			<point x="955" y="1107"/>
			<point x="842" y="1083"/>
			<point x="754" y="1051" type="curve" smooth="yes"/>
			<point x="723" y="1040"/>
			<point x="713" y="1039"/>
			<point x="748" y="1026" type="curve" smooth="yes"/>
			<point x="837" y="993"/>
			<point x="951" y="969"/>
			<point x="1045" y="915" type="curve" smooth="yes"/>
			<point x="1113" y="876"/>
			<point x="1130" y="818"/>
			<point x="1101" y="768" type="curve" smooth="yes"/>
			<point x="1072" y="718"/>
			<point x="1013" y="703"/>
			<point x="945" y="742" type="curve" smooth="yes"/>
			<point x="846" y="799"/>
			<point x="771" y="887"/>
			<point x="698" y="947" type="curve" smooth="yes"/>
			<point x="677" y="965"/>
			<point x="673" y="970"/>
			<point x="679" y="933" type="curve" smooth="yes"/>
			<point x="695" y="841"/>
			<point x="732" y="739"/>
			<point x="732" y="622" type="curve" smooth="yes"/>
			<point x="732" y="544"/>
			<point x="690" y="500"/>
			<point x="632" y="500" type="curve" smooth="yes"/>
			<point x="574" y="500"/>
			<point x="532" y="544"/>
			<point x="532" y="622" type="curve" smooth="yes"/>
			<point x="532" y="741"/>
			<point x="570" y="845"/>
			<point x="586" y="939" type="curve" smooth="yes"/>
			<point x="592" y="975"/>
			<point x="586" y="966"/>
			<point x="566" y="950" type="curve" smooth="yes"/>
			<point x="493" y="890"/>
			<point x="419" y="804"/>
			<point x="321" y="747" type="curve" smooth="yes"/>
			<point x="253" y="708"/>
			<point x="194" y="722"/>
		</contour>
	</outline>
</glyph>
<glyph name="comma" format="2">
	<advance width="578" height="0"/>
	<unicode hex="002C"/>
	<outline>
		<contour>
			<point x="154" y="98" type="curve" smooth="yes"/>
			<point x="154" y="164"/>
			<point x="212" y="216"/>
			<point x="288" y="216" type="curve" smooth="yes"/>
			<point x="366" y="216"/>
			<point x="428" y="154"/>
			<point x="428" y="8" type="curve" smooth="yes"/>
			<point x="428" y="-126"/>
			<point x="338" y="-296"/>
			<point x="173" y="-311" type="curve" smooth="yes"/>
			<point x="158" y="-312"/>
			<point x="150" y="-313"/>
			<point x="150" y="-296" type="curve" smooth="yes"/>
			<point x="150" y="-253" type="line" smooth="yes"/>
			<point x="150" y="-235"/>
			<point x="160" y="-232"/>
			<point x="175" y="-230" type="curve" smooth="yes"/>
			<point x="266" y="-216"/>
			<point x="344" y="-124"/>
			<point x="333" y="-9" type="curve" smooth="yes"/>
			<point x="331" y="7"/>
			<point x="322" y="-1"/>
			<point x="311" y="-8" type="curve" smooth="yes"/>
			<point x="295" y="-19"/>
			<point x="281" y="-20"/>
			<point x="260" y="-20" type="curve" smooth="yes"/>
			<point x="194" y="-20"/>
			<point x="154" y="32"/>
		</contour>
	</outline>
</glyph>
<glyph name="hyphen" format="2">
	<advance width="640" height="0"/>
	<unicode hex="002D"/>
	<outline>
		<contour>
			<point x="108" y="710" type="curve" smooth="yes"/>
			<point x="534" y="710" type="line" smooth="yes"/>
			<point x="557" y="710"/>
			<point x="560" y="706"/>
			<point x="560" y="682" type="curve" smooth="yes"/>
			<point x="560" y="603" type="line" smooth="yes"/>
			<point x="560" y="579"/>
			<point x="558" y="570"/>
			<point x="532" y="570" type="curve" smooth="yes"/>
			<point x="106" y="570" type="line" smooth="yes"/>
			<point x="81" y="570"/>
			<point x="80" y="574"/>
			<point x="80" y="600" type="curve" smooth="yes"/>
			<point x="80" y="682" type="line" smooth="yes"/>
			<point x="80" y="705"/>
			<point x="87" y="710"/>
		</contour>
	</outline>
</glyph>
<glyph name="seven" format="2">
	<advance width="818" height="2310"/>
	<unicode hex="0037"/>
	<outline>
		<contour>
			<point x="50" y="1162" type="curve" smooth="yes"/>
			<point x="54" y="1439"/>
			<point x="145" y="1520"/>
			<point x="300" y="1520" type="curve" smooth="yes"/>
			<point x="414" y="1520"/>
			<point x="464" y="1400"/>
			<point x="560" y="1400" type="curve" smooth="yes"/>
			<point x="634" y="1400"/>
			<point x="666" y="1433"/>
			<point x="686" y="1483" type="curve" smooth="yes"/>
			<point x="691" y="1496"/>
			<point x="692" y="1500"/>
			<point x="711" y="1500" type="curve" smooth="yes"/>
			<point x="780" y="1500" type="line" smooth="yes"/>
			<point x="803" y="1500"/>
			<point x="799" y="1494"/>
			<point x="796" y="1473" type="curve" smooth="yes"/>
			<point x="772" y="1323"/>
			<point x="650" y="1008"/>
			<point x="546" y="736" type="curve" smooth="yes"/>
			<point x="474" y="548"/>
			<point x="438" y="472"/>
			<point x="438" y="384" type="curve" smooth="yes"/>
			<point x="438" y="238"/>
			<point x="504" y="208"/>
			<point x="504" y="116" type="curve" smooth="yes"/>
			<point x="504" y="42"/>
			<point x="464" y="-20"/>
			<point x="376" y="-20" type="curve" smooth="yes"/>
			<point x="298" y="-20"/>
			<point x="244" y="54"/>
			<point x="244" y="192" type="curve" smooth="yes"/>
			<point x="244" y="370"/>
			<point x="336" y="554"/>
			<point x="428" y="762" type="curve" smooth="yes"/>
			<point x="497" y="918"/>
			<point x="558" y="1097"/>
			<point x="611" y="1254" type="curve" smooth="yes"/>
			<point x="618" y="1276"/>
			<point x="625" y="1291"/>
			<point x="620" y="1296" type="curve" smooth="yes"/>
			<point x="615" y="1301"/>
			<point x="603" y="1283"/>
			<point x="582" y="1277" type="curve" smooth="yes"/>
			<point x="556" y="1269"/>
			<point x="526" y="1266"/>
			<point x="490" y="1266" type="curve" smooth="yes"/>
			<point x="390" y="1266"/>
			<point x="350" y="1334"/>
			<point x="268" y="1334" type="curve" smooth="yes"/>
			<point x="167" y="1334"/>
			<point x="148" y="1281"/>
			<point x="144" y="1166" type="curve" smooth="yes"/>
			<point x="144" y="1151"/>
			<point x="143" y="1146"/>
			<point x="128" y="1146" type="curve" smooth="yes"/>
			<point x="72" y="1146" type="line" smooth="yes"/>
			<point x="57" y="1146"/>
			<point x="50" y="1147"/>
		</contour>
	</outline>
</glyph>
<glyph name="greater" format="2">
	<advance width="1120" height="0"/>
	<unicode hex="003E"/>
	<outline>
		<contour>
			<point x="824" y="798" type="curve" smooth="yes"/>
			<point x="158" y="1055" type="line" smooth="yes"/>
			<point x="130" y="1066"/>
			<point x="120" y="1073"/>
			<point x="120" y="1113" type="curve" smooth="yes"/>
			<point x="120" y="1155" type="line" smooth="yes"/>
			<point x="120" y="1200"/>
			<point x="137" y="1193"/>
			<point x="164" y="1183" type="curve" smooth="yes"/>
			<point x="968" y="872" type="line" smooth="yes"/>
			<point x="997" y="861"/>
			<point x="1000" y="851"/>
			<point x="1000" y="810" type="curve" smooth="yes"/>
			<point x="1000" y="730" type="line" smooth="yes"/>
			<point x="1000" y="688"/>
			<point x="995" y="688"/>
			<point x="966" y="677" type="curve" smooth="yes"/>
			<point x="154" y="363" type="line" smooth="yes"/>
			<point x="129" y="353"/>
			<point x="120" y="357"/>
			<point x="120" y="391" type="curve" smooth="yes"/>
			<point x="120" y="437" type="line" smooth="yes"/>
			<point x="120" y="474"/>
			<point x="131" y="484"/>
			<point x="156" y="494" type="curve" smooth="yes"/>
			<point x="822" y="751" type="line" smooth="yes"/>
			<point x="853" y="763"/>
			<point x="870" y="763"/>
			<point x="870" y="774" type="curve" smooth="yes"/>
			<point x="870" y="785"/>
			<point x="857" y="785"/>
		</contour>
	</outline>
</glyph>
<glyph name="F" format="2">
	<advance width="978" height="0"/>
	<unicode hex="0046"/>
	<anchor x="527" y="1500" name="Anchor-0"/>
	<anchor x="249" y="0" name="Anchor-1"/>
	<anchor x="249" y="0" name="Anchor-2"/>
	<outline>
		<contour>
			<point x="129" y="1390" type="curve" smooth="yes"/>
			<point x="62" y="1390" type="line" smooth="yes"/>
			<point x="43" y="1390"/>
			<point x="38" y="1392"/>
			<point x="38" y="1412" type="curve" smooth="yes"/>
			<point x="38" y="1481" type="line" smooth="yes"/>
			<point x="38" y="1495"/>
			<point x="39" y="1500"/>
			<point x="53" y="1500" type="curve" smooth="yes"/>
			<point x="904" y="1500" type="line" smooth="yes"/>
			<point x="925" y="1500"/>
			<point x="928" y="1493"/>
			<point x="928" y="1471" type="curve" smooth="yes"/>
			<point x="928" y="1050" type="line" smooth="yes"/>
			<point x="928" y="1031"/>
			<point x="919" y="1030"/>
			<point x="900" y="1030" type="curve" smooth="yes"/>
			<point x="878" y="1030" type="line" smooth="yes"/>
			<point x="858" y="1030"/>
			<point x="858" y="1035"/>
			<point x="858" y="1054" type="curve" smooth="yes"/>
			<point x="855" y="1313"/>
			<point x="737" y="1390"/>
			<point x="508" y="1390" type="curve" smooth="yes"/>
			<point x="382" y="1390" type="line" smooth="yes"/>
			<point x="357" y="1390"/>
			<point x="348" y="1376"/>
			<point x="348" y="1353" type="curve" smooth="yes"/>
			<point x="348" y="836" type="line" smooth="yes"/>
			<point x="348" y="802"/>
			<point x="354" y="796"/>
			<point x="387" y="796" type="curve" smooth="yes"/>
			<point x="478" y="796" type="line" smooth="yes"/>
			<point x="573" y="796"/>
			<point x="623" y="856"/>
			<point x="636" y="964" type="curve" smooth="yes"/>
			<point x="639" y="992"/>
			<point x="639" y="1006"/>
			<point x="673" y="1006" type="curve" smooth="yes"/>
			<point x="697" y="1006" type="line" smooth="yes"/>
			<point x="720" y="1006"/>
			<point x="728" y="1004"/>
			<point x="728" y="982" type="curve" smooth="yes"/>
			<point x="728" y="503" type="line" smooth="yes"/>
			<point x="728" y="485"/>
			<point x="727" y="476"/>
			<point x="709" y="476" type="curve" smooth="yes"/>
			<point x="657" y="476" type="line" smooth="yes"/>
			<point x="638" y="476"/>
			<point x="639" y="481"/>
			<point x="638" y="499" type="curve" smooth="yes"/>
			<point x="632" y="623"/>
			<point x="584" y="696"/>
			<point x="478" y="696" type="curve" smooth="yes"/>
			<point x="378" y="696" type="line" smooth="yes"/>
			<point x="350" y="696"/>
			<point x="348" y="688"/>
			<point x="348" y="659" type="curve" smooth="yes"/>
			<point x="348" y="150" type="line" smooth="yes"/>
			<point x="348" y="118"/>
			<point x="352" y="110"/>
			<point x="386" y="110" type="curve" smooth="yes"/>
			<point x="460" y="110" type="line" smooth="yes"/>
			<point x="479" y="110"/>
			<point x="488" y="109"/>
			<point x="488" y="90" type="curve" smooth="yes"/>
			<point x="488" y="30" type="line" smooth="yes"/>
			<point x="488" y="4"/>
			<point x="479" y="0"/>
			<point x="455" y="0" type="curve" smooth="yes"/>
			<point x="63" y="0" type="line" smooth="yes"/>
			<point x="43" y="0"/>
			<point x="38" y="0"/>
			<point x="38" y="20" type="curve" smooth="yes"/>
			<point x="38" y="92" type="line" smooth="yes"/>
			<point x="38" y="109"/>
			<point x="47" y="110"/>
			<point x="65" y="110" type="curve" smooth="yes"/>
			<point x="131" y="110" type="line" smooth="yes"/>
			<point x="153" y="110"/>
			<point x="158" y="117"/>
			<point x="158" y="140" type="curve" smooth="yes"/>
			<point x="158" y="1360" type="line" smooth="yes"/>
			<point x="158" y="1387"/>
			<point x="155" y="1390"/>
		</contour>
	</outline>
</glyph>
<glyph name="I" format="2">
	<advance width="520" height="0"/>
	<unicode hex="0049"/>
	<anchor x="262" y="1500" name="Anchor-0"/>
	<anchor x="268" y="0" name="Anchor-1"/>
	<anchor x="268" y="0" name="Anchor-2"/>
	<anchor x="268" y="0" name="Anchor-3"/>
	<outline>
		<contour>
			<point x="355" y="1354" type="curve" smooth="yes"/>
			<point x="355" y="154" type="line" smooth="yes"/>
			<point x="355" y="121"/>
			<point x="364" y="110"/>
			<point x="393" y="110" type="curve" smooth="yes"/>
			<point x="453" y="110" type="line" smooth="yes"/>
			<point x="472" y="110"/>
			<point x="475" y="97"/>
			<point x="475" y="78" type="curve" smooth="yes"/>
			<point x="475" y="32" type="line" smooth="yes"/>
			<point x="475" y="8"/>
			<point x="463" y="0"/>
			<point x="435" y="0" type="curve" smooth="yes"/>
			<point x="85" y="0" type="line" smooth="yes"/>
			<point x="57" y="0"/>
			<point x="45" y="7"/>
			<point x="45" y="32" type="curve" smooth="yes"/>
			<point x="45" y="82" type="line" smooth="yes"/>
			<point x="45" y="103"/>
			<point x="53" y="110"/>
			<point x="91" y="110" type="curve" smooth="yes"/>
			<point x="97" y="110" type="line" smooth="yes"/>
			<point x="132" y="110"/>
			<point x="165" y="114"/>
			<point x="165" y="160" type="curve" smooth="yes"/>
			<point x="165" y="1356" type="line" smooth="yes"/>
			<point x="165" y="1382"/>
			<point x="165" y="1390"/>
			<point x="135" y="1390" type="curve" smooth="yes"/>
			<point x="79" y="1390" type="line" smooth="yes"/>
			<point x="53" y="1390"/>
			<point x="45" y="1399"/>
			<point x="45" y="1420" type="curve" smooth="yes"/>
			<point x="45" y="1474" type="line" smooth="yes"/>
			<point x="45" y="1500"/>
			<point x="52" y="1500"/>
			<point x="75" y="1500" type="curve" smooth="yes"/>
			<point x="439" y="1500" type="line" smooth="yes"/>
			<point x="469" y="1500"/>
			<point x="475" y="1497"/>
			<point x="475" y="1466" type="curve" smooth="yes"/>
			<point x="475" y="1432" type="line" smooth="yes"/>
			<point x="475" y="1397"/>
			<point x="458" y="1390"/>
			<point x="433" y="1390" type="curve" smooth="yes"/>
			<point x="393" y="1390" type="line" smooth="yes"/>
			<point x="361" y="1390"/>
			<point x="355" y="1387"/>
		</contour>
	</outline>
</glyph>
<glyph name="P" format="2">
	<advance width="1006" height="0"/>
	<unicode hex="0050"/>
	<anchor x="509" y="1500" name="Anchor-0"/>
	<anchor x="265" y="0" name="Anchor-1"/>
	<anchor x="265" y="0" name="Anchor-2"/>
	<outline>
		<contour>
			<point x="126" y="1390" type="curve" smooth="yes"/>
			<point x="63" y="1390" type="line" smooth="yes"/>
			<point x="39" y="1390"/>
			<point x="38" y="1399"/>
			<point x="38" y="1423" type="curve" smooth="yes"/>
			<point x="38" y="1464" type="line" smooth="yes"/>
			<point x="38" y="1495"/>
			<point x="46" y="1500"/>
			<point x="75" y="1500" type="curve" smooth="yes"/>
			<point x="548" y="1500" type="line" smooth="yes"/>
			<point x="860" y="1500"/>
			<point x="968" y="1340"/>
			<point x="968" y="1080" type="curve" smooth="yes"/>
			<point x="968" y="820"/>
			<point x="860" y="660"/>
			<point x="548" y="660" type="curve" smooth="yes"/>
			<point x="412" y="660" type="line" smooth="yes"/>
			<point x="357" y="660"/>
			<point x="348" y="659"/>
			<point x="348" y="604" type="curve" smooth="yes"/>
			<point x="348" y="173" type="line" smooth="yes"/>
			<point x="348" y="118"/>
			<point x="352" y="110"/>
			<point x="406" y="110" type="curve" smooth="yes"/>
			<point x="456" y="110" type="line" smooth="yes"/>
			<point x="487" y="110"/>
			<point x="488" y="101"/>
			<point x="488" y="70" type="curve" smooth="yes"/>
			<point x="488" y="48" type="line" smooth="yes"/>
			<point x="488" y="8"/>
			<point x="486" y="0"/>
			<point x="446" y="0" type="curve" smooth="yes"/>
			<point x="92" y="0" type="line" smooth="yes"/>
			<point x="51" y="0"/>
			<point x="38" y="2"/>
			<point x="38" y="46" type="curve" smooth="yes"/>
			<point x="38" y="82" type="line" smooth="yes"/>
			<point x="38" y="106"/>
			<point x="45" y="110"/>
			<point x="70" y="110" type="curve" smooth="yes"/>
			<point x="112" y="110" type="line" smooth="yes"/>
			<point x="153" y="110"/>
			<point x="158" y="120"/>
			<point x="158" y="158" type="curve" smooth="yes"/>
			<point x="158" y="1364" type="line" smooth="yes"/>
			<point x="158" y="1387"/>
			<point x="150" y="1390"/>
		</contour>
		<contour>
			<point x="388" y="770" type="curve" smooth="yes"/>
			<point x="518" y="770" type="line" smooth="yes"/>
			<point x="680" y="770"/>
			<point x="748" y="872"/>
			<point x="748" y="1080" type="curve" smooth="yes"/>
			<point x="748" y="1288"/>
			<point x="680" y="1390"/>
			<point x="518" y="1390" type="curve" smooth="yes"/>
			<point x="367" y="1390" type="line" smooth="yes"/>
			<point x="341" y="1390"/>
			<point x="348" y="1378"/>
			<point x="348" y="1351" type="curve" smooth="yes"/>
			<point x="348" y="814" type="line" smooth="yes"/>
			<point x="348" y="772"/>
			<point x="346" y="770"/>
		</contour>
	</outline>
</glyph>
<glyph name="asciicircum" format="2">
	<advance width="1090" height="0"/>
	<unicode hex="005E"/>
	<outline>
		<contour>
			<point x="508" y="1399" type="curve" smooth="yes"/>
			<point x="192" y="1138" type="line" smooth="yes"/>
			<point x="172" y="1122"/>
			<point x="169" y="1121"/>
			<point x="145" y="1134" type="curve" smooth="yes"/>
			<point x="120" y="1147" type="line" smooth="yes"/>
			<point x="99" y="1159"/>
			<point x="105" y="1165"/>
			<point x="120" y="1180" type="curve" smooth="yes"/>
			<point x="460" y="1520" type="line" smooth="yes"/>
			<point x="472" y="1532"/>
			<point x="479" y="1540"/>
			<point x="504" y="1540" type="curve" smooth="yes"/>
			<point x="580" y="1540" type="line" smooth="yes"/>
			<point x="609" y="1540"/>
			<point x="618" y="1532"/>
			<point x="632" y="1518" type="curve" smooth="yes"/>
			<point x="970" y="1180" type="line" smooth="yes"/>
			<point x="985" y="1165"/>
			<point x="989" y="1159"/>
			<point x="967" y="1147" type="curve" smooth="yes"/>
			<point x="947" y="1136" type="line" smooth="yes"/>
			<point x="923" y="1122"/>
			<point x="918" y="1121"/>
			<point x="898" y="1138" type="curve" smooth="yes"/>
			<point x="585" y="1397" type="line" smooth="yes"/>
			<point x="547" y="1428"/>
			<point x="546" y="1430"/>
		</contour>
	</outline>
</glyph>
<glyph name="e" format="2">
	<advance width="794" height="2310"/>
	<unicode hex="0065"/>
	<anchor x="380" y="1040" name="Anchor-0"/>
	<anchor x="412" y="0" name="Anchor-1"/>
	<anchor x="643" y="102" name="Anchor-2"/>
	<anchor x="643" y="102" name="Anchor-3"/>
	<outline>
		<contour>
			<point x="50" y="500" type="curve" smooth="yes"/>
			<point x="50" y="820"/>
			<point x="143" y="1060"/>
			<point x="425" y="1060" type="curve" smooth="yes"/>
			<point x="701" y="1060"/>
			<point x="744" y="788"/>
			<point x="744" y="551" type="curve" smooth="yes"/>
			<point x="744" y="524"/>
			<point x="736" y="522"/>
			<point x="708" y="522" type="curve" smooth="yes"/>
			<point x="285" y="522" type="line" smooth="yes"/>
			<point x="263" y="522"/>
			<point x="252" y="516"/>
			<point x="252" y="493" type="curve" smooth="yes"/>
			<point x="252" y="272"/>
			<point x="273" y="78"/>
			<point x="440" y="78" type="curve" smooth="yes"/>
			<point x="578" y="78"/>
			<point x="626" y="205"/>
			<point x="636" y="322" type="curve" smooth="yes"/>
			<point x="637" y="337"/>
			<point x="643" y="346"/>
			<point x="663" y="346" type="curve" smooth="yes"/>
			<point x="721" y="346" type="line" smooth="yes"/>
			<point x="741" y="346"/>
			<point x="742" y="340"/>
			<point x="741" y="325" type="curve" smooth="yes"/>
			<point x="726" y="152"/>
			<point x="659" y="-20"/>
			<point x="416" y="-20" type="curve" smooth="yes"/>
			<point x="114" y="-20"/>
			<point x="50" y="220"/>
		</contour>
		<contour>
			<point x="284" y="608" type="curve" smooth="yes"/>
			<point x="526" y="608" type="line" smooth="yes"/>
			<point x="552" y="608"/>
			<point x="555" y="610"/>
			<point x="555" y="624" type="curve" smooth="yes"/>
			<point x="555" y="756"/>
			<point x="552" y="972"/>
			<point x="420" y="972" type="curve" smooth="yes"/>
			<point x="285" y="972"/>
			<point x="256" y="790"/>
			<point x="256" y="633" type="curve" smooth="yes"/>
			<point x="256" y="613"/>
			<point x="260" y="608"/>
		</contour>
	</outline>
</glyph>
<glyph name="l" format="2">
	<advance width="400" height="2310"/>
	<unicode hex="006C"/>
	<anchor x="189" y="1696" name="Anchor-0"/>
	<anchor x="196" y="0" name="Anchor-1"/>
	<anchor x="196" y="0" name="Anchor-2"/>
	<anchor x="672" y="1040" name="Anchor-3"/>
	<outline>
		<contour>
			<point x="88" y="1450" type="curve" smooth="yes"/>
			<point x="53" y="1450" type="line" smooth="yes"/>
			<point x="42" y="1450"/>
			<point x="30" y="1464"/>
			<point x="30" y="1492" type="curve" smooth="yes"/>
			<point x="30" y="1530" type="line" smooth="yes"/>
			<point x="30" y="1558"/>
			<point x="46" y="1560"/>
			<point x="71" y="1560" type="curve" smooth="yes"/>
			<point x="245" y="1560" type="line" smooth="yes"/>
			<point x="280" y="1560"/>
			<point x="290" y="1559"/>
			<point x="290" y="1524" type="curve" smooth="yes"/>
			<point x="290" y="154" type="line" smooth="yes"/>
			<point x="290" y="119"/>
			<point x="284" y="110"/>
			<point x="311" y="110" type="curve" smooth="yes"/>
			<point x="343" y="110" type="line" smooth="yes"/>
			<point x="362" y="110"/>
			<point x="370" y="105"/>
			<point x="370" y="84" type="curve" smooth="yes"/>
			<point x="370" y="40" type="line" smooth="yes"/>
			<point x="370" y="2"/>
			<point x="358" y="0"/>
			<point x="323" y="0" type="curve" smooth="yes"/>
			<point x="69" y="0" type="line" smooth="yes"/>
			<point x="39" y="0"/>
			<point x="30" y="4"/>
			<point x="30" y="36" type="curve" smooth="yes"/>
			<point x="30" y="76" type="line" smooth="yes"/>
			<point x="30" y="100"/>
			<point x="31" y="110"/>
			<point x="55" y="110" type="curve" smooth="yes"/>
			<point x="99" y="110" type="line" smooth="yes"/>
			<point x="109" y="110"/>
			<point x="110" y="112"/>
			<point x="110" y="144" type="curve" smooth="yes"/>
			<point x="110" y="1416" type="line" smooth="yes"/>
			<point x="110" y="1445"/>
			<point x="99" y="1450"/>
		</contour>
	</outline>
</glyph>
<glyph name="m" format="2">
	<advance width="1239" height="2310"/>
	<unicode hex="006D"/>
	<anchor x="677" y="1040" name="Anchor-0"/>
	<anchor x="638" y="0" name="Anchor-1"/>
	<anchor x="638" y="0" name="Anchor-2"/>
	<outline>
		<contour>
			<point x="48" y="30" type="curve" smooth="yes"/>
			<point x="48" y="88" type="line" smooth="yes"/>
			<point x="48" y="106"/>
			<point x="55" y="110"/>
			<point x="74" y="110" type="curve" smooth="yes"/>
			<point x="76" y="110" type="line" smooth="yes"/>
			<point x="101" y="110"/>
			<point x="108" y="114"/>
			<point x="108" y="148" type="curve" smooth="yes"/>
			<point x="108" y="898" type="line" smooth="yes"/>
			<point x="108" y="927"/>
			<point x="106" y="930"/>
			<point x="80" y="930" type="curve" smooth="yes"/>
			<point x="78" y="930" type="line" smooth="yes"/>
			<point x="55" y="930"/>
			<point x="48" y="934"/>
			<point x="48" y="966" type="curve" smooth="yes"/>
			<point x="48" y="998" type="line" smooth="yes"/>
			<point x="48" y="1033"/>
			<point x="52" y="1040"/>
			<point x="86" y="1040" type="curve" smooth="yes"/>
			<point x="248" y="1040" type="line" smooth="yes"/>
			<point x="277" y="1040"/>
			<point x="288" y="1037"/>
			<point x="288" y="1006" type="curve" smooth="yes"/>
			<point x="288" y="946" type="line" smooth="yes"/>
			<point x="288" y="852"/>
			<point x="296" y="877"/>
			<point x="318" y="915" type="curve" smooth="yes"/>
			<point x="368" y="1001"/>
			<point x="432" y="1060"/>
			<point x="526" y="1060" type="curve" smooth="yes"/>
			<point x="621" y="1060"/>
			<point x="667" y="1003"/>
			<point x="696" y="910" type="curve" smooth="yes"/>
			<point x="707" y="873"/>
			<point x="718" y="891"/>
			<point x="732" y="913" type="curve" smooth="yes"/>
			<point x="786" y="999"/>
			<point x="848" y="1060"/>
			<point x="948" y="1060" type="curve" smooth="yes"/>
			<point x="1102" y="1060"/>
			<point x="1152" y="952"/>
			<point x="1152" y="738" type="curve" smooth="yes"/>
			<point x="1152" y="154" type="line" smooth="yes"/>
			<point x="1152" y="118"/>
			<point x="1156" y="110"/>
			<point x="1184" y="110" type="curve" smooth="yes"/>
			<point x="1192" y="110" type="line" smooth="yes"/>
			<point x="1211" y="110"/>
			<point x="1214" y="102"/>
			<point x="1214" y="82" type="curve" smooth="yes"/>
			<point x="1214" y="44" type="line" smooth="yes"/>
			<point x="1214" y="4"/>
			<point x="1206" y="0"/>
			<point x="1168" y="0" type="curve" smooth="yes"/>
			<point x="936" y="0" type="line" smooth="yes"/>
			<point x="897" y="0"/>
			<point x="886" y="2"/>
			<point x="886" y="44" type="curve" smooth="yes"/>
			<point x="886" y="72" type="line" smooth="yes"/>
			<point x="886" y="104"/>
			<point x="891" y="110"/>
			<point x="922" y="110" type="curve" smooth="yes"/>
			<point x="926" y="110" type="line" smooth="yes"/>
			<point x="964" y="110"/>
			<point x="972" y="113"/>
			<point x="972" y="150" type="curve" smooth="yes"/>
			<point x="972" y="716" type="line" smooth="yes"/>
			<point x="972" y="864"/>
			<point x="964" y="936"/>
			<point x="892" y="936" type="curve" smooth="yes"/>
			<point x="796" y="936"/>
			<point x="720" y="772"/>
			<point x="720" y="566" type="curve" smooth="yes"/>
			<point x="720" y="148" type="line" smooth="yes"/>
			<point x="720" y="111"/>
			<point x="735" y="110"/>
			<point x="748" y="110" type="curve" smooth="yes"/>
			<point x="758" y="110" type="line" smooth="yes"/>
			<point x="767" y="110"/>
			<point x="782" y="108"/>
			<point x="782" y="76" type="curve" smooth="yes"/>
			<point x="782" y="40" type="line" smooth="yes"/>
			<point x="782" y="8"/>
			<point x="778" y="0"/>
			<point x="744" y="0" type="curve" smooth="yes"/>
			<point x="518" y="0" type="line" smooth="yes"/>
			<point x="490" y="0"/>
			<point x="480" y="4"/>
			<point x="480" y="34" type="curve" smooth="yes"/>
			<point x="480" y="64" type="line" smooth="yes"/>
			<point x="480" y="103"/>
			<point x="494" y="110"/>
			<point x="512" y="110" type="curve" smooth="yes"/>
			<point x="516" y="110" type="line" smooth="yes"/>
			<point x="533" y="110"/>
			<point x="540" y="114"/>
			<point x="540" y="150" type="curve" smooth="yes"/>
			<point x="540" y="716" type="line" smooth="yes"/>
			<point x="540" y="864"/>
			<point x="522" y="936"/>
			<point x="460" y="936" type="curve" smooth="yes"/>
			<point x="394" y="936"/>
			<point x="288" y="772"/>
			<point x="288" y="566" type="curve" smooth="yes"/>
			<point x="288" y="152" type="line" smooth="yes"/>
			<point x="288" y="110"/>
			<point x="288" y="110"/>
			<point x="330" y="110" type="curve" smooth="yes"/>
			<point x="338" y="110" type="line" smooth="yes"/>
			<point x="366" y="110"/>
			<point x="374" y="106"/>
			<point x="374" y="76" type="curve" smooth="yes"/>
			<point x="374" y="36" type="line" smooth="yes"/>
			<point x="374" y="17"/>
			<point x="371" y="0"/>
			<point x="350" y="0" type="curve" smooth="yes"/>
			<point x="76" y="0" type="line" smooth="yes"/>
			<point x="54" y="0"/>
			<point x="48" y="6"/>
		</contour>
	</outline>
</glyph>
<glyph name="q" format="2">
	<advance width="911" height="2310"/>
	<unicode hex="0071"/>
	<anchor x="453" y="1040" name="Anchor-0"/>
	<anchor x="362" y="0" name="Anchor-1"/>
	<anchor x="362" y="0" name="Anchor-2"/>
	<outline>
		<contour>
			<point x="628" y="520" type="curve" smooth="yes"/>
			<point x="628" y="828"/>
			<point x="554" y="956"/>
			<point x="422" y="956" type="curve" smooth="yes"/>
			<point x="314" y="956"/>
			<point x="252" y="828"/>
			<point x="252" y="520" type="curve" smooth="yes"/>
			<point x="252" y="212"/>
			<point x="314" y="84"/>
			<point x="422" y="84" type="curve" smooth="yes"/>
			<point x="554" y="84"/>
			<point x="628" y="212"/>
		</contour>
		<contour>
			<point x="864" y="-390" type="curve" smooth="yes"/>
			<point x="887" y="-390" type="line" smooth="yes"/>
			<point x="888" y="-390"/>
			<point x="888" y="-396"/>
			<point x="888" y="-416" type="curve" smooth="yes"/>
			<point x="888" y="-464" type="line" smooth="yes"/>
			<point x="888" y="-498"/>
			<point x="880" y="-500"/>
			<point x="845" y="-500" type="curve" smooth="yes"/>
			<point x="585" y="-500" type="line" smooth="yes"/>
			<point x="554" y="-500"/>
			<point x="548" y="-494"/>
			<point x="548" y="-462" type="curve" smooth="yes"/>
			<point x="548" y="-430" type="line" smooth="yes"/>
			<point x="548" y="-397"/>
			<point x="551" y="-390"/>
			<point x="583" y="-390" type="curve" smooth="yes"/>
			<point x="581" y="-390" type="line" smooth="yes"/>
			<point x="625" y="-390"/>
			<point x="628" y="-381"/>
			<point x="628" y="-336" type="curve" smooth="yes"/>
			<point x="628" y="64" type="line" smooth="yes"/>
			<point x="628" y="136"/>
			<point x="618" y="129"/>
			<point x="601" y="99" type="curve" smooth="yes"/>
			<point x="554" y="17"/>
			<point x="479" y="-18"/>
			<point x="366" y="-18" type="curve" smooth="yes"/>
			<point x="158" y="-18"/>
			<point x="52" y="180"/>
			<point x="52" y="520" type="curve" smooth="yes"/>
			<point x="52" y="860"/>
			<point x="178" y="1060"/>
			<point x="386" y="1060" type="curve" smooth="yes"/>
			<point x="497" y="1060"/>
			<point x="562" y="1007"/>
			<point x="599" y="946" type="curve" smooth="yes"/>
			<point x="617" y="917"/>
			<point x="628" y="912"/>
			<point x="628" y="988" type="curve" smooth="yes"/>
			<point x="628" y="998" type="line" smooth="yes"/>
			<point x="628" y="1037"/>
			<point x="645" y="1040"/>
			<point x="685" y="1040" type="curve" smooth="yes"/>
			<point x="847" y="1040" type="line" smooth="yes"/>
			<point x="874" y="1040"/>
			<point x="888" y="1038"/>
			<point x="888" y="1008" type="curve" smooth="yes"/>
			<point x="888" y="970" type="line" smooth="yes"/>
			<point x="888" y="939"/>
			<point x="870" y="930"/>
			<point x="857" y="930" type="curve" smooth="yes"/>
			<point x="842" y="930" type="line" smooth="yes"/>
			<point x="829" y="930"/>
			<point x="808" y="924"/>
			<point x="808" y="892" type="curve" smooth="yes"/>
			<point x="808" y="-348" type="line" smooth="yes"/>
			<point x="808" y="-389"/>
			<point x="822" y="-390"/>
		</contour>
	</outline>
</glyph>
<glyph name="r" format="2">
	<advance width="631" height="2310"/>
	<unicode hex="0072"/>
	<anchor x="355" y="1040" name="Anchor-0"/>
	<anchor x="137" y="0" name="Anchor-1"/>
	<anchor x="137" y="0" name="Anchor-2"/>
	<outline>
		<contour>
			<point x="130" y="892" type="line" smooth="yes"/>
			<point x="130" y="924"/>
			<point x="125" y="930"/>
			<point x="94" y="930" type="curve" smooth="yes"/>
			<point x="80" y="930" type="line" smooth="yes"/>
			<point x="51" y="930"/>
			<point x="50" y="938"/>
			<point x="50" y="968" type="curve" smooth="yes"/>
			<point x="50" y="1005" type="line" smooth="yes"/>
			<point x="50" y="1033"/>
			<point x="54" y="1040"/>
			<point x="82" y="1040" type="curve" smooth="yes"/>
			<point x="255" y="1040" type="line" smooth="yes"/>
			<point x="278" y="1040"/>
			<point x="291" y="1037"/>
			<point x="291" y="1012" type="curve" smooth="yes"/>
			<point x="291" y="977" type="line" smooth="yes"/>
			<point x="291" y="943"/>
			<point x="298" y="942"/>
			<point x="320" y="973" type="curve" smooth="yes"/>
			<point x="363" y="1034"/>
			<point x="409" y="1060"/>
			<point x="470" y="1060" type="curve" smooth="yes"/>
			<point x="542" y="1060"/>
			<point x="606" y="1004"/>
			<point x="606" y="918" type="curve" smooth="yes"/>
			<point x="606" y="844"/>
			<point x="562" y="800"/>
			<point x="492" y="800" type="curve" smooth="yes"/>
			<point x="424" y="800"/>
			<point x="390" y="850"/>
			<point x="390" y="902" type="curve" smooth="yes"/>
			<point x="390" y="911"/>
			<point x="391" y="914"/>
			<point x="391" y="920" type="curve" smooth="yes"/>
			<point x="391" y="930"/>
			<point x="386" y="932"/>
			<point x="380" y="932" type="curve" smooth="yes"/>
			<point x="354" y="932"/>
			<point x="310" y="862"/>
			<point x="310" y="656" type="curve" smooth="yes"/>
			<point x="310" y="151" type="line" smooth="yes"/>
			<point x="310" y="120"/>
			<point x="311" y="110"/>
			<point x="342" y="110" type="curve" smooth="yes"/>
			<point x="374" y="110" type="line" smooth="yes"/>
			<point x="399" y="110"/>
			<point x="400" y="101"/>
			<point x="400" y="76" type="curve" smooth="yes"/>
			<point x="400" y="31" type="line" smooth="yes"/>
			<point x="400" y="7"/>
			<point x="397" y="0"/>
			<point x="374" y="0" type="curve" smooth="yes"/>
			<point x="78" y="0" type="line" smooth="yes"/>
			<point x="60" y="0"/>
			<point x="50" y="1"/>
			<point x="50" y="19" type="curve" smooth="yes"/>
			<point x="50" y="82" type="line" smooth="yes"/>
			<point x="50" y="104"/>
			<point x="58" y="110"/>
			<point x="78" y="110" type="curve" smooth="yes"/>
			<point x="89" y="110" type="line" smooth="yes"/>
			<point x="119" y="110"/>
			<point x="130" y="116"/>
			<point x="130" y="145" type="curve" smooth="yes"/>
		</contour>
	</outline>
</glyph>
<glyph name="v" format="2">
	<advance width="808" height="2310"/>
	<unicode hex="0076"/>
	<anchor x="454" y="1040" name="Anchor-0"/>
	<anchor x="417" y="0" name="Anchor-1"/>
	<anchor x="417" y="0" name="Anchor-2"/>
	<outline>
		<contour>
			<point x="453" y="345" type="curve" smooth="yes"/>
			<point x="602" y="897" type="line" smooth="yes"/>
			<point x="609" y="924"/>
			<point x="604" y="930"/>
			<point x="590" y="930" type="curve" smooth="yes"/>
			<point x="536" y="930" type="line" smooth="yes"/>
			<point x="515" y="930"/>
			<point x="515" y="936"/>
			<point x="515" y="959" type="curve" smooth="yes"/>
			<point x="515" y="1013" type="line" smooth="yes"/>
			<point x="515" y="1030"/>
			<point x="521" y="1040"/>
			<point x="538" y="1040" type="curve" smooth="yes"/>
			<point x="767" y="1040" type="line" smooth="yes"/>
			<point x="795" y="1040"/>
			<point x="803" y="1036"/>
			<point x="803" y="1006" type="curve" smooth="yes"/>
			<point x="803" y="953" type="line" smooth="yes"/>
			<point x="803" y="932"/>
			<point x="795" y="930"/>
			<point x="773" y="930" type="curve" smooth="yes"/>
			<point x="748" y="930" type="line" smooth="yes"/>
			<point x="719" y="930"/>
			<point x="720" y="924"/>
			<point x="714" y="903" type="curve" smooth="yes"/>
			<point x="476" y="-1" type="line" smooth="yes"/>
			<point x="473" y="-18"/>
			<point x="461" y="-20"/>
			<point x="438" y="-20" type="curve" smooth="yes"/>
			<point x="393" y="-20" type="line" smooth="yes"/>
			<point x="370" y="-20"/>
			<point x="358" y="-18"/>
			<point x="354" y="-1" type="curve" smooth="yes"/>
			<point x="105" y="909" type="line" smooth="yes"/>
			<point x="98" y="929"/>
			<point x="87" y="930"/>
			<point x="59" y="930" type="curve" smooth="yes"/>
			<point x="29" y="930" type="line" smooth="yes"/>
			<point x="12" y="930"/>
			<point x="5" y="938"/>
			<point x="5" y="954" type="curve" smooth="yes"/>
			<point x="5" y="1005" type="line" smooth="yes"/>
			<point x="5" y="1035"/>
			<point x="20" y="1040"/>
			<point x="47" y="1040" type="curve" smooth="yes"/>
			<point x="359" y="1040" type="line" smooth="yes"/>
			<point x="380" y="1040"/>
			<point x="387" y="1035"/>
			<point x="387" y="1012" type="curve" smooth="yes"/>
			<point x="387" y="962" type="line" smooth="yes"/>
			<point x="387" y="930"/>
			<point x="377" y="930"/>
			<point x="345" y="930" type="curve" smooth="yes"/>
			<point x="329" y="930" type="line" smooth="yes"/>
			<point x="310" y="930"/>
			<point x="300" y="922"/>
			<point x="305" y="900" type="curve" smooth="yes"/>
			<point x="436" y="348" type="line" smooth="yes"/>
			<point x="442" y="324"/>
			<point x="437" y="314"/>
			<point x="444" y="314" type="curve" smooth="yes"/>
			<point x="451" y="314"/>
			<point x="447" y="323"/>
		</contour>
	</outline>
</glyph>
<glyph name="dieresis" format="2">
	<advance width="1000" height="0"/>
	<unicode hex="00A8"/>
	<anchor x="501" y="1500" name="_Anchor-0"/>
	<outline>
		<contour>
			<point x="660" y="1690" type="curve" smooth="yes"/>
			<point x="607" y="1690"/>
			<point x="564" y="1733"/>
			<point x="564" y="1786" type="curve" smooth="yes"/>
			<point x="564" y="1839"/>
			<point x="607" y="1883"/>
			<point x="660" y="1883" type="curve" smooth="yes"/>
			<point x="713" y="1883"/>
			<point x="756" y="1839"/>
			<point x="756" y="1786" type="curve" smooth="yes"/>
			<point x="756" y="1733"/>
			<point x="713" y="1690"/>
		</contour>
		<contour>
			<point x="340" y="1690" type="curve" smooth="yes"/>
			<point x="287" y="1690"/>
			<point x="244" y="1733"/>
			<point x="244" y="1786" type="curve" smooth="yes"/>
			<point x="244" y="1839"/>
			<point x="287" y="1883"/>
			<point x="340" y="1883" type="curve" smooth="yes"/>
			<point x="393" y="1883"/>
			<point x="436" y="1839"/>
			<point x="436" y="1786" type="curve" smooth="yes"/>
			<point x="436" y="1733"/>
			<point x="393" y="1690"/>
		</contour>
	</outline>
</glyph>
<glyph name="ordfeminine" format="2">
	<advance width="703" height="2310"/>
	<unicode hex="00AA"/>
	<outline>
		<contour>
			<point x="40" y="1112" type="curve" smooth="yes"/>
			<point x="40" y="1225"/>
			<point x="145" y="1323"/>
			<point x="351" y="1323" type="curve" smooth="yes"/>
			<point x="410" y="1323" type="line" smooth="yes"/>
			<point x="424" y="1323"/>
			<point x="425" y="1324"/>
			<point x="425" y="1338" type="curve" smooth="yes"/>
			<point x="425" y="1404" type="line" smooth="yes"/>
			<point x="425" y="1484"/>
			<point x="404" y="1545"/>
			<point x="308" y="1545" type="curve" smooth="yes"/>
			<point x="243" y="1545"/>
			<point x="179" y="1522"/>
			<point x="179" y="1498" type="curve" smooth="yes"/>
			<point x="179" y="1476"/>
			<point x="213" y="1483"/>
			<point x="213" y="1436" type="curve" smooth="yes"/>
			<point x="213" y="1395"/>
			<point x="188" y="1366"/>
			<point x="147" y="1366" type="curve" smooth="yes"/>
			<point x="110" y="1366"/>
			<point x="76" y="1383"/>
			<point x="76" y="1436" type="curve" smooth="yes"/>
			<point x="76" y="1540"/>
			<point x="211" y="1600"/>
			<point x="332" y="1600" type="curve" smooth="yes"/>
			<point x="500" y="1600"/>
			<point x="533" y="1507"/>
			<point x="533" y="1410" type="curve" smooth="yes"/>
			<point x="533" y="1049" type="line" smooth="yes"/>
			<point x="533" y="1025"/>
			<point x="547" y="1014"/>
			<point x="564" y="1014" type="curve" smooth="yes"/>
			<point x="581" y="1014"/>
			<point x="600" y="1020"/>
			<point x="621" y="1053" type="curve" smooth="yes"/>
			<point x="625" y="1060"/>
			<point x="629" y="1063"/>
			<point x="635" y="1058" type="curve"/>
			<point x="657" y="1044" type="line" smooth="yes"/>
			<point x="664" y="1040"/>
			<point x="664" y="1038"/>
			<point x="660" y="1030" type="curve" smooth="yes"/>
			<point x="632" y="977"/>
			<point x="585" y="952"/>
			<point x="536" y="952" type="curve" smooth="yes"/>
			<point x="535" y="952" type="line" smooth="yes"/>
			<point x="444" y="952"/>
			<point x="434" y="1009"/>
			<point x="429" y="1038" type="curve" smooth="yes"/>
			<point x="427" y="1052"/>
			<point x="423" y="1053"/>
			<point x="412" y="1038" type="curve" smooth="yes"/>
			<point x="393" y="1011"/>
			<point x="353" y="952"/>
			<point x="226" y="952" type="curve" smooth="yes"/>
			<point x="119" y="952"/>
			<point x="40" y="1011"/>
		</contour>
		<contour>
			<point x="162" y="1130" type="curve" smooth="yes"/>
			<point x="162" y="1050"/>
			<point x="220" y="1019"/>
			<point x="280" y="1019" type="curve" smooth="yes"/>
			<point x="362" y="1019"/>
			<point x="425" y="1084"/>
			<point x="425" y="1193" type="curve" smooth="yes"/>
			<point x="425" y="1265" type="line" smooth="yes"/>
			<point x="425" y="1275"/>
			<point x="423" y="1277"/>
			<point x="413" y="1277" type="curve" smooth="yes"/>
			<point x="351" y="1277" type="line" smooth="yes"/>
			<point x="212" y="1277"/>
			<point x="162" y="1222"/>
		</contour>
	</outline>
</glyph>
<glyph name="mu" format="2">
	<advance width="1233" height="0"/>
	<unicode hex="00B5"/>
	<outline>
		<contour>
			<point x="232" y="847" type="line"/>
			<point x="232" y="-242" type="line" smooth="yes"/>
			<point x="232" y="-413"/>
			<point x="326" y="-423"/>
			<point x="334" y="-415" type="curve" smooth="yes"/>
			<point x="341" y="-407"/>
			<point x="321" y="-406"/>
			<point x="321" y="-352" type="curve" smooth="yes"/>
			<point x="321" y="-297"/>
			<point x="379" y="-246"/>
			<point x="444" y="-246" type="curve" smooth="yes"/>
			<point x="514" y="-246"/>
			<point x="567" y="-308"/>
			<point x="567" y="-380" type="curve" smooth="yes"/>
			<point x="567" y="-471"/>
			<point x="500" y="-520"/>
			<point x="400" y="-520" type="curve" smooth="yes"/>
			<point x="238" y="-520"/>
			<point x="120" y="-409"/>
			<point x="120" y="-242" type="curve" smooth="yes"/>
			<point x="120" y="847" type="line"/>
		</contour>
		<component base="u"/>
	</outline>
</glyph>
<glyph name="onequarter" format="2">
	<advance width="1196" height="0"/>
	<unicode hex="00BC"/>
	<outline>
		<contour>
			<point x="910" y="1440" type="line"/>
			<point x="1008" y="1440" type="line"/>
			<point x="286" y="-60" type="line"/>
			<point x="178" y="-60" type="line"/>
		</contour>
		<component base="one" xScale="0.6" yScale="0.6" xOffset="12" yOffset="632"/>
		<component base="four" xScale="0.6" yScale="0.6" xOffset="628" yOffset="4"/>
	</outline>
</glyph>
<glyph name="onehalf" format="2">
	<advance width="1348" height="0"/>
	<unicode hex="00BD"/>
	<outline>
		<contour>
			<point x="910" y="1440" type="line"/>
			<point x="1008" y="1440" type="line"/>
			<point x="286" y="-60" type="line"/>
			<point x="178" y="-60" type="line"/>
		</contour>
		<component base="one" xScale="0.6" yScale="0.6" xOffset="14" yOffset="632"/>
		<component base="two" xScale="0.6" yScale="0.6" xOffset="822" yOffset="-16"/>
	</outline>
</glyph>
<glyph name="threequarters" format="2">
	<advance width="1268" height="0"/>
	<unicode hex="00BE"/>
	<outline>
		<contour>
			<point x="960" y="1440" type="line"/>
			<point x="1058" y="1440" type="line"/>
			<point x="336" y="-60" type="line"/>
			<point x="228" y="-60" type="line"/>
		</contour>
		<component base="three" xScale="0.6" yScale="0.6" xOffset="30" yOffset="614"/>
		<component base="four" xScale="0.6" yScale="0.6" xOffset="710" yOffset="4"/>
	</outline>
</glyph>
<glyph name="Oslash" format="2">
	<advance width="1050" height="0"/>
	<unicode hex="00D8"/>
	<outline>
		<contour>
			<point x="871" y="1660" type="curve" smooth="yes"/>
			<point x="916" y="1660" type="line" smooth="yes"/>
			<point x="916" y="1660"/>
			<point x="955" y="1655"/>
			<point x="945" y="1630" type="curve" smooth="yes"/>
			<point x="228" y="-168" type="line" smooth="yes"/>
			<point x="217" y="-196"/>
			<point x="207" y="-200"/>
			<point x="166" y="-200" type="curve" smooth="yes"/>
			<point x="134" y="-200" type="line" smooth="yes"/>
			<point x="85" y="-200"/>
			<point x="82" y="-189"/>
			<point x="94" y="-158" type="curve" smooth="yes"/>
			<point x="815" y="1626" type="line" smooth="yes"/>
			<point x="826" y="1653"/>
			<point x="831" y="1660"/>
		</contour>
		<component base="O"/>
	</outline>
</glyph>
<glyph name="germandbls" format="2">
	<advance width="1042" height="2309"/>
	<unicode hex="00DF"/>
	<outline>
		<contour>
			<point x="1002" y="290" type="curve" smooth="yes"/>
			<point x="1002" y="120"/>
			<point x="906" y="-20"/>
			<point x="704" y="-20" type="curve" smooth="yes"/>
			<point x="551" y="-20"/>
			<point x="426" y="67"/>
			<point x="426" y="231" type="curve" smooth="yes"/>
			<point x="426" y="313"/>
			<point x="480" y="362"/>
			<point x="550" y="362" type="curve" smooth="yes"/>
			<point x="611" y="362"/>
			<point x="658" y="322"/>
			<point x="658" y="250" type="curve" smooth="yes"/>
			<point x="658" y="215"/>
			<point x="642" y="186"/>
			<point x="617" y="166" type="curve" smooth="yes"/>
			<point x="595" y="149"/>
			<point x="581" y="129"/>
			<point x="591" y="112" type="curve" smooth="yes"/>
			<point x="600" y="96"/>
			<point x="625" y="73"/>
			<point x="683" y="73" type="curve" smooth="yes"/>
			<point x="771" y="73"/>
			<point x="840" y="132"/>
			<point x="840" y="230" type="curve" smooth="yes"/>
			<point x="840" y="525"/>
			<point x="477" y="557"/>
			<point x="477" y="767" type="curve" smooth="yes"/>
			<point x="477" y="987"/>
			<point x="750" y="1025"/>
			<point x="750" y="1243" type="curve" smooth="yes"/>
			<point x="750" y="1418"/>
			<point x="664" y="1463"/>
			<point x="506" y="1463" type="curve" smooth="yes"/>
			<point x="188" y="1463"/>
			<point x="291" y="1196"/>
			<point x="291" y="962" type="curve" smooth="yes"/>
			<point x="291" y="37" type="line" smooth="yes"/>
			<point x="291" y="5"/>
			<point x="285" y="0"/>
			<point x="251" y="0" type="curve" smooth="yes"/>
			<point x="60" y="0" type="line" smooth="yes"/>
			<point x="32" y="0"/>
			<point x="29" y="8"/>
			<point x="29" y="37" type="curve" smooth="yes"/>
			<point x="29" y="80" type="line" smooth="yes"/>
			<point x="29" y="108"/>
			<point x="37" y="113"/>
			<point x="63" y="113" type="curve" smooth="yes"/>
			<point x="73" y="113" type="line" smooth="yes"/>
			<point x="109" y="113"/>
			<point x="110" y="128"/>
			<point x="110" y="161" type="curve" smooth="yes"/>
			<point x="110" y="982" type="line" smooth="yes"/>
			<point x="110" y="1328"/>
			<point x="120" y="1570"/>
			<point x="536" y="1570" type="curve" smooth="yes"/>
			<point x="792" y="1570"/>
			<point x="933" y="1458"/>
			<point x="933" y="1272" type="curve" smooth="yes"/>
			<point x="933" y="1023"/>
			<point x="634" y="940"/>
			<point x="634" y="833" type="curve" smooth="yes"/>
			<point x="634" y="707"/>
			<point x="1002" y="627"/>
		</contour>
	</outline>
</glyph>
<glyph name="oslash" format="2">
	<advance width="860" height="0"/>
	<unicode hex="00F8"/>
	<outline>
		<contour>
			<point x="786" y="1215" type="curve" smooth="yes"/>
			<point x="831" y="1215" type="line" smooth="yes"/>
			<point x="869" y="1215"/>
			<point x="870" y="1211"/>
			<point x="860" y="1192" type="curve" smooth="yes"/>
			<point x="143" y="-165" type="line" smooth="yes"/>
			<point x="132" y="-186"/>
			<point x="122" y="-189"/>
			<point x="81" y="-189" type="curve" smooth="yes"/>
			<point x="49" y="-189" type="line" smooth="yes"/>
			<point x="0" y="-189"/>
			<point x="-3" y="-181"/>
			<point x="9" y="-158" type="curve" smooth="yes"/>
			<point x="730" y="1189" type="line" smooth="yes"/>
			<point x="741" y="1209"/>
			<point x="746" y="1215"/>
		</contour>
		<component base="o"/>
	</outline>
</glyph>
<glyph name="Hbar" format="2">
	<advance width="1196" height="0"/>
	<unicode hex="0126"/>
	<outline>
		<contour>
			<point x="106" y="1190" type="curve" smooth="yes"/>
			<point x="1096" y="1190" type="line" smooth="yes"/>
			<point x="1151" y="1190"/>
			<point x="1158" y="1186"/>
			<point x="1158" y="1162" type="curve" smooth="yes"/>
			<point x="1158" y="1113" type="line" smooth="yes"/>
			<point x="1158" y="1089"/>
			<point x="1153" y="1080"/>
			<point x="1091" y="1080" type="curve" smooth="yes"/>
			<point x="101" y="1080" type="line" smooth="yes"/>
			<point x="41" y="1080"/>
			<point x="39" y="1084"/>
			<point x="39" y="1110" type="curve" smooth="yes"/>
			<point x="39" y="1162" type="line" smooth="yes"/>
			<point x="39" y="1185"/>
			<point x="56" y="1190"/>
		</contour>
		<component base="H"/>
	</outline>
</glyph>
<glyph name="hbar" format="2">
	<advance width="922" height="2309"/>
	<unicode hex="0127"/>
	<outline>
		<contour>
			<point x="60" y="1290" type="curve" smooth="yes"/>
			<point x="402" y="1290" type="line" smooth="yes"/>
			<point x="430" y="1290"/>
			<point x="433" y="1286"/>
			<point x="433" y="1262" type="curve" smooth="yes"/>
			<point x="433" y="1213" type="line" smooth="yes"/>
			<point x="433" y="1189"/>
			<point x="431" y="1180"/>
			<point x="399" y="1180" type="curve" smooth="yes"/>
			<point x="58" y="1180" type="line" smooth="yes"/>
			<point x="28" y="1180"/>
			<point x="26" y="1184"/>
			<point x="26" y="1210" type="curve" smooth="yes"/>
			<point x="26" y="1262" type="line" smooth="yes"/>
			<point x="26" y="1285"/>
			<point x="34" y="1290"/>
		</contour>
		<component base="h"/>
	</outline>
</glyph>
<glyph name="Lslash" format="2">
	<advance width="976" height="0"/>
	<unicode hex="0141"/>
	<outline>
		<contour>
			<point x="67" y="736" type="curve" smooth="yes"/>
			<point x="551" y="1089" type="line" smooth="yes"/>
			<point x="571" y="1102"/>
			<point x="584" y="1123"/>
			<point x="584" y="1082" type="curve" smooth="yes"/>
			<point x="584" y="1033" type="line" smooth="yes"/>
			<point x="584" y="998"/>
			<point x="582" y="994"/>
			<point x="561" y="981" type="curve" smooth="yes"/>
			<point x="73" y="625" type="line" smooth="yes"/>
			<point x="53" y="613"/>
			<point x="43" y="594"/>
			<point x="43" y="634" type="curve" smooth="yes"/>
			<point x="43" y="695" type="line" smooth="yes"/>
			<point x="43" y="725"/>
			<point x="50" y="725"/>
		</contour>
		<component base="L"/>
	</outline>
</glyph>
<glyph name="lslash" format="2">
	<advance width="404" height="2309"/>
	<unicode hex="0142"/>
	<outline>
		<contour>
			<point x="60" y="810" type="curve" smooth="yes"/>
			<point x="350" y="1005" type="line" smooth="yes"/>
			<point x="371" y="1019"/>
			<point x="374" y="1025"/>
			<point x="374" y="988" type="curve" smooth="yes"/>
			<point x="374" y="928" type="line" smooth="yes"/>
			<point x="374" y="891"/>
			<point x="370" y="890"/>
			<point x="348" y="876" type="curve" smooth="yes"/>
			<point x="68" y="687" type="line" smooth="yes"/>
			<point x="48" y="674"/>
			<point x="44" y="665"/>
			<point x="44" y="701" type="curve" smooth="yes"/>
			<point x="44" y="775" type="line" smooth="yes"/>
			<point x="44" y="799"/>
			<point x="46" y="801"/>
		</contour>
		<component base="l"/>
	</outline>
</glyph>
<glyph name="Eng" format="2">
	<advance width="1135" height="2310"/>
	<unicode hex="014A"/>
	<outline>
		<contour>
			<point x="134" y="1390" type="curve" smooth="yes"/>
			<point x="59" y="1390" type="line" smooth="yes"/>
			<point x="42" y="1390"/>
			<point x="38" y="1397"/>
			<point x="38" y="1415" type="curve" smooth="yes"/>
			<point x="38" y="1477" type="line" smooth="yes"/>
			<point x="38" y="1493"/>
			<point x="42" y="1500"/>
			<point x="57" y="1500" type="curve" smooth="yes"/>
			<point x="317" y="1500" type="line" smooth="yes"/>
			<point x="339" y="1500"/>
			<point x="348" y="1483"/>
			<point x="348" y="1465" type="curve" smooth="yes"/>
			<point x="348" y="1328" type="line" smooth="yes"/>
			<point x="348" y="1276"/>
			<point x="357" y="1288"/>
			<point x="368" y="1311" type="curve" smooth="yes"/>
			<point x="420" y="1418"/>
			<point x="501" y="1520"/>
			<point x="674" y="1520" type="curve" smooth="yes"/>
			<point x="928" y="1520"/>
			<point x="1038" y="1372"/>
			<point x="1038" y="1098" type="curve" smooth="yes"/>
			<point x="1038" y="22" type="line" smooth="yes"/>
			<point x="1038" y="-278"/>
			<point x="1046" y="-520"/>
			<point x="764" y="-520" type="curve" smooth="yes"/>
			<point x="586" y="-520"/>
			<point x="482" y="-404"/>
			<point x="482" y="-280" type="curve" smooth="yes"/>
			<point x="482" y="-204"/>
			<point x="530" y="-138"/>
			<point x="600" y="-138" type="curve" smooth="yes"/>
			<point x="668" y="-138"/>
			<point x="716" y="-184"/>
			<point x="716" y="-250" type="curve" smooth="yes"/>
			<point x="716" y="-320"/>
			<point x="678" y="-318"/>
			<point x="678" y="-358" type="curve" smooth="yes"/>
			<point x="678" y="-384"/>
			<point x="690" y="-432"/>
			<point x="764" y="-432" type="curve" smooth="yes"/>
			<point x="986" y="-432"/>
			<point x="848" y="-20"/>
			<point x="848" y="208" type="curve" smooth="yes"/>
			<point x="848" y="1056" type="line" smooth="yes"/>
			<point x="848" y="1264"/>
			<point x="810" y="1386"/>
			<point x="628" y="1386" type="curve" smooth="yes"/>
			<point x="432" y="1386"/>
			<point x="348" y="1122"/>
			<point x="348" y="916" type="curve" smooth="yes"/>
			<point x="348" y="151" type="line" smooth="yes"/>
			<point x="348" y="120"/>
			<point x="359" y="110"/>
			<point x="390" y="110" type="curve" smooth="yes"/>
			<point x="453" y="110" type="line" smooth="yes"/>
			<point x="480" y="110"/>
			<point x="488" y="105"/>
			<point x="488" y="76" type="curve" smooth="yes"/>
			<point x="488" y="30" type="line" smooth="yes"/>
			<point x="488" y="6"/>
			<point x="483" y="0"/>
			<point x="460" y="0" type="curve" smooth="yes"/>
			<point x="66" y="0" type="line" smooth="yes"/>
			<point x="42" y="0"/>
			<point x="38" y="7"/>
			<point x="38" y="32" type="curve" smooth="yes"/>
			<point x="38" y="78" type="line" smooth="yes"/>
			<point x="38" y="106"/>
			<point x="48" y="110"/>
			<point x="74" y="110" type="curve" smooth="yes"/>
			<point x="124" y="110" type="line" smooth="yes"/>
			<point x="150" y="110"/>
			<point x="158" y="113"/>
			<point x="158" y="138" type="curve" smooth="yes"/>
			<point x="158" y="1373" type="line" smooth="yes"/>
			<point x="158" y="1388"/>
			<point x="150" y="1390"/>
		</contour>
	</outline>
</glyph>
<glyph name="OE" format="2">
	<advance width="1580" height="0"/>
	<unicode hex="0152"/>
	<outline>
		<contour>
			<point x="778" y="1500" type="line"/>
			<point x="778" y="1390" type="line"/>
			<point x="608" y="1390" type="line" smooth="yes"/>
			<point x="350" y="1390"/>
			<point x="268" y="1214"/>
			<point x="268" y="750" type="curve" smooth="yes"/>
			<point x="268" y="286"/>
			<point x="360" y="110"/>
			<point x="608" y="110" type="curve" smooth="yes"/>
			<point x="778" y="110" type="line"/>
			<point x="778" y="0" type="line"/>
			<point x="608" y="0" type="line" smooth="yes"/>
			<point x="262" y="0"/>
			<point x="38" y="224"/>
			<point x="38" y="750" type="curve" smooth="yes"/>
			<point x="38" y="1276"/>
			<point x="292" y="1500"/>
			<point x="608" y="1500" type="curve" smooth="yes"/>
		</contour>
		<component base="E" xOffset="567"/>
	</outline>
</glyph>
<glyph name="circumflexcomb" format="2">
	<advance width="0" height="0"/>
	<unicode hex="0302"/>
	<anchor x="499" y="1500" name="_Anchor-0"/>
	<outline>
		<contour>
			<point x="242" y="1690" type="curve" smooth="yes"/>
			<point x="220" y="1714" type="line" smooth="yes"/>
			<point x="205" y="1729"/>
			<point x="205" y="1729"/>
			<point x="220" y="1744" type="curve" smooth="yes"/>
			<point x="408" y="1932" type="line" smooth="yes"/>
			<point x="422" y="1946"/>
			<point x="432" y="1949"/>
			<point x="461" y="1949" type="curve" smooth="yes"/>
			<point x="546" y="1949" type="line" smooth="yes"/>
			<point x="572" y="1949"/>
			<point x="580" y="1944"/>
			<point x="592" y="1932" type="curve" smooth="yes"/>
			<point x="784" y="1740" type="line" smooth="yes"/>
			<point x="794" y="1730"/>
			<point x="796" y="1730"/>
			<point x="785" y="1719" type="curve" smooth="yes"/>
			<point x="752" y="1686" type="line" smooth="yes"/>
			<point x="737" y="1671"/>
			<point x="737" y="1673"/>
			<point x="720" y="1685" type="curve" smooth="yes"/>
			<point x="525" y="1830" type="line" smooth="yes"/>
			<point x="507" y="1843"/>
			<point x="493" y="1844"/>
			<point x="475" y="1831" type="curve" smooth="yes"/>
			<point x="278" y="1684" type="line" smooth="yes"/>
			<point x="263" y="1673"/>
			<point x="255" y="1677"/>
		</contour>
	</outline>
</glyph>
<glyph name="brevecomb" format="2">
	<advance width="0" height="0"/>
	<unicode hex="0306"/>
	<anchor x="499" y="1500" name="_Anchor-0"/>
	<outline>
		<contour>
			<point x="499" y="1680" type="curve" smooth="yes"/>
			<point x="327" y="1680"/>
			<point x="274" y="1775"/>
			<point x="271" y="1919" type="curve" smooth="yes"/>
			<point x="271" y="1936"/>
			<point x="277" y="1938"/>
			<point x="294" y="1938" type="curve" smooth="yes"/>
			<point x="313" y="1938" type="line" smooth="yes"/>
			<point x="327" y="1938"/>
			<point x="330" y="1935"/>
			<point x="331" y="1922" type="curve" smooth="yes"/>
			<point x="338" y="1832"/>
			<point x="402" y="1790"/>
			<point x="499" y="1790" type="curve" smooth="yes"/>
			<point x="591" y="1790"/>
			<point x="656" y="1828"/>
			<point x="668" y="1909" type="curve" smooth="yes"/>
			<point x="671" y="1928"/>
			<point x="664" y="1938"/>
			<point x="688" y="1938" type="curve" smooth="yes"/>
			<point x="710" y="1938" type="line" smooth="yes"/>
			<point x="731" y="1938"/>
			<point x="731" y="1934"/>
			<point x="730" y="1914" type="curve" smooth="yes"/>
			<point x="725" y="1774"/>
			<point x="668" y="1680"/>
		</contour>
	</outline>
</glyph>
<glyph name="Ushort-cy" format="2">
	<advance width="1170" height="0"/>
	<unicode hex="040E"/>
	<outline>
		<contour>
			<point x="816" y="1961" type="curve" smooth="yes"/>
			<point x="887" y="1961"/>
			<point x="939" y="1912"/>
			<point x="939" y="1841" type="curve" smooth="yes"/>
			<point x="939" y="1716"/>
			<point x="804" y="1637"/>
			<point x="592" y="1637" type="curve" smooth="yes"/>
			<point x="378" y="1637"/>
			<point x="244" y="1716"/>
			<point x="244" y="1843" type="curve" smooth="yes"/>
			<point x="244" y="1912"/>
			<point x="296" y="1961"/>
			<point x="367" y="1961" type="curve" smooth="yes"/>
			<point x="427" y="1961"/>
			<point x="473" y="1920"/>
			<point x="473" y="1866" type="curve" smooth="yes"/>
			<point x="473" y="1817"/>
			<point x="406" y="1809"/>
			<point x="406" y="1777" type="curve" smooth="yes"/>
			<point x="406" y="1744"/>
			<point x="473" y="1720"/>
			<point x="600" y="1720" type="curve" smooth="yes"/>
			<point x="714" y="1720"/>
			<point x="777" y="1746"/>
			<point x="777" y="1777" type="curve" smooth="yes"/>
			<point x="777" y="1810"/>
			<point x="710" y="1816"/>
			<point x="710" y="1866" type="curve" smooth="yes"/>
			<point x="710" y="1920"/>
			<point x="756" y="1961"/>
		</contour>
		<component base="U-cy"/>
	</outline>
</glyph>
<glyph name="Ka-cy" format="2">
	<advance width="1141" height="0"/>
	<unicode hex="041A"/>
	<anchor x="649" y="1500" name="Anchor-0"/>
	<anchor x="679" y="0" name="Anchor-1"/>
	<anchor x="679" y="0" name="Anchor-2"/>
	<outline>
		<contour>
			<point x="1098" y="230" type="curve" smooth="yes"/>
			<point x="1091" y="109"/>
			<point x="1071" y="-20"/>
			<point x="888" y="-20" type="curve" smooth="yes"/>
			<point x="492" y="-20"/>
			<point x="921" y="690"/>
			<point x="528" y="690" type="curve" smooth="yes"/>
			<point x="394" y="690" type="line" smooth="yes"/>
			<point x="350" y="690"/>
			<point x="348" y="682"/>
			<point x="348" y="638" type="curve" smooth="yes"/>
			<point x="348" y="144" type="line" smooth="yes"/>
			<point x="348" y="113"/>
			<point x="356" y="110"/>
			<point x="388" y="110" type="curve" smooth="yes"/>
			<point x="457" y="110" type="line" smooth="yes"/>
			<point x="485" y="110"/>
			<point x="488" y="103"/>
			<point x="488" y="74" type="curve" smooth="yes"/>
			<point x="488" y="29" type="line" smooth="yes"/>
			<point x="488" y="4"/>
			<point x="481" y="0"/>
			<point x="455" y="0" type="curve" smooth="yes"/>
			<point x="69" y="0" type="line" smooth="yes"/>
			<point x="44" y="0"/>
			<point x="38" y="6"/>
			<point x="38" y="32" type="curve" smooth="yes"/>
			<point x="38" y="75" type="line" smooth="yes"/>
			<point x="38" y="105"/>
			<point x="46" y="110"/>
			<point x="74" y="110" type="curve" smooth="yes"/>
			<point x="110" y="110" type="line" smooth="yes"/>
			<point x="151" y="110"/>
			<point x="158" y="113"/>
			<point x="158" y="153" type="curve" smooth="yes"/>
			<point x="158" y="1342" type="line" smooth="yes"/>
			<point x="158" y="1385"/>
			<point x="151" y="1390"/>
			<point x="109" y="1390" type="curve" smooth="yes"/>
			<point x="74" y="1390" type="line" smooth="yes"/>
			<point x="39" y="1390"/>
			<point x="38" y="1399"/>
			<point x="38" y="1435" type="curve" smooth="yes"/>
			<point x="38" y="1466" type="line" smooth="yes"/>
			<point x="38" y="1492"/>
			<point x="41" y="1500"/>
			<point x="66" y="1500" type="curve" smooth="yes"/>
			<point x="452" y="1500" type="line" smooth="yes"/>
			<point x="482" y="1500"/>
			<point x="488" y="1497"/>
			<point x="488" y="1466" type="curve" smooth="yes"/>
			<point x="488" y="1432" type="line" smooth="yes"/>
			<point x="488" y="1397"/>
			<point x="471" y="1390"/>
			<point x="446" y="1390" type="curve" smooth="yes"/>
			<point x="395" y="1390" type="line" smooth="yes"/>
			<point x="348" y="1390"/>
			<point x="348" y="1390"/>
			<point x="348" y="1343" type="curve" smooth="yes"/>
			<point x="348" y="858" type="line" smooth="yes"/>
			<point x="348" y="817"/>
			<point x="352" y="810"/>
			<point x="395" y="810" type="curve" smooth="yes"/>
			<point x="498" y="810" type="line" smooth="yes"/>
			<point x="731" y="810"/>
			<point x="692" y="968"/>
			<point x="706" y="1162" type="curve" smooth="yes"/>
			<point x="722" y="1378"/>
			<point x="730" y="1534"/>
			<point x="940" y="1534" type="curve" smooth="yes"/>
			<point x="1092" y="1534"/>
			<point x="1141" y="1441"/>
			<point x="1141" y="1327" type="curve" smooth="yes"/>
			<point x="1141" y="1241"/>
			<point x="1080" y="1165"/>
			<point x="1000" y="1165" type="curve" smooth="yes"/>
			<point x="930" y="1165"/>
			<point x="882" y="1210"/>
			<point x="882" y="1276" type="curve" smooth="yes"/>
			<point x="882" y="1356"/>
			<point x="944" y="1350"/>
			<point x="944" y="1410" type="curve" smooth="yes"/>
			<point x="944" y="1423"/>
			<point x="940" y="1429"/>
			<point x="923" y="1429" type="curve" smooth="yes"/>
			<point x="840" y="1429"/>
			<point x="835" y="1325"/>
			<point x="821" y="1162" type="curve" smooth="yes"/>
			<point x="808" y="1011"/>
			<point x="830" y="862"/>
			<point x="744" y="793" type="curve" smooth="yes"/>
			<point x="665" y="730"/>
			<point x="770" y="704"/>
			<point x="795" y="684" type="curve" smooth="yes"/>
			<point x="1003" y="515"/>
			<point x="820" y="110"/>
			<point x="970" y="110" type="curve" smooth="yes"/>
			<point x="997" y="110"/>
			<point x="1028" y="136"/>
			<point x="1034" y="242" type="curve" smooth="yes"/>
			<point x="1034" y="250"/>
			<point x="1038" y="258"/>
			<point x="1048" y="258" type="curve" smooth="yes"/>
			<point x="1078" y="258" type="line" smooth="yes"/>
			<point x="1094" y="258"/>
			<point x="1099" y="248"/>
		</contour>
	</outline>
</glyph>
<glyph name="Pe-cy" format="2">
	<advance width="1186" height="0"/>
	<unicode hex="041F"/>
	<anchor x="589" y="1500" name="Anchor-0"/>
	<anchor x="589" y="0" name="Anchor-1"/>
	<anchor x="589" y="0" name="Anchor-2"/>
	<outline>
		<contour>
			<point x="848" y="1338" type="line" smooth="yes"/>
			<point x="848" y="1380"/>
			<point x="847" y="1390"/>
			<point x="805" y="1390" type="curve" smooth="yes"/>
			<point x="387" y="1390" type="line" smooth="yes"/>
			<point x="353" y="1390"/>
			<point x="348" y="1383"/>
			<point x="348" y="1347" type="curve" smooth="yes"/>
			<point x="348" y="150" type="line" smooth="yes"/>
			<point x="348" y="119"/>
			<point x="353" y="110"/>
			<point x="386" y="110" type="curve" smooth="yes"/>
			<point x="455" y="110" type="line" smooth="yes"/>
			<point x="482" y="110"/>
			<point x="488" y="105"/>
			<point x="488" y="76" type="curve" smooth="yes"/>
			<point x="488" y="50" type="line" smooth="yes"/>
			<point x="488" y="5"/>
			<point x="482" y="0"/>
			<point x="438" y="0" type="curve" smooth="yes"/>
			<point x="78" y="0" type="line" smooth="yes"/>
			<point x="45" y="0"/>
			<point x="38" y="5"/>
			<point x="38" y="40" type="curve" smooth="yes"/>
			<point x="38" y="68" type="line" smooth="yes"/>
			<point x="38" y="104"/>
			<point x="44" y="110"/>
			<point x="79" y="110" type="curve" smooth="yes"/>
			<point x="117" y="110" type="line" smooth="yes"/>
			<point x="149" y="110"/>
			<point x="158" y="112"/>
			<point x="158" y="144" type="curve" smooth="yes"/>
			<point x="158" y="1351" type="line" smooth="yes"/>
			<point x="158" y="1383"/>
			<point x="149" y="1390"/>
			<point x="119" y="1390" type="curve" smooth="yes"/>
			<point x="73" y="1390" type="line" smooth="yes"/>
			<point x="39" y="1390"/>
			<point x="38" y="1401"/>
			<point x="38" y="1436" type="curve" smooth="yes"/>
			<point x="38" y="1462" type="line" smooth="yes"/>
			<point x="38" y="1494"/>
			<point x="48" y="1500"/>
			<point x="78" y="1500" type="curve" smooth="yes"/>
			<point x="1108" y="1500" type="line" smooth="yes"/>
			<point x="1140" y="1500"/>
			<point x="1148" y="1496"/>
			<point x="1148" y="1462" type="curve" smooth="yes"/>
			<point x="1148" y="1424" type="line" smooth="yes"/>
			<point x="1148" y="1396"/>
			<point x="1139" y="1390"/>
			<point x="1109" y="1390" type="curve" smooth="yes"/>
			<point x="1093" y="1390" type="line" smooth="yes"/>
			<point x="1049" y="1390"/>
			<point x="1038" y="1388"/>
			<point x="1038" y="1344" type="curve" smooth="yes"/>
			<point x="1038" y="144" type="line" smooth="yes"/>
			<point x="1038" y="116"/>
			<point x="1045" y="110"/>
			<point x="1075" y="110" type="curve" smooth="yes"/>
			<point x="1109" y="110" type="line" smooth="yes"/>
			<point x="1136" y="110"/>
			<point x="1148" y="107"/>
			<point x="1148" y="78" type="curve" smooth="yes"/>
			<point x="1148" y="44" type="line" smooth="yes"/>
			<point x="1148" y="2"/>
			<point x="1137" y="0"/>
			<point x="1098" y="0" type="curve" smooth="yes"/>
			<point x="758" y="0" type="line" smooth="yes"/>
			<point x="722" y="0"/>
			<point x="718" y="7"/>
			<point x="718" y="44" type="curve" smooth="yes"/>
			<point x="718" y="74" type="line" smooth="yes"/>
			<point x="718" y="102"/>
			<point x="720" y="110"/>
			<point x="747" y="110" type="curve" smooth="yes"/>
			<point x="806" y="110" type="line" smooth="yes"/>
			<point x="845" y="110"/>
			<point x="848" y="123"/>
			<point x="848" y="160" type="curve" smooth="yes"/>
		</contour>
	</outline>
</glyph>
<glyph name="Ef-cy" format="2">
	<advance width="1450" height="2080"/>
	<unicode hex="0424"/>
	<outline>
		<contour>
			<point x="630" y="1306" type="curve" smooth="yes"/>
			<point x="630" y="1358" type="line" smooth="yes"/>
			<point x="630" y="1384"/>
			<point x="630" y="1392"/>
			<point x="600" y="1392" type="curve" smooth="yes"/>
			<point x="544" y="1392" type="line" smooth="yes"/>
			<point x="518" y="1392"/>
			<point x="510" y="1401"/>
			<point x="510" y="1422" type="curve" smooth="yes"/>
			<point x="510" y="1476" type="line" smooth="yes"/>
			<point x="510" y="1502"/>
			<point x="517" y="1502"/>
			<point x="540" y="1502" type="curve" smooth="yes"/>
			<point x="924" y="1502" type="line" smooth="yes"/>
			<point x="954" y="1502"/>
			<point x="960" y="1499"/>
			<point x="960" y="1468" type="curve" smooth="yes"/>
			<point x="960" y="1434" type="line" smooth="yes"/>
			<point x="960" y="1399"/>
			<point x="943" y="1392"/>
			<point x="918" y="1392" type="curve" smooth="yes"/>
			<point x="858" y="1392" type="line" smooth="yes"/>
			<point x="826" y="1392"/>
			<point x="820" y="1389"/>
			<point x="820" y="1356" type="curve" smooth="yes"/>
			<point x="820" y="1308" type="line" smooth="yes"/>
			<point x="820" y="1282"/>
			<point x="828" y="1288"/>
			<point x="851" y="1286" type="curve" smooth="yes"/>
			<point x="1148" y="1257"/>
			<point x="1395" y="1090"/>
			<point x="1395" y="750" type="curve" smooth="yes"/>
			<point x="1395" y="410"/>
			<point x="1132" y="244"/>
			<point x="847" y="215" type="curve" smooth="yes"/>
			<point x="827" y="213"/>
			<point x="820" y="217"/>
			<point x="820" y="194" type="curve" smooth="yes"/>
			<point x="820" y="156" type="line" smooth="yes"/>
			<point x="820" y="123"/>
			<point x="829" y="112"/>
			<point x="858" y="112" type="curve" smooth="yes"/>
			<point x="938" y="112" type="line" smooth="yes"/>
			<point x="957" y="112"/>
			<point x="960" y="99"/>
			<point x="960" y="80" type="curve" smooth="yes"/>
			<point x="960" y="34" type="line" smooth="yes"/>
			<point x="960" y="10"/>
			<point x="948" y="2"/>
			<point x="920" y="2" type="curve" smooth="yes"/>
			<point x="550" y="2" type="line" smooth="yes"/>
			<point x="522" y="2"/>
			<point x="510" y="9"/>
			<point x="510" y="34" type="curve" smooth="yes"/>
			<point x="510" y="84" type="line" smooth="yes"/>
			<point x="510" y="105"/>
			<point x="518" y="112"/>
			<point x="556" y="112" type="curve" smooth="yes"/>
			<point x="562" y="112" type="line" smooth="yes"/>
			<point x="597" y="112"/>
			<point x="630" y="116"/>
			<point x="630" y="162" type="curve" smooth="yes"/>
			<point x="630" y="194" type="line" smooth="yes"/>
			<point x="630" y="217"/>
			<point x="623" y="212"/>
			<point x="603" y="214" type="curve" smooth="yes"/>
			<point x="305" y="242"/>
			<point x="55" y="409"/>
			<point x="55" y="750" type="curve" smooth="yes"/>
			<point x="55" y="1093"/>
			<point x="307" y="1259"/>
			<point x="607" y="1286" type="curve" smooth="yes"/>
			<point x="626" y="1288"/>
			<point x="630" y="1285"/>
		</contour>
		<contour>
			<point x="630" y="350" type="curve" smooth="yes"/>
			<point x="630" y="1156" type="line" smooth="yes"/>
			<point x="630" y="1182"/>
			<point x="624" y="1188"/>
			<point x="601" y="1185" type="curve" smooth="yes"/>
			<point x="391" y="1161"/>
			<point x="275" y="1037"/>
			<point x="275" y="750" type="curve" smooth="yes"/>
			<point x="275" y="463"/>
			<point x="390" y="340"/>
			<point x="599" y="315" type="curve" smooth="yes"/>
			<point x="626" y="312"/>
			<point x="630" y="320"/>
		</contour>
		<contour>
			<point x="849" y="314" type="curve" smooth="yes"/>
			<point x="1073" y="337"/>
			<point x="1175" y="461"/>
			<point x="1175" y="750" type="curve" smooth="yes"/>
			<point x="1175" y="1037"/>
			<point x="1060" y="1160"/>
			<point x="851" y="1185" type="curve" smooth="yes"/>
			<point x="828" y="1188"/>
			<point x="820" y="1183"/>
			<point x="820" y="1156" type="curve" smooth="yes"/>
			<point x="820" y="354" type="line" smooth="yes"/>
			<point x="820" y="323"/>
			<point x="820" y="311"/>
		</contour>
	</outline>
</glyph>
<glyph name="Che-cy" format="2">
	<advance width="1183" height="0"/>
	<unicode hex="0427"/>
	<anchor x="576" y="1500" name="Anchor-0"/>
	<anchor x="576" y="0" name="Anchor-1"/>
	<anchor x="576" y="0" name="Anchor-2"/>
	<outline>
		<contour>
			<point x="835" y="1338" type="line" smooth="yes"/>
			<point x="835" y="1380"/>
			<point x="834" y="1390"/>
			<point x="792" y="1390" type="curve" smooth="yes"/>
			<point x="739" y="1390" type="line" smooth="yes"/>
			<point x="711" y="1390"/>
			<point x="705" y="1403"/>
			<point x="705" y="1429" type="curve" smooth="yes"/>
			<point x="705" y="1458" type="line" smooth="yes"/>
			<point x="705" y="1494"/>
			<point x="710" y="1500"/>
			<point x="745" y="1500" type="curve" smooth="yes"/>
			<point x="1105" y="1500" type="line" smooth="yes"/>
			<point x="1137" y="1500"/>
			<point x="1145" y="1496"/>
			<point x="1145" y="1462" type="curve" smooth="yes"/>
			<point x="1145" y="1424" type="line" smooth="yes"/>
			<point x="1145" y="1396"/>
			<point x="1136" y="1390"/>
			<point x="1106" y="1390" type="curve" smooth="yes"/>
			<point x="1080" y="1390" type="line" smooth="yes"/>
			<point x="1036" y="1390"/>
			<point x="1025" y="1388"/>
			<point x="1025" y="1344" type="curve" smooth="yes"/>
			<point x="1025" y="144" type="line" smooth="yes"/>
			<point x="1025" y="116"/>
			<point x="1032" y="110"/>
			<point x="1062" y="110" type="curve" smooth="yes"/>
			<point x="1106" y="110" type="line" smooth="yes"/>
			<point x="1133" y="110"/>
			<point x="1145" y="107"/>
			<point x="1145" y="78" type="curve" smooth="yes"/>
			<point x="1145" y="44" type="line" smooth="yes"/>
			<point x="1145" y="2"/>
			<point x="1134" y="0"/>
			<point x="1095" y="0" type="curve" smooth="yes"/>
			<point x="735" y="0" type="line" smooth="yes"/>
			<point x="699" y="0"/>
			<point x="695" y="7"/>
			<point x="695" y="44" type="curve" smooth="yes"/>
			<point x="695" y="74" type="line" smooth="yes"/>
			<point x="695" y="102"/>
			<point x="697" y="110"/>
			<point x="724" y="110" type="curve" smooth="yes"/>
			<point x="793" y="110" type="line" smooth="yes"/>
			<point x="832" y="110"/>
			<point x="835" y="123"/>
			<point x="835" y="160" type="curve" smooth="yes"/>
			<point x="835" y="607" type="line" smooth="yes"/>
			<point x="835" y="683"/>
			<point x="835" y="697"/>
			<point x="792" y="670" type="curve" smooth="yes"/>
			<point x="700" y="613"/>
			<point x="624" y="574"/>
			<point x="475" y="574" type="curve" smooth="yes"/>
			<point x="249" y="574"/>
			<point x="145" y="718"/>
			<point x="145" y="1064" type="curve" smooth="yes"/>
			<point x="145" y="1351" type="line" smooth="yes"/>
			<point x="145" y="1383"/>
			<point x="136" y="1390"/>
			<point x="106" y="1390" type="curve" smooth="yes"/>
			<point x="60" y="1390" type="line" smooth="yes"/>
			<point x="26" y="1390"/>
			<point x="25" y="1401"/>
			<point x="25" y="1436" type="curve" smooth="yes"/>
			<point x="25" y="1462" type="line" smooth="yes"/>
			<point x="25" y="1494"/>
			<point x="35" y="1500"/>
			<point x="65" y="1500" type="curve" smooth="yes"/>
			<point x="435" y="1500" type="line" smooth="yes"/>
			<point x="462" y="1500"/>
			<point x="475" y="1497"/>
			<point x="475" y="1468" type="curve" smooth="yes"/>
			<point x="475" y="1428" type="line" smooth="yes"/>
			<point x="475" y="1396"/>
			<point x="469" y="1390"/>
			<point x="438" y="1390" type="curve" smooth="yes"/>
			<point x="374" y="1390" type="line" smooth="yes"/>
			<point x="340" y="1390"/>
			<point x="335" y="1383"/>
			<point x="335" y="1347" type="curve" smooth="yes"/>
			<point x="335" y="1064" type="line" smooth="yes"/>
			<point x="335" y="860"/>
			<point x="357" y="704"/>
			<point x="515" y="704" type="curve" smooth="yes"/>
			<point x="670" y="704"/>
			<point x="716" y="739"/>
			<point x="789" y="786" type="curve" smooth="yes"/>
			<point x="820" y="806"/>
			<point x="835" y="834"/>
			<point x="835" y="888" type="curve" smooth="yes"/>
		</contour>
	</outline>
</glyph>
<glyph name="Hardsign-cy" format="2">
	<advance width="1347" height="2080"/>
	<unicode hex="042A"/>
	<outline>
		<contour>
			<point x="699" y="720" type="line" smooth="yes"/>
			<point x="657" y="720"/>
			<point x="649" y="718"/>
			<point x="649" y="676" type="curve" smooth="yes"/>
			<point x="649" y="149" type="line" smooth="yes"/>
			<point x="649" y="122"/>
			<point x="652" y="110"/>
			<point x="678" y="110" type="curve" smooth="yes"/>
			<point x="839" y="110" type="line" smooth="yes"/>
			<point x="1001" y="110"/>
			<point x="1089" y="242"/>
			<point x="1089" y="420" type="curve" smooth="yes"/>
			<point x="1089" y="598"/>
			<point x="1001" y="720"/>
			<point x="839" y="720" type="curve" smooth="yes"/>
		</contour>
		<contour>
			<point x="427" y="110" type="line" smooth="yes"/>
			<point x="451" y="110"/>
			<point x="459" y="113"/>
			<point x="459" y="136" type="curve" smooth="yes"/>
			<point x="459" y="1342" type="line" smooth="yes"/>
			<point x="459" y="1380"/>
			<point x="454" y="1390"/>
			<point x="413" y="1390" type="curve" smooth="yes"/>
			<point x="359" y="1390" type="line" smooth="yes"/>
			<point x="230" y="1390"/>
			<point x="162" y="1313"/>
			<point x="159" y="1054" type="curve" smooth="yes"/>
			<point x="159" y="1035"/>
			<point x="159" y="1030"/>
			<point x="139" y="1030" type="curve" smooth="yes"/>
			<point x="87" y="1030" type="line" smooth="yes"/>
			<point x="68" y="1030"/>
			<point x="59" y="1031"/>
			<point x="59" y="1050" type="curve" smooth="yes"/>
			<point x="59" y="1471" type="line" smooth="yes"/>
			<point x="59" y="1493"/>
			<point x="62" y="1500"/>
			<point x="83" y="1500" type="curve" smooth="yes"/>
			<point x="715" y="1500" type="line" smooth="yes"/>
			<point x="756" y="1500"/>
			<point x="769" y="1498"/>
			<point x="769" y="1454" type="curve" smooth="yes"/>
			<point x="769" y="1418" type="line" smooth="yes"/>
			<point x="769" y="1394"/>
			<point x="762" y="1390"/>
			<point x="737" y="1390" type="curve" smooth="yes"/>
			<point x="707" y="1390" type="line" smooth="yes"/>
			<point x="653" y="1390"/>
			<point x="649" y="1382"/>
			<point x="649" y="1327" type="curve" smooth="yes"/>
			<point x="649" y="886" type="line" smooth="yes"/>
			<point x="649" y="831"/>
			<point x="658" y="830"/>
			<point x="713" y="830" type="curve" smooth="yes"/>
			<point x="839" y="830" type="line" smooth="yes"/>
			<point x="1181" y="830"/>
			<point x="1309" y="680"/>
			<point x="1309" y="420" type="curve" smooth="yes"/>
			<point x="1309" y="160"/>
			<point x="1181" y="0"/>
			<point x="839" y="0" type="curve" smooth="yes"/>
			<point x="376" y="0" type="line" smooth="yes"/>
			<point x="347" y="0"/>
			<point x="339" y="5"/>
			<point x="339" y="36" type="curve" smooth="yes"/>
			<point x="339" y="77" type="line" smooth="yes"/>
			<point x="339" y="101"/>
			<point x="340" y="110"/>
			<point x="364" y="110" type="curve" smooth="yes"/>
		</contour>
	</outline>
</glyph>
<glyph name="Softsign-cy" format="2">
	<advance width="1006" height="0"/>
	<unicode hex="042C"/>
	<outline>
		<contour>
			<point x="126" y="110" type="line" smooth="yes"/>
			<point x="150" y="110"/>
			<point x="158" y="113"/>
			<point x="158" y="136" type="curve" smooth="yes"/>
			<point x="158" y="1342" type="line" smooth="yes"/>
			<point x="158" y="1380"/>
			<point x="153" y="1390"/>
			<point x="112" y="1390" type="curve" smooth="yes"/>
			<point x="70" y="1390" type="line" smooth="yes"/>
			<point x="45" y="1390"/>
			<point x="38" y="1394"/>
			<point x="38" y="1418" type="curve" smooth="yes"/>
			<point x="38" y="1454" type="line" smooth="yes"/>
			<point x="38" y="1498"/>
			<point x="51" y="1500"/>
			<point x="92" y="1500" type="curve" smooth="yes"/>
			<point x="426" y="1500" type="line" smooth="yes"/>
			<point x="466" y="1500"/>
			<point x="468" y="1492"/>
			<point x="468" y="1452" type="curve" smooth="yes"/>
			<point x="468" y="1430" type="line" smooth="yes"/>
			<point x="468" y="1399"/>
			<point x="467" y="1390"/>
			<point x="436" y="1390" type="curve" smooth="yes"/>
			<point x="406" y="1390" type="line" smooth="yes"/>
			<point x="352" y="1390"/>
			<point x="348" y="1382"/>
			<point x="348" y="1327" type="curve" smooth="yes"/>
			<point x="348" y="896" type="line" smooth="yes"/>
			<point x="348" y="841"/>
			<point x="357" y="840"/>
			<point x="412" y="840" type="curve" smooth="yes"/>
			<point x="498" y="840" type="line" smooth="yes"/>
			<point x="840" y="840"/>
			<point x="968" y="680"/>
			<point x="968" y="420" type="curve" smooth="yes"/>
			<point x="968" y="160"/>
			<point x="840" y="0"/>
			<point x="498" y="0" type="curve" smooth="yes"/>
			<point x="75" y="0" type="line" smooth="yes"/>
			<point x="46" y="0"/>
			<point x="38" y="5"/>
			<point x="38" y="36" type="curve" smooth="yes"/>
			<point x="38" y="77" type="line" smooth="yes"/>
			<point x="38" y="101"/>
			<point x="39" y="110"/>
			<point x="63" y="110" type="curve" smooth="yes"/>
		</contour>
		<contour>
			<point x="398" y="730" type="line" smooth="yes"/>
			<point x="356" y="730"/>
			<point x="348" y="728"/>
			<point x="348" y="686" type="curve" smooth="yes"/>
			<point x="348" y="149" type="line" smooth="yes"/>
			<point x="348" y="122"/>
			<point x="351" y="110"/>
			<point x="377" y="110" type="curve" smooth="yes"/>
			<point x="498" y="110" type="line" smooth="yes"/>
			<point x="660" y="110"/>
			<point x="748" y="242"/>
			<point x="748" y="420" type="curve" smooth="yes"/>
			<point x="748" y="598"/>
			<point x="660" y="730"/>
			<point x="498" y="730" type="curve" smooth="yes"/>
		</contour>
	</outline>
</glyph>
<glyph name="Ya-cy" format="2">
	<advance width="1073" height="0"/>
	<unicode hex="042F"/>
	<anchor x="696" y="1500" name="Anchor-0"/>
	<anchor x="666" y="0" name="Anchor-1"/>
	<anchor x="666" y="0" name="Anchor-2"/>
	<outline>
		<contour>
			<point x="-25" y="230" type="curve" smooth="yes"/>
			<point x="-26" y="255"/>
			<point x="-15" y="258"/>
			<point x="-8" y="258" type="curve" smooth="yes"/>
			<point x="26" y="258" type="line" smooth="yes"/>
			<point x="33" y="258"/>
			<point x="38" y="255"/>
			<point x="39" y="242" type="curve" smooth="yes"/>
			<point x="45" y="142"/>
			<point x="71" y="110"/>
			<point x="103" y="110" type="curve" smooth="yes"/>
			<point x="253" y="110"/>
			<point x="64" y="533"/>
			<point x="288" y="690" type="curve" smooth="yes"/>
			<point x="329" y="718"/>
			<point x="336" y="745"/>
			<point x="302" y="766" type="curve" smooth="yes"/>
			<point x="192" y="834"/>
			<point x="125" y="926"/>
			<point x="125" y="1090" type="curve" smooth="yes"/>
			<point x="125" y="1260"/>
			<point x="203" y="1500"/>
			<point x="495" y="1500" type="curve" smooth="yes"/>
			<point x="1007" y="1500" type="line" smooth="yes"/>
			<point x="1032" y="1500"/>
			<point x="1035" y="1492"/>
			<point x="1035" y="1466" type="curve" smooth="yes"/>
			<point x="1035" y="1435" type="line" smooth="yes"/>
			<point x="1035" y="1399"/>
			<point x="1034" y="1390"/>
			<point x="999" y="1390" type="curve" smooth="yes"/>
			<point x="964" y="1390" type="line" smooth="yes"/>
			<point x="922" y="1390"/>
			<point x="915" y="1385"/>
			<point x="915" y="1342" type="curve" smooth="yes"/>
			<point x="915" y="153" type="line" smooth="yes"/>
			<point x="915" y="113"/>
			<point x="922" y="110"/>
			<point x="963" y="110" type="curve" smooth="yes"/>
			<point x="999" y="110" type="line" smooth="yes"/>
			<point x="1027" y="110"/>
			<point x="1035" y="105"/>
			<point x="1035" y="75" type="curve" smooth="yes"/>
			<point x="1035" y="32" type="line" smooth="yes"/>
			<point x="1035" y="6"/>
			<point x="1029" y="0"/>
			<point x="1004" y="0" type="curve" smooth="yes"/>
			<point x="618" y="0" type="line" smooth="yes"/>
			<point x="592" y="0"/>
			<point x="585" y="4"/>
			<point x="585" y="29" type="curve" smooth="yes"/>
			<point x="585" y="74" type="line" smooth="yes"/>
			<point x="585" y="103"/>
			<point x="588" y="110"/>
			<point x="616" y="110" type="curve" smooth="yes"/>
			<point x="685" y="110" type="line" smooth="yes"/>
			<point x="717" y="110"/>
			<point x="725" y="113"/>
			<point x="725" y="144" type="curve" smooth="yes"/>
			<point x="725" y="638" type="line" smooth="yes"/>
			<point x="725" y="682"/>
			<point x="723" y="690"/>
			<point x="679" y="690" type="curve" smooth="yes"/>
			<point x="545" y="690" type="line" smooth="yes"/>
			<point x="152" y="690"/>
			<point x="581" y="-20"/>
			<point x="185" y="-20" type="curve" smooth="yes"/>
			<point x="21" y="-20"/>
			<point x="-16" y="79"/>
		</contour>
		<contour>
			<point x="689" y="810" type="line" smooth="yes"/>
			<point x="732" y="810"/>
			<point x="725" y="817"/>
			<point x="725" y="858" type="curve" smooth="yes"/>
			<point x="725" y="1343" type="line" smooth="yes"/>
			<point x="725" y="1390"/>
			<point x="736" y="1390"/>
			<point x="689" y="1390" type="curve" smooth="yes"/>
			<point x="516" y="1390" type="line" smooth="yes"/>
			<point x="414" y="1390"/>
			<point x="325" y="1298"/>
			<point x="325" y="1100" type="curve" smooth="yes"/>
			<point x="325" y="902"/>
			<point x="414" y="810"/>
			<point x="516" y="810" type="curve" smooth="yes"/>
		</contour>
	</outline>
</glyph>
<glyph name="be-cy" format="2">
	<advance width="846" height="2310"/>
	<unicode hex="0431"/>
	<anchor x="425" y="0" name="Anchor-1"/>
	<anchor x="425" y="0" name="Anchor-2"/>
	<outline>
		<contour>
			<point x="260" y="540" type="curve" smooth="yes"/>
			<point x="260" y="292"/>
			<point x="290" y="70"/>
			<point x="428" y="70" type="curve" smooth="yes"/>
			<point x="566" y="70"/>
			<point x="596" y="292"/>
			<point x="596" y="500" type="curve" smooth="yes"/>
			<point x="596" y="748"/>
			<point x="566" y="970"/>
			<point x="428" y="970" type="curve" smooth="yes"/>
			<point x="290" y="970"/>
			<point x="260" y="748"/>
		</contour>
		<contour>
			<point x="806" y="1565" type="curve" smooth="yes"/>
			<point x="809" y="1343"/>
			<point x="699" y="1290"/>
			<point x="526" y="1290" type="curve" smooth="yes"/>
			<point x="389" y="1290"/>
			<point x="211" y="1312"/>
			<point x="147" y="895" type="curve" smooth="yes"/>
			<point x="137" y="831"/>
			<point x="150" y="810"/>
			<point x="186" y="868" type="curve" smooth="yes"/>
			<point x="256" y="983"/>
			<point x="287" y="1060"/>
			<point x="448" y="1060" type="curve" smooth="yes"/>
			<point x="710" y="1060"/>
			<point x="806" y="920"/>
			<point x="806" y="540" type="curve" smooth="yes"/>
			<point x="806" y="120"/>
			<point x="690" y="-20"/>
			<point x="428" y="-20" type="curve" smooth="yes"/>
			<point x="136" y="-20"/>
			<point x="40" y="180"/>
			<point x="40" y="620" type="curve" smooth="yes"/>
			<point x="40" y="1252"/>
			<point x="156" y="1471"/>
			<point x="548" y="1471" type="curve" smooth="yes"/>
			<point x="665" y="1471"/>
			<point x="704" y="1475"/>
			<point x="711" y="1567" type="curve" smooth="yes"/>
			<point x="714" y="1590"/>
			<point x="713" y="1594"/>
			<point x="739" y="1594" type="curve" smooth="yes"/>
			<point x="780" y="1594" type="line" smooth="yes"/>
			<point x="803" y="1594"/>
			<point x="806" y="1589"/>
		</contour>
	</outline>
</glyph>
<glyph name="ve-cy" format="2">
	<advance width="838" height="2234"/>
	<unicode hex="0432"/>
	<outline>
		<contour>
			<point x="104" y="930" type="curve" smooth="yes"/>
			<point x="69" y="930" type="line" smooth="yes"/>
			<point x="49" y="930"/>
			<point x="48" y="934"/>
			<point x="48" y="954" type="curve" smooth="yes"/>
			<point x="48" y="1014" type="line" smooth="yes"/>
			<point x="48" y="1034"/>
			<point x="53" y="1040"/>
			<point x="72" y="1040" type="curve" smooth="yes"/>
			<point x="353" y="1040" type="line" smooth="yes"/>
			<point x="595" y="1040"/>
			<point x="723" y="980"/>
			<point x="723" y="780" type="curve" smooth="yes"/>
			<point x="723" y="647"/>
			<point x="655" y="575"/>
			<point x="556" y="553" type="curve" smooth="yes"/>
			<point x="527" y="546"/>
			<point x="530" y="532"/>
			<point x="554" y="526" type="curve" smooth="yes"/>
			<point x="697" y="488"/>
			<point x="783" y="410"/>
			<point x="783" y="280" type="curve" smooth="yes"/>
			<point x="783" y="80"/>
			<point x="655" y="0"/>
			<point x="393" y="0" type="curve" smooth="yes"/>
			<point x="79" y="0" type="line" smooth="yes"/>
			<point x="56" y="0"/>
			<point x="48" y="2"/>
			<point x="48" y="24" type="curve" smooth="yes"/>
			<point x="48" y="80" type="line" smooth="yes"/>
			<point x="48" y="106"/>
			<point x="57" y="110"/>
			<point x="81" y="110" type="curve" smooth="yes"/>
			<point x="105" y="110" type="line" smooth="yes"/>
			<point x="127" y="110"/>
			<point x="128" y="116"/>
			<point x="128" y="138" type="curve" smooth="yes"/>
			<point x="128" y="906" type="line" smooth="yes"/>
			<point x="128" y="926"/>
			<point x="122" y="930"/>
		</contour>
		<contour>
			<point x="308" y="898" type="curve" smooth="yes"/>
			<point x="308" y="644" type="line" smooth="yes"/>
			<point x="308" y="608"/>
			<point x="311" y="600"/>
			<point x="346" y="600" type="curve" smooth="yes"/>
			<point x="353" y="600" type="line" smooth="yes"/>
			<point x="465" y="600"/>
			<point x="533" y="632"/>
			<point x="533" y="770" type="curve" smooth="yes"/>
			<point x="533" y="908"/>
			<point x="465" y="930"/>
			<point x="353" y="930" type="curve" smooth="yes"/>
			<point x="336" y="930" type="line" smooth="yes"/>
			<point x="312" y="930"/>
			<point x="308" y="923"/>
		</contour>
		<contour>
			<point x="308" y="448" type="curve" smooth="yes"/>
			<point x="308" y="155" type="line" smooth="yes"/>
			<point x="308" y="116"/>
			<point x="313" y="110"/>
			<point x="354" y="110" type="curve" smooth="yes"/>
			<point x="373" y="110" type="line" smooth="yes"/>
			<point x="465" y="110"/>
			<point x="573" y="112"/>
			<point x="573" y="290" type="curve" smooth="yes"/>
			<point x="573" y="458"/>
			<point x="465" y="490"/>
			<point x="373" y="490" type="curve" smooth="yes"/>
			<point x="346" y="490" type="line" smooth="yes"/>
			<point x="306" y="490"/>
			<point x="308" y="488"/>
		</contour>
	</outline>
</glyph>
<glyph name="ge-cy" format="2">
	<advance width="693" height="2234"/>
	<unicode hex="0433"/>
	<outline>
		<contour>
			<point x="99" y="930" type="curve" smooth="yes"/>
			<point x="72" y="930" type="line" smooth="yes"/>
			<point x="53" y="930"/>
			<point x="48" y="932"/>
			<point x="48" y="952" type="curve" smooth="yes"/>
			<point x="48" y="1021" type="line" smooth="yes"/>
			<point x="48" y="1035"/>
			<point x="49" y="1040"/>
			<point x="63" y="1040" type="curve" smooth="yes"/>
			<point x="644" y="1040" type="line" smooth="yes"/>
			<point x="665" y="1040"/>
			<point x="668" y="1033"/>
			<point x="668" y="1011" type="curve" smooth="yes"/>
			<point x="668" y="670" type="line" smooth="yes"/>
			<point x="668" y="651"/>
			<point x="659" y="650"/>
			<point x="640" y="650" type="curve" smooth="yes"/>
			<point x="588" y="650" type="line" smooth="yes"/>
			<point x="568" y="650"/>
			<point x="568" y="655"/>
			<point x="568" y="674" type="curve" smooth="yes"/>
			<point x="565" y="853"/>
			<point x="497" y="930"/>
			<point x="358" y="930" type="curve" smooth="yes"/>
			<point x="352" y="930" type="line" smooth="yes"/>
			<point x="327" y="930"/>
			<point x="308" y="916"/>
			<point x="308" y="893" type="curve" smooth="yes"/>
			<point x="308" y="150" type="line" smooth="yes"/>
			<point x="308" y="118"/>
			<point x="322" y="110"/>
			<point x="356" y="110" type="curve" smooth="yes"/>
			<point x="430" y="110" type="line" smooth="yes"/>
			<point x="449" y="110"/>
			<point x="458" y="109"/>
			<point x="458" y="90" type="curve" smooth="yes"/>
			<point x="458" y="30" type="line" smooth="yes"/>
			<point x="458" y="4"/>
			<point x="449" y="0"/>
			<point x="425" y="0" type="curve" smooth="yes"/>
			<point x="73" y="0" type="line" smooth="yes"/>
			<point x="53" y="0"/>
			<point x="48" y="0"/>
			<point x="48" y="20" type="curve" smooth="yes"/>
			<point x="48" y="92" type="line" smooth="yes"/>
			<point x="48" y="109"/>
			<point x="57" y="110"/>
			<point x="75" y="110" type="curve" smooth="yes"/>
			<point x="101" y="110" type="line" smooth="yes"/>
			<point x="123" y="110"/>
			<point x="128" y="117"/>
			<point x="128" y="140" type="curve" smooth="yes"/>
			<point x="128" y="900" type="line" smooth="yes"/>
			<point x="128" y="927"/>
			<point x="125" y="930"/>
		</contour>
	</outline>
</glyph>
<glyph name="el-cy" format="2">
	<advance width="969" height="2234"/>
	<unicode hex="043B"/>
	<outline>
		<contour>
			<point x="15" y="150" type="curve" smooth="yes"/>
			<point x="15" y="224"/>
			<point x="79" y="270"/>
			<point x="139" y="270" type="curve" smooth="yes"/>
			<point x="199" y="270"/>
			<point x="257" y="234"/>
			<point x="257" y="172" type="curve" smooth="yes"/>
			<point x="257" y="122"/>
			<point x="229" y="124"/>
			<point x="229" y="110" type="curve" smooth="yes"/>
			<point x="229" y="96"/>
			<point x="239" y="90"/>
			<point x="249" y="90" type="curve" smooth="yes"/>
			<point x="322" y="90"/>
			<point x="303" y="544"/>
			<point x="303" y="871" type="curve" smooth="yes"/>
			<point x="303" y="916"/>
			<point x="303" y="930"/>
			<point x="268" y="930" type="curve" smooth="yes"/>
			<point x="263" y="930" type="line" smooth="yes"/>
			<point x="226" y="930"/>
			<point x="223" y="937"/>
			<point x="223" y="980" type="curve" smooth="yes"/>
			<point x="223" y="1000" type="line" smooth="yes"/>
			<point x="223" y="1039"/>
			<point x="237" y="1040"/>
			<point x="273" y="1040" type="curve" smooth="yes"/>
			<point x="885" y="1040" type="line" smooth="yes"/>
			<point x="915" y="1040"/>
			<point x="921" y="1037"/>
			<point x="921" y="1006" type="curve" smooth="yes"/>
			<point x="921" y="972" type="line" smooth="yes"/>
			<point x="921" y="937"/>
			<point x="916" y="930"/>
			<point x="891" y="930" type="curve" smooth="yes"/>
			<point x="890" y="930" type="line" smooth="yes"/>
			<point x="858" y="930"/>
			<point x="851" y="927"/>
			<point x="851" y="894" type="curve" smooth="yes"/>
			<point x="851" y="154" type="line" smooth="yes"/>
			<point x="851" y="121"/>
			<point x="860" y="110"/>
			<point x="889" y="110" type="curve" smooth="yes"/>
			<point x="899" y="110" type="line" smooth="yes"/>
			<point x="918" y="110"/>
			<point x="921" y="97"/>
			<point x="921" y="78" type="curve" smooth="yes"/>
			<point x="921" y="32" type="line" smooth="yes"/>
			<point x="921" y="8"/>
			<point x="909" y="0"/>
			<point x="881" y="0" type="curve" smooth="yes"/>
			<point x="661" y="0" type="line" smooth="yes"/>
			<point x="633" y="0"/>
			<point x="621" y="7"/>
			<point x="621" y="32" type="curve" smooth="yes"/>
			<point x="621" y="82" type="line" smooth="yes"/>
			<point x="621" y="103"/>
			<point x="624" y="110"/>
			<point x="647" y="110" type="curve" smooth="yes"/>
			<point x="650" y="110" type="line" smooth="yes"/>
			<point x="670" y="110"/>
			<point x="671" y="114"/>
			<point x="671" y="160" type="curve" smooth="yes"/>
			<point x="671" y="896" type="line" smooth="yes"/>
			<point x="671" y="922"/>
			<point x="671" y="930"/>
			<point x="641" y="930" type="curve" smooth="yes"/>
			<point x="473" y="930" type="line" smooth="yes"/>
			<point x="430" y="930"/>
			<point x="428" y="921"/>
			<point x="428" y="878" type="curve" smooth="yes"/>
			<point x="428" y="148"/>
			<point x="426" y="-20"/>
			<point x="203" y="-20" type="curve" smooth="yes"/>
			<point x="89" y="-20"/>
			<point x="15" y="40"/>
		</contour>
	</outline>
</glyph>
<glyph name="tse-cy" format="2">
	<advance width="966" height="2310"/>
	<unicode hex="0446"/>
	<outline>
		<contour>
			<point x="638" y="889" type="line" smooth="yes"/>
			<point x="638" y="920"/>
			<point x="627" y="930"/>
			<point x="596" y="930" type="curve" smooth="yes"/>
			<point x="573" y="930" type="line" smooth="yes"/>
			<point x="546" y="930"/>
			<point x="538" y="935"/>
			<point x="538" y="964" type="curve" smooth="yes"/>
			<point x="538" y="1010" type="line" smooth="yes"/>
			<point x="538" y="1034"/>
			<point x="543" y="1040"/>
			<point x="566" y="1040" type="curve" smooth="yes"/>
			<point x="890" y="1040" type="line" smooth="yes"/>
			<point x="914" y="1040"/>
			<point x="918" y="1033"/>
			<point x="918" y="1008" type="curve" smooth="yes"/>
			<point x="918" y="962" type="line" smooth="yes"/>
			<point x="918" y="934"/>
			<point x="908" y="930"/>
			<point x="882" y="930" type="curve" smooth="yes"/>
			<point x="852" y="930" type="line" smooth="yes"/>
			<point x="826" y="930"/>
			<point x="818" y="927"/>
			<point x="818" y="902" type="curve" smooth="yes"/>
			<point x="818" y="155" type="line" smooth="yes"/>
			<point x="818" y="120"/>
			<point x="819" y="110"/>
			<point x="854" y="110" type="curve" smooth="yes"/>
			<point x="892" y="110" type="line" smooth="yes"/>
			<point x="914" y="110"/>
			<point x="918" y="103"/>
			<point x="918" y="80" type="curve" smooth="yes"/>
			<point x="918" y="-293" type="line" smooth="yes"/>
			<point x="918" y="-311"/>
			<point x="917" y="-320"/>
			<point x="899" y="-320" type="curve" smooth="yes"/>
			<point x="847" y="-320" type="line" smooth="yes"/>
			<point x="828" y="-320"/>
			<point x="829" y="-315"/>
			<point x="828" y="-297" type="curve" smooth="yes"/>
			<point x="821" y="-153"/>
			<point x="784" y="0"/>
			<point x="588" y="0" type="curve" smooth="yes"/>
			<point x="76" y="0" type="line" smooth="yes"/>
			<point x="52" y="0"/>
			<point x="48" y="7"/>
			<point x="48" y="32" type="curve" smooth="yes"/>
			<point x="48" y="78" type="line" smooth="yes"/>
			<point x="48" y="106"/>
			<point x="58" y="110"/>
			<point x="84" y="110" type="curve" smooth="yes"/>
			<point x="114" y="110" type="line" smooth="yes"/>
			<point x="140" y="110"/>
			<point x="148" y="113"/>
			<point x="148" y="138" type="curve" smooth="yes"/>
			<point x="148" y="885" type="line" smooth="yes"/>
			<point x="148" y="920"/>
			<point x="147" y="930"/>
			<point x="112" y="930" type="curve" smooth="yes"/>
			<point x="74" y="930" type="line" smooth="yes"/>
			<point x="52" y="930"/>
			<point x="48" y="937"/>
			<point x="48" y="960" type="curve" smooth="yes"/>
			<point x="48" y="1018" type="line" smooth="yes"/>
			<point x="48" y="1040"/>
			<point x="57" y="1040"/>
			<point x="79" y="1040" type="curve" smooth="yes"/>
			<point x="406" y="1040" type="line" smooth="yes"/>
			<point x="427" y="1040"/>
			<point x="428" y="1031"/>
			<point x="428" y="1009" type="curve" smooth="yes"/>
			<point x="428" y="959" type="line" smooth="yes"/>
			<point x="428" y="937"/>
			<point x="424" y="930"/>
			<point x="403" y="930" type="curve" smooth="yes"/>
			<point x="368" y="930" type="line" smooth="yes"/>
			<point x="336" y="930"/>
			<point x="328" y="926"/>
			<point x="328" y="891" type="curve" smooth="yes"/>
			<point x="328" y="151" type="line" smooth="yes"/>
			<point x="328" y="120"/>
			<point x="339" y="110"/>
			<point x="370" y="110" type="curve" smooth="yes"/>
			<point x="598" y="110" type="line" smooth="yes"/>
			<point x="630" y="110"/>
			<point x="638" y="114"/>
			<point x="638" y="149" type="curve" smooth="yes"/>
		</contour>
	</outline>
</glyph>
<glyph name="sha-cy" format="2">
	<advance width="1296" height="2310"/>
	<unicode hex="0448"/>
	<outline>
		<contour>
			<point x="558" y="889" type="line" smooth="yes"/>
			<point x="558" y="920"/>
			<point x="552" y="930"/>
			<point x="521" y="930" type="curve" smooth="yes"/>
			<point x="513" y="930" type="line" smooth="yes"/>
			<point x="486" y="930"/>
			<point x="478" y="935"/>
			<point x="478" y="964" type="curve" smooth="yes"/>
			<point x="478" y="1010" type="line" smooth="yes"/>
			<point x="478" y="1034"/>
			<point x="483" y="1040"/>
			<point x="506" y="1040" type="curve" smooth="yes"/>
			<point x="790" y="1040" type="line" smooth="yes"/>
			<point x="814" y="1040"/>
			<point x="818" y="1033"/>
			<point x="818" y="1008" type="curve" smooth="yes"/>
			<point x="818" y="962" type="line" smooth="yes"/>
			<point x="818" y="934"/>
			<point x="808" y="930"/>
			<point x="782" y="930" type="curve" smooth="yes"/>
			<point x="772" y="930" type="line" smooth="yes"/>
			<point x="746" y="930"/>
			<point x="738" y="927"/>
			<point x="738" y="902" type="curve" smooth="yes"/>
			<point x="738" y="155" type="line" smooth="yes"/>
			<point x="738" y="120"/>
			<point x="739" y="110"/>
			<point x="774" y="110" type="curve" smooth="yes"/>
			<point x="948" y="110" type="line" smooth="yes"/>
			<point x="980" y="110"/>
			<point x="988" y="114"/>
			<point x="988" y="149" type="curve" smooth="yes"/>
			<point x="988" y="889" type="line" smooth="yes"/>
			<point x="988" y="920"/>
			<point x="977" y="930"/>
			<point x="946" y="930" type="curve" smooth="yes"/>
			<point x="943" y="930" type="line" smooth="yes"/>
			<point x="916" y="930"/>
			<point x="908" y="935"/>
			<point x="908" y="964" type="curve" smooth="yes"/>
			<point x="908" y="1010" type="line" smooth="yes"/>
			<point x="908" y="1034"/>
			<point x="913" y="1040"/>
			<point x="936" y="1040" type="curve" smooth="yes"/>
			<point x="1220" y="1040" type="line" smooth="yes"/>
			<point x="1244" y="1040"/>
			<point x="1248" y="1033"/>
			<point x="1248" y="1008" type="curve" smooth="yes"/>
			<point x="1248" y="962" type="line" smooth="yes"/>
			<point x="1248" y="934"/>
			<point x="1238" y="930"/>
			<point x="1212" y="930" type="curve" smooth="yes"/>
			<point x="1202" y="930" type="line" smooth="yes"/>
			<point x="1176" y="930"/>
			<point x="1168" y="927"/>
			<point x="1168" y="902" type="curve" smooth="yes"/>
			<point x="1168" y="155" type="line" smooth="yes"/>
			<point x="1168" y="120"/>
			<point x="1169" y="110"/>
			<point x="1204" y="110" type="curve" smooth="yes"/>
			<point x="1222" y="110" type="line" smooth="yes"/>
			<point x="1244" y="110"/>
			<point x="1248" y="103"/>
			<point x="1248" y="80" type="curve" smooth="yes"/>
			<point x="1248" y="22" type="line" smooth="yes"/>
			<point x="1248" y="0"/>
			<point x="1239" y="0"/>
			<point x="1217" y="0" type="curve" smooth="yes"/>
			<point x="76" y="0" type="line" smooth="yes"/>
			<point x="52" y="0"/>
			<point x="48" y="7"/>
			<point x="48" y="32" type="curve" smooth="yes"/>
			<point x="48" y="78" type="line" smooth="yes"/>
			<point x="48" y="106"/>
			<point x="58" y="110"/>
			<point x="84" y="110" type="curve" smooth="yes"/>
			<point x="94" y="110" type="line" smooth="yes"/>
			<point x="120" y="110"/>
			<point x="128" y="113"/>
			<point x="128" y="138" type="curve" smooth="yes"/>
			<point x="128" y="885" type="line" smooth="yes"/>
			<point x="128" y="920"/>
			<point x="127" y="930"/>
			<point x="92" y="930" type="curve" smooth="yes"/>
			<point x="74" y="930" type="line" smooth="yes"/>
			<point x="52" y="930"/>
			<point x="48" y="937"/>
			<point x="48" y="960" type="curve" smooth="yes"/>
			<point x="48" y="1018" type="line" smooth="yes"/>
			<point x="48" y="1040"/>
			<point x="57" y="1040"/>
			<point x="79" y="1040" type="curve" smooth="yes"/>
			<point x="366" y="1040" type="line" smooth="yes"/>
			<point x="387" y="1040"/>
			<point x="388" y="1031"/>
			<point x="388" y="1009" type="curve" smooth="yes"/>
			<point x="388" y="959" type="line" smooth="yes"/>
			<point x="388" y="937"/>
			<point x="384" y="930"/>
			<point x="363" y="930" type="curve" smooth="yes"/>
			<point x="348" y="930" type="line" smooth="yes"/>
			<point x="316" y="930"/>
			<point x="308" y="926"/>
			<point x="308" y="891" type="curve" smooth="yes"/>
			<point x="308" y="151" type="line" smooth="yes"/>
			<point x="308" y="120"/>
			<point x="319" y="110"/>
			<point x="350" y="110" type="curve" smooth="yes"/>
			<point x="518" y="110" type="line" smooth="yes"/>
			<point x="550" y="110"/>
			<point x="558" y="114"/>
			<point x="558" y="149" type="curve" smooth="yes"/>
		</contour>
	</outline>
</glyph>
<glyph name="hardsign-cy" format="2">
	<advance width="1287" height="2234"/>
	<unicode hex="044A"/>
	<outline>
		<contour>
			<point x="702" y="110" type="line" smooth="yes"/>
			<point x="804" y="110"/>
			<point x="852" y="172"/>
			<point x="852" y="310" type="curve" smooth="yes"/>
			<point x="852" y="448"/>
			<point x="804" y="480"/>
			<point x="702" y="480" type="curve" smooth="yes"/>
			<point x="650" y="480" type="line" smooth="yes"/>
			<point x="611" y="480"/>
			<point x="604" y="475"/>
			<point x="604" y="434" type="curve" smooth="yes"/>
			<point x="604" y="146" type="line" smooth="yes"/>
			<point x="604" y="114"/>
			<point x="605" y="110"/>
			<point x="637" y="110" type="curve" smooth="yes"/>
		</contour>
		<contour>
			<point x="367" y="0" type="line" smooth="yes"/>
			<point x="346" y="0"/>
			<point x="344" y="4"/>
			<point x="344" y="26" type="curve" smooth="yes"/>
			<point x="344" y="88" type="line" smooth="yes"/>
			<point x="344" y="108"/>
			<point x="354" y="110"/>
			<point x="372" y="110" type="curve" smooth="yes"/>
			<point x="402" y="110" type="line" smooth="yes"/>
			<point x="423" y="110"/>
			<point x="424" y="117"/>
			<point x="424" y="137" type="curve" smooth="yes"/>
			<point x="424" y="896" type="line" smooth="yes"/>
			<point x="424" y="921"/>
			<point x="423" y="930"/>
			<point x="398" y="930" type="curve" smooth="yes"/>
			<point x="380" y="930" type="line" smooth="yes"/>
			<point x="281" y="930"/>
			<point x="213" y="853"/>
			<point x="210" y="674" type="curve" smooth="yes"/>
			<point x="210" y="655"/>
			<point x="210" y="650"/>
			<point x="190" y="650" type="curve" smooth="yes"/>
			<point x="138" y="650" type="line" smooth="yes"/>
			<point x="119" y="650"/>
			<point x="110" y="651"/>
			<point x="110" y="670" type="curve" smooth="yes"/>
			<point x="110" y="1011" type="line" smooth="yes"/>
			<point x="110" y="1033"/>
			<point x="113" y="1040"/>
			<point x="134" y="1040" type="curve" smooth="yes"/>
			<point x="658" y="1040" type="line" smooth="yes"/>
			<point x="685" y="1040"/>
			<point x="694" y="1039"/>
			<point x="694" y="1010" type="curve" smooth="yes"/>
			<point x="694" y="959" type="line" smooth="yes"/>
			<point x="694" y="931"/>
			<point x="691" y="930"/>
			<point x="663" y="930" type="curve" smooth="yes"/>
			<point x="629" y="930" type="line" smooth="yes"/>
			<point x="607" y="930"/>
			<point x="604" y="923"/>
			<point x="604" y="900" type="curve" smooth="yes"/>
			<point x="604" y="630" type="line" smooth="yes"/>
			<point x="604" y="597"/>
			<point x="609" y="590"/>
			<point x="644" y="590" type="curve" smooth="yes"/>
			<point x="722" y="590" type="line" smooth="yes"/>
			<point x="944" y="590"/>
			<point x="1072" y="520"/>
			<point x="1072" y="300" type="curve" smooth="yes"/>
			<point x="1072" y="80"/>
			<point x="944" y="0"/>
			<point x="722" y="0" type="curve" smooth="yes"/>
		</contour>
	</outline>
</glyph>
<glyph name="softsign-cy" format="2">
	<advance width="776" height="2234"/>
	<unicode hex="044C"/>
	<outline>
		<contour>
			<point x="71" y="0" type="line" smooth="yes"/>
			<point x="50" y="0"/>
			<point x="48" y="4"/>
			<point x="48" y="26" type="curve" smooth="yes"/>
			<point x="48" y="88" type="line" smooth="yes"/>
			<point x="48" y="108"/>
			<point x="58" y="110"/>
			<point x="76" y="110" type="curve" smooth="yes"/>
			<point x="106" y="110" type="line" smooth="yes"/>
			<point x="127" y="110"/>
			<point x="128" y="117"/>
			<point x="128" y="137" type="curve" smooth="yes"/>
			<point x="128" y="896" type="line" smooth="yes"/>
			<point x="128" y="921"/>
			<point x="127" y="930"/>
			<point x="102" y="930" type="curve" smooth="yes"/>
			<point x="73" y="930" type="line" smooth="yes"/>
			<point x="53" y="930"/>
			<point x="48" y="932"/>
			<point x="48" y="954" type="curve" smooth="yes"/>
			<point x="48" y="1016" type="line" smooth="yes"/>
			<point x="48" y="1037"/>
			<point x="55" y="1040"/>
			<point x="75" y="1040" type="curve" smooth="yes"/>
			<point x="362" y="1040" type="line" smooth="yes"/>
			<point x="389" y="1040"/>
			<point x="398" y="1039"/>
			<point x="398" y="1010" type="curve" smooth="yes"/>
			<point x="398" y="959" type="line" smooth="yes"/>
			<point x="398" y="931"/>
			<point x="395" y="930"/>
			<point x="367" y="930" type="curve" smooth="yes"/>
			<point x="333" y="930" type="line" smooth="yes"/>
			<point x="311" y="930"/>
			<point x="308" y="923"/>
			<point x="308" y="900" type="curve" smooth="yes"/>
			<point x="308" y="615" type="line" smooth="yes"/>
			<point x="308" y="591"/>
			<point x="317" y="590"/>
			<point x="342" y="590" type="curve" smooth="yes"/>
			<point x="376" y="590" type="line" smooth="yes"/>
			<point x="618" y="590"/>
			<point x="776" y="520"/>
			<point x="776" y="300" type="curve" smooth="yes"/>
			<point x="776" y="80"/>
			<point x="618" y="0"/>
			<point x="376" y="0" type="curve" smooth="yes"/>
		</contour>
		<contour>
			<point x="376" y="110" type="line" smooth="yes"/>
			<point x="498" y="110"/>
			<point x="556" y="172"/>
			<point x="556" y="310" type="curve" smooth="yes"/>
			<point x="556" y="448"/>
			<point x="498" y="480"/>
			<point x="376" y="480" type="curve" smooth="yes"/>
			<point x="357" y="480" type="line" smooth="yes"/>
			<point x="310" y="480"/>
			<point x="308" y="472"/>
			<point x="308" y="424" type="curve" smooth="yes"/>
			<point x="308" y="146" type="line" smooth="yes"/>
			<point x="308" y="114"/>
			<point x="309" y="110"/>
			<point x="341" y="110" type="curve" smooth="yes"/>
		</contour>
	</outline>
</glyph>
<glyph name="ereversed-cy" format="2">
	<advance width="777" height="2310"/>
	<unicode hex="044D"/>
	<outline>
		<contour>
			<point x="725" y="530" type="curve" smooth="yes"/>
			<point x="725" y="200"/>
			<point x="599" y="-20"/>
			<point x="327" y="-20" type="curve" smooth="yes"/>
			<point x="93" y="-20"/>
			<point x="35" y="114"/>
			<point x="35" y="248" type="curve" smooth="yes"/>
			<point x="35" y="364"/>
			<point x="105" y="410"/>
			<point x="163" y="410" type="curve" smooth="yes"/>
			<point x="217" y="410"/>
			<point x="277" y="368"/>
			<point x="277" y="294" type="curve" smooth="yes"/>
			<point x="277" y="222"/>
			<point x="183" y="212"/>
			<point x="183" y="166" type="curve" smooth="yes"/>
			<point x="183" y="112"/>
			<point x="209" y="74"/>
			<point x="307" y="74" type="curve" smooth="yes"/>
			<point x="475" y="74"/>
			<point x="504" y="222"/>
			<point x="517" y="428" type="curve" smooth="yes"/>
			<point x="519" y="463"/>
			<point x="517" y="470"/>
			<point x="487" y="470" type="curve" smooth="yes"/>
			<point x="390" y="470" type="line" smooth="yes"/>
			<point x="362" y="470"/>
			<point x="350" y="477"/>
			<point x="350" y="502" type="curve" smooth="yes"/>
			<point x="350" y="552" type="line" smooth="yes"/>
			<point x="350" y="573"/>
			<point x="358" y="580"/>
			<point x="396" y="580" type="curve" smooth="yes"/>
			<point x="491" y="580" type="line" smooth="yes"/>
			<point x="522" y="580"/>
			<point x="521" y="585"/>
			<point x="521" y="615" type="curve" smooth="yes"/>
			<point x="520" y="822"/>
			<point x="463" y="962"/>
			<point x="367" y="962" type="curve" smooth="yes"/>
			<point x="263" y="962"/>
			<point x="232" y="812"/>
			<point x="195" y="699" type="curve" smooth="yes"/>
			<point x="188" y="679"/>
			<point x="189" y="670"/>
			<point x="163" y="670" type="curve" smooth="yes"/>
			<point x="110" y="670" type="line" smooth="yes"/>
			<point x="87" y="670"/>
			<point x="81" y="674"/>
			<point x="81" y="696" type="curve" smooth="yes"/>
			<point x="81" y="1031" type="line" smooth="yes"/>
			<point x="81" y="1047"/>
			<point x="84" y="1050"/>
			<point x="101" y="1050" type="curve" smooth="yes"/>
			<point x="155" y="1050" type="line" smooth="yes"/>
			<point x="174" y="1050"/>
			<point x="172" y="1046"/>
			<point x="176" y="1032" type="curve" smooth="yes"/>
			<point x="188" y="989" type="line" smooth="yes"/>
			<point x="199" y="952"/>
			<point x="212" y="948"/>
			<point x="227" y="973" type="curve" smooth="yes"/>
			<point x="260" y="1029"/>
			<point x="308" y="1060"/>
			<point x="391" y="1060" type="curve" smooth="yes"/>
			<point x="623" y="1060"/>
			<point x="725" y="850"/>
		</contour>
	</outline>
</glyph>
<glyph name="ya-cy" format="2">
	<advance width="802" height="2234"/>
	<unicode hex="044F"/>
	<outline>
		<contour>
			<point x="472" y="570" type="line" smooth="yes"/>
			<point x="486" y="570"/>
			<point x="494" y="586"/>
			<point x="494" y="598" type="curve" smooth="yes"/>
			<point x="494" y="883" type="line" smooth="yes"/>
			<point x="494" y="930"/>
			<point x="494" y="930"/>
			<point x="447" y="930" type="curve" smooth="yes"/>
			<point x="421" y="930" type="line" smooth="yes"/>
			<point x="339" y="930"/>
			<point x="301" y="874"/>
			<point x="301" y="736" type="curve" smooth="yes"/>
			<point x="301" y="598"/>
			<point x="339" y="570"/>
			<point x="421" y="570" type="curve" smooth="yes"/>
		</contour>
		<contour>
			<point x="-11" y="210" type="curve" smooth="yes"/>
			<point x="-11" y="228"/>
			<point x="-6" y="234"/>
			<point x="14" y="234" type="curve" smooth="yes"/>
			<point x="44" y="234" type="line" smooth="yes"/>
			<point x="64" y="234"/>
			<point x="75" y="229"/>
			<point x="75" y="212" type="curve" smooth="yes"/>
			<point x="75" y="143"/>
			<point x="85" y="105"/>
			<point x="132" y="105" type="curve" smooth="yes"/>
			<point x="260" y="105"/>
			<point x="42" y="355"/>
			<point x="266" y="497" type="curve" smooth="yes"/>
			<point x="302" y="520"/>
			<point x="322" y="518"/>
			<point x="265" y="530" type="curve" smooth="yes"/>
			<point x="183" y="547"/>
			<point x="101" y="620"/>
			<point x="101" y="760" type="curve" smooth="yes"/>
			<point x="101" y="970"/>
			<point x="219" y="1040"/>
			<point x="391" y="1040" type="curve" smooth="yes"/>
			<point x="726" y="1040" type="line" smooth="yes"/>
			<point x="751" y="1040"/>
			<point x="754" y="1032"/>
			<point x="754" y="1006" type="curve" smooth="yes"/>
			<point x="754" y="975" type="line" smooth="yes"/>
			<point x="754" y="939"/>
			<point x="753" y="930"/>
			<point x="718" y="930" type="curve" smooth="yes"/>
			<point x="713" y="930" type="line" smooth="yes"/>
			<point x="671" y="930"/>
			<point x="674" y="925"/>
			<point x="674" y="882" type="curve" smooth="yes"/>
			<point x="674" y="153" type="line" smooth="yes"/>
			<point x="674" y="113"/>
			<point x="671" y="110"/>
			<point x="712" y="110" type="curve" smooth="yes"/>
			<point x="718" y="110" type="line" smooth="yes"/>
			<point x="746" y="110"/>
			<point x="754" y="105"/>
			<point x="754" y="75" type="curve" smooth="yes"/>
			<point x="754" y="32" type="line" smooth="yes"/>
			<point x="754" y="6"/>
			<point x="748" y="0"/>
			<point x="723" y="0" type="curve" smooth="yes"/>
			<point x="457" y="0" type="line" smooth="yes"/>
			<point x="431" y="0"/>
			<point x="424" y="4"/>
			<point x="424" y="29" type="curve" smooth="yes"/>
			<point x="424" y="74" type="line" smooth="yes"/>
			<point x="424" y="103"/>
			<point x="427" y="110"/>
			<point x="455" y="110" type="curve" smooth="yes"/>
			<point x="464" y="110" type="line" smooth="yes"/>
			<point x="486" y="110"/>
			<point x="494" y="113"/>
			<point x="494" y="144" type="curve" smooth="yes"/>
			<point x="494" y="408" type="line" smooth="yes"/>
			<point x="494" y="452"/>
			<point x="492" y="460"/>
			<point x="448" y="460" type="curve" smooth="yes"/>
			<point x="424" y="460" type="line" smooth="yes"/>
			<point x="211" y="460"/>
			<point x="510" y="-20"/>
			<point x="174" y="-20" type="curve" smooth="yes"/>
			<point x="50" y="-20"/>
			<point x="-11" y="49"/>
		</contour>
	</outline>
</glyph>
<glyph name="e-cy" format="2">
	<advance width="787" height="2310"/>
	<unicode hex="0454"/>
	<outline>
		<contour>
			<point x="52" y="520" type="curve" smooth="yes"/>
			<point x="52" y="820"/>
			<point x="158" y="1060"/>
			<point x="460" y="1060" type="curve" smooth="yes"/>
			<point x="664" y="1060"/>
			<point x="742" y="926"/>
			<point x="742" y="782" type="curve" smooth="yes"/>
			<point x="742" y="686"/>
			<point x="672" y="630"/>
			<point x="614" y="630" type="curve" smooth="yes"/>
			<point x="560" y="630"/>
			<point x="500" y="672"/>
			<point x="500" y="746" type="curve" smooth="yes"/>
			<point x="500" y="828"/>
			<point x="594" y="828"/>
			<point x="594" y="874" type="curve" smooth="yes"/>
			<point x="594" y="928"/>
			<point x="548" y="966"/>
			<point x="470" y="966" type="curve" smooth="yes"/>
			<point x="303" y="966"/>
			<point x="264" y="810"/>
			<point x="256" y="624" type="curve" smooth="yes"/>
			<point x="255" y="594"/>
			<point x="255" y="577"/>
			<point x="290" y="577" type="curve" smooth="yes"/>
			<point x="434" y="577" type="line" smooth="yes"/>
			<point x="462" y="577"/>
			<point x="474" y="570"/>
			<point x="474" y="545" type="curve" smooth="yes"/>
			<point x="474" y="495" type="line" smooth="yes"/>
			<point x="474" y="474"/>
			<point x="466" y="467"/>
			<point x="428" y="467" type="curve" smooth="yes"/>
			<point x="296" y="467" type="line" smooth="yes"/>
			<point x="262" y="467"/>
			<point x="255" y="464"/>
			<point x="256" y="432" type="curve" smooth="yes"/>
			<point x="264" y="240"/>
			<point x="303" y="78"/>
			<point x="440" y="78" type="curve" smooth="yes"/>
			<point x="549" y="78"/>
			<point x="612" y="188"/>
			<point x="624" y="327" type="curve" smooth="yes"/>
			<point x="625" y="341"/>
			<point x="633" y="346"/>
			<point x="652" y="346" type="curve" smooth="yes"/>
			<point x="714" y="346" type="line" smooth="yes"/>
			<point x="735" y="346"/>
			<point x="734" y="344"/>
			<point x="733" y="328" type="curve" smooth="yes"/>
			<point x="719" y="134"/>
			<point x="621" y="-20"/>
			<point x="426" y="-20" type="curve" smooth="yes"/>
			<point x="114" y="-20"/>
			<point x="52" y="220"/>
		</contour>
	</outline>
</glyph>
<glyph name="nje-cy" format="2">
	<advance width="1196" height="2310"/>
	<unicode hex="045A"/>
	<outline>
		<contour>
			<point x="836" y="110" type="curve" smooth="yes"/>
			<point x="846" y="110" type="line" smooth="yes"/>
			<point x="938" y="110"/>
			<point x="976" y="172"/>
			<point x="976" y="310" type="curve" smooth="yes"/>
			<point x="976" y="448"/>
			<point x="938" y="480"/>
			<point x="846" y="480" type="curve" smooth="yes"/>
			<point x="832" y="480" type="line" smooth="yes"/>
			<point x="800" y="480"/>
			<point x="798" y="482"/>
			<point x="798" y="449" type="curve" smooth="yes"/>
			<point x="798" y="153" type="line" smooth="yes"/>
			<point x="798" y="120"/>
			<point x="807" y="110"/>
		</contour>
		<contour>
			<point x="560" y="0" type="line" smooth="yes"/>
			<point x="539" y="0"/>
			<point x="538" y="9"/>
			<point x="538" y="31" type="curve" smooth="yes"/>
			<point x="538" y="81" type="line" smooth="yes"/>
			<point x="538" y="103"/>
			<point x="542" y="110"/>
			<point x="563" y="110" type="curve" smooth="yes"/>
			<point x="578" y="110" type="line" smooth="yes"/>
			<point x="610" y="110"/>
			<point x="618" y="114"/>
			<point x="618" y="149" type="curve" smooth="yes"/>
			<point x="618" y="451" type="line" smooth="yes"/>
			<point x="618" y="475"/>
			<point x="613" y="482"/>
			<point x="587" y="482" type="curve" smooth="yes"/>
			<point x="357" y="482" type="line" smooth="yes"/>
			<point x="317" y="482"/>
			<point x="308" y="479"/>
			<point x="308" y="436" type="curve" smooth="yes"/>
			<point x="308" y="151" type="line" smooth="yes"/>
			<point x="308" y="120"/>
			<point x="319" y="110"/>
			<point x="350" y="110" type="curve" smooth="yes"/>
			<point x="353" y="110" type="line" smooth="yes"/>
			<point x="380" y="110"/>
			<point x="388" y="105"/>
			<point x="388" y="76" type="curve" smooth="yes"/>
			<point x="388" y="30" type="line" smooth="yes"/>
			<point x="388" y="6"/>
			<point x="383" y="0"/>
			<point x="360" y="0" type="curve" smooth="yes"/>
			<point x="76" y="0" type="line" smooth="yes"/>
			<point x="52" y="0"/>
			<point x="48" y="7"/>
			<point x="48" y="32" type="curve" smooth="yes"/>
			<point x="48" y="78" type="line" smooth="yes"/>
			<point x="48" y="106"/>
			<point x="58" y="110"/>
			<point x="84" y="110" type="curve" smooth="yes"/>
			<point x="94" y="110" type="line" smooth="yes"/>
			<point x="120" y="110"/>
			<point x="128" y="113"/>
			<point x="128" y="138" type="curve" smooth="yes"/>
			<point x="128" y="885" type="line" smooth="yes"/>
			<point x="128" y="920"/>
			<point x="127" y="930"/>
			<point x="92" y="930" type="curve" smooth="yes"/>
			<point x="74" y="930" type="line" smooth="yes"/>
			<point x="52" y="930"/>
			<point x="48" y="937"/>
			<point x="48" y="960" type="curve" smooth="yes"/>
			<point x="48" y="1018" type="line" smooth="yes"/>
			<point x="48" y="1040"/>
			<point x="57" y="1040"/>
			<point x="79" y="1040" type="curve" smooth="yes"/>
			<point x="366" y="1040" type="line" smooth="yes"/>
			<point x="387" y="1040"/>
			<point x="388" y="1031"/>
			<point x="388" y="1009" type="curve" smooth="yes"/>
			<point x="388" y="959" type="line" smooth="yes"/>
			<point x="388" y="937"/>
			<point x="384" y="930"/>
			<point x="363" y="930" type="curve" smooth="yes"/>
			<point x="348" y="930" type="line" smooth="yes"/>
			<point x="316" y="930"/>
			<point x="308" y="926"/>
			<point x="308" y="891" type="curve" smooth="yes"/>
			<point x="308" y="635" type="line" smooth="yes"/>
			<point x="308" y="601"/>
			<point x="312" y="592"/>
			<point x="348" y="592" type="curve" smooth="yes"/>
			<point x="588" y="592" type="line" smooth="yes"/>
			<point x="618" y="592"/>
			<point x="618" y="592"/>
			<point x="618" y="622" type="curve" smooth="yes"/>
			<point x="618" y="889" type="line" smooth="yes"/>
			<point x="618" y="920"/>
			<point x="610" y="930"/>
			<point x="579" y="930" type="curve" smooth="yes"/>
			<point x="573" y="930" type="line" smooth="yes"/>
			<point x="546" y="930"/>
			<point x="538" y="935"/>
			<point x="538" y="964" type="curve" smooth="yes"/>
			<point x="538" y="1010" type="line" smooth="yes"/>
			<point x="538" y="1034"/>
			<point x="543" y="1040"/>
			<point x="566" y="1040" type="curve" smooth="yes"/>
			<point x="850" y="1040" type="line" smooth="yes"/>
			<point x="874" y="1040"/>
			<point x="878" y="1033"/>
			<point x="878" y="1008" type="curve" smooth="yes"/>
			<point x="878" y="962" type="line" smooth="yes"/>
			<point x="878" y="934"/>
			<point x="868" y="930"/>
			<point x="842" y="930" type="curve" smooth="yes"/>
			<point x="832" y="930" type="line" smooth="yes"/>
			<point x="806" y="930"/>
			<point x="798" y="927"/>
			<point x="798" y="902" type="curve" smooth="yes"/>
			<point x="798" y="642" type="line" smooth="yes"/>
			<point x="798" y="599"/>
			<point x="799" y="590"/>
			<point x="842" y="590" type="curve" smooth="yes"/>
			<point x="846" y="590" type="line" smooth="yes"/>
			<point x="1078" y="590"/>
			<point x="1196" y="520"/>
			<point x="1196" y="300" type="curve" smooth="yes"/>
			<point x="1196" y="80"/>
			<point x="1078" y="0"/>
			<point x="846" y="0" type="curve" smooth="yes"/>
		</contour>
	</outline>
</glyph>
<glyph name="ushort-cy" format="2">
	<advance width="950" height="2310"/>
	<unicode hex="045E"/>
	<outline>
		<contour>
			<point x="707" y="1521" type="curve" smooth="yes"/>
			<point x="778" y="1521"/>
			<point x="830" y="1472"/>
			<point x="830" y="1401" type="curve" smooth="yes"/>
			<point x="830" y="1276"/>
			<point x="695" y="1197"/>
			<point x="483" y="1197" type="curve" smooth="yes"/>
			<point x="269" y="1197"/>
			<point x="135" y="1276"/>
			<point x="135" y="1403" type="curve" smooth="yes"/>
			<point x="135" y="1472"/>
			<point x="187" y="1521"/>
			<point x="258" y="1521" type="curve" smooth="yes"/>
			<point x="318" y="1521"/>
			<point x="364" y="1480"/>
			<point x="364" y="1426" type="curve" smooth="yes"/>
			<point x="364" y="1377"/>
			<point x="297" y="1369"/>
			<point x="297" y="1337" type="curve" smooth="yes"/>
			<point x="297" y="1304"/>
			<point x="364" y="1280"/>
			<point x="491" y="1280" type="curve" smooth="yes"/>
			<point x="605" y="1280"/>
			<point x="668" y="1306"/>
			<point x="668" y="1337" type="curve" smooth="yes"/>
			<point x="668" y="1370"/>
			<point x="601" y="1376"/>
			<point x="601" y="1426" type="curve" smooth="yes"/>
			<point x="601" y="1480"/>
			<point x="647" y="1521"/>
		</contour>
		<component base="y"/>
	</outline>
</glyph>
<glyph name="Geupturn-cy" format="2">
	<advance width="718" height="0"/>
	<unicode hex="0490"/>
	<anchor x="377" y="1500" name="Anchor-0"/>
	<anchor x="209" y="0" name="Anchor-1"/>
	<anchor x="209" y="0" name="Anchor-2"/>
	<outline>
		<contour>
			<point x="79" y="1390" type="curve" smooth="yes"/>
			<point x="62" y="1390" type="line" smooth="yes"/>
			<point x="43" y="1390"/>
			<point x="38" y="1392"/>
			<point x="38" y="1412" type="curve" smooth="yes"/>
			<point x="38" y="1481" type="line" smooth="yes"/>
			<point x="38" y="1495"/>
			<point x="39" y="1500"/>
			<point x="53" y="1500" type="curve" smooth="yes"/>
			<point x="398" y="1500" type="line" smooth="yes"/>
			<point x="527" y="1500"/>
			<point x="595" y="1577"/>
			<point x="598" y="1836" type="curve" smooth="yes"/>
			<point x="598" y="1855"/>
			<point x="598" y="1860"/>
			<point x="618" y="1860" type="curve" smooth="yes"/>
			<point x="670" y="1860" type="line" smooth="yes"/>
			<point x="689" y="1860"/>
			<point x="698" y="1859"/>
			<point x="698" y="1840" type="curve" smooth="yes"/>
			<point x="698" y="1419" type="line" smooth="yes"/>
			<point x="698" y="1397"/>
			<point x="695" y="1390"/>
			<point x="674" y="1390" type="curve" smooth="yes"/>
			<point x="332" y="1390" type="line" smooth="yes"/>
			<point x="307" y="1390"/>
			<point x="298" y="1376"/>
			<point x="298" y="1353" type="curve" smooth="yes"/>
			<point x="298" y="150" type="line" smooth="yes"/>
			<point x="298" y="118"/>
			<point x="302" y="110"/>
			<point x="336" y="110" type="curve" smooth="yes"/>
			<point x="360" y="110" type="line" smooth="yes"/>
			<point x="379" y="110"/>
			<point x="388" y="109"/>
			<point x="388" y="90" type="curve" smooth="yes"/>
			<point x="388" y="30" type="line" smooth="yes"/>
			<point x="388" y="4"/>
			<point x="379" y="0"/>
			<point x="355" y="0" type="curve" smooth="yes"/>
			<point x="63" y="0" type="line" smooth="yes"/>
			<point x="43" y="0"/>
			<point x="38" y="0"/>
			<point x="38" y="20" type="curve" smooth="yes"/>
			<point x="38" y="92" type="line" smooth="yes"/>
			<point x="38" y="109"/>
			<point x="47" y="110"/>
			<point x="65" y="110" type="curve" smooth="yes"/>
			<point x="81" y="110" type="line" smooth="yes"/>
			<point x="103" y="110"/>
			<point x="108" y="117"/>
			<point x="108" y="140" type="curve" smooth="yes"/>
			<point x="108" y="1360" type="line" smooth="yes"/>
			<point x="108" y="1387"/>
			<point x="105" y="1390"/>
		</contour>
	</outline>
</glyph>
<glyph name="geupturn-cy" format="2">
	<advance width="515" height="2234"/>
	<unicode hex="0491"/>
	<outline>
		<contour>
			<point x="121" y="930" type="curve" smooth="yes"/>
			<point x="104" y="930" type="line" smooth="yes"/>
			<point x="85" y="930"/>
			<point x="80" y="932"/>
			<point x="80" y="952" type="curve" smooth="yes"/>
			<point x="80" y="1021" type="line" smooth="yes"/>
			<point x="80" y="1035"/>
			<point x="81" y="1040"/>
			<point x="95" y="1040" type="curve" smooth="yes"/>
			<point x="270" y="1040" type="line" smooth="yes"/>
			<point x="359" y="1040"/>
			<point x="387" y="1117"/>
			<point x="390" y="1296" type="curve" smooth="yes"/>
			<point x="390" y="1315"/>
			<point x="390" y="1320"/>
			<point x="410" y="1320" type="curve" smooth="yes"/>
			<point x="462" y="1320" type="line" smooth="yes"/>
			<point x="481" y="1320"/>
			<point x="490" y="1319"/>
			<point x="490" y="1300" type="curve" smooth="yes"/>
			<point x="490" y="959" type="line" smooth="yes"/>
			<point x="490" y="937"/>
			<point x="487" y="930"/>
			<point x="466" y="930" type="curve" smooth="yes"/>
			<point x="374" y="930" type="line" smooth="yes"/>
			<point x="349" y="930"/>
			<point x="330" y="916"/>
			<point x="330" y="893" type="curve" smooth="yes"/>
			<point x="330" y="150" type="line" smooth="yes"/>
			<point x="330" y="118"/>
			<point x="344" y="110"/>
			<point x="378" y="110" type="curve" smooth="yes"/>
			<point x="372" y="110" type="line" smooth="yes"/>
			<point x="391" y="110"/>
			<point x="400" y="109"/>
			<point x="400" y="90" type="curve" smooth="yes"/>
			<point x="400" y="30" type="line" smooth="yes"/>
			<point x="400" y="4"/>
			<point x="391" y="0"/>
			<point x="367" y="0" type="curve" smooth="yes"/>
			<point x="75" y="0" type="line" smooth="yes"/>
			<point x="55" y="0"/>
			<point x="80" y="0"/>
			<point x="80" y="20" type="curve" smooth="yes"/>
			<point x="80" y="92" type="line" smooth="yes"/>
			<point x="80" y="109"/>
			<point x="59" y="110"/>
			<point x="77" y="110" type="curve" smooth="yes"/>
			<point x="123" y="110" type="line" smooth="yes"/>
			<point x="145" y="110"/>
			<point x="150" y="117"/>
			<point x="150" y="140" type="curve" smooth="yes"/>
			<point x="150" y="900" type="line" smooth="yes"/>
			<point x="150" y="927"/>
			<point x="147" y="930"/>
		</contour>
	</outline>
</glyph>
<glyph name="foursuperior" format="2">
	<advance width="757" height="2309"/>
	<unicode hex="2074"/>
	<outline>
		<contour>
			<point x="659" y="969" type="curve" smooth="yes"/>
			<point x="659" y="935" type="line" smooth="yes"/>
			<point x="659" y="921"/>
			<point x="654" y="919"/>
			<point x="640" y="919" type="curve" smooth="yes"/>
			<point x="360" y="919" type="line" smooth="yes"/>
			<point x="345" y="919"/>
			<point x="341" y="922"/>
			<point x="341" y="938" type="curve" smooth="yes"/>
			<point x="341" y="965" type="line" smooth="yes"/>
			<point x="341" y="981"/>
			<point x="344" y="985"/>
			<point x="359" y="985" type="curve" smooth="yes"/>
			<point x="438" y="985" type="line" smooth="yes"/>
			<point x="451" y="985"/>
			<point x="455" y="988"/>
			<point x="455" y="1000" type="curve" smooth="yes"/>
			<point x="455" y="1172" type="line" smooth="yes"/>
			<point x="455" y="1191"/>
			<point x="453" y="1195"/>
			<point x="435" y="1195" type="curve" smooth="yes"/>
			<point x="133" y="1195" type="line" smooth="yes"/>
			<point x="115" y="1195"/>
			<point x="111" y="1197"/>
			<point x="103" y="1205" type="curve" smooth="yes"/>
			<point x="87" y="1221" type="line" smooth="yes"/>
			<point x="76" y="1232"/>
			<point x="78" y="1236"/>
			<point x="85" y="1252" type="curve" smooth="yes"/>
			<point x="169" y="1451"/>
			<point x="417" y="1549"/>
			<point x="478" y="1787" type="curve" smooth="yes"/>
			<point x="483" y="1805"/>
			<point x="477" y="1819"/>
			<point x="502" y="1819" type="curve" smooth="yes"/>
			<point x="568" y="1819" type="line" smooth="yes"/>
			<point x="593" y="1819"/>
			<point x="597" y="1816"/>
			<point x="594" y="1794" type="curve" smooth="yes"/>
			<point x="561" y="1547"/>
			<point x="276" y="1444"/>
			<point x="181" y="1290" type="curve" smooth="yes"/>
			<point x="170" y="1271"/>
			<point x="175" y="1261"/>
			<point x="209" y="1261" type="curve" smooth="yes"/>
			<point x="444" y="1261" type="line" smooth="yes"/>
			<point x="457" y="1261"/>
			<point x="455" y="1264"/>
			<point x="455" y="1276" type="curve" smooth="yes"/>
			<point x="455" y="1351" type="line" smooth="yes"/>
			<point x="455" y="1371"/>
			<point x="460" y="1370"/>
			<point x="470" y="1378" type="curve" smooth="yes"/>
			<point x="498" y="1400"/>
			<point x="515" y="1428"/>
			<point x="533" y="1482" type="curve" smooth="yes"/>
			<point x="537" y="1492"/>
			<point x="535" y="1501"/>
			<point x="550" y="1501" type="curve" smooth="yes"/>
			<point x="553" y="1501" type="line" smooth="yes"/>
			<point x="569" y="1501"/>
			<point x="569" y="1496"/>
			<point x="569" y="1482" type="curve" smooth="yes"/>
			<point x="569" y="1287" type="line" smooth="yes"/>
			<point x="569" y="1264"/>
			<point x="572" y="1261"/>
			<point x="594" y="1261" type="curve" smooth="yes"/>
			<point x="658" y="1261" type="line" smooth="yes"/>
			<point x="674" y="1261"/>
			<point x="677" y="1257"/>
			<point x="677" y="1240" type="curve" smooth="yes"/>
			<point x="677" y="1213" type="line" smooth="yes"/>
			<point x="677" y="1197"/>
			<point x="672" y="1195"/>
			<point x="655" y="1195" type="curve" smooth="yes"/>
			<point x="590" y="1195" type="line" smooth="yes"/>
			<point x="571" y="1195"/>
			<point x="569" y="1189"/>
			<point x="569" y="1172" type="curve" smooth="yes"/>
			<point x="569" y="1007" type="line" smooth="yes"/>
			<point x="569" y="988"/>
			<point x="573" y="985"/>
			<point x="592" y="985" type="curve" smooth="yes"/>
			<point x="638" y="985" type="line" smooth="yes"/>
			<point x="653" y="985"/>
			<point x="659" y="984"/>
		</contour>
	</outline>
</glyph>
<glyph name="Euro" format="2">
	<advance width="1359" height="0"/>
	<unicode hex="20AC"/>
	<outline>
		<contour>
			<point x="890" y="1404" type="curve" smooth="yes"/>
			<point x="592" y="1404"/>
			<point x="500" y="1114"/>
			<point x="500" y="750" type="curve" smooth="yes"/>
			<point x="500" y="386"/>
			<point x="582" y="98"/>
			<point x="830" y="98" type="curve" smooth="yes"/>
			<point x="1131" y="98"/>
			<point x="1181" y="325"/>
			<point x="1188" y="464" type="curve" smooth="yes"/>
			<point x="1189" y="476"/>
			<point x="1194" y="480"/>
			<point x="1208" y="480" type="curve" smooth="yes"/>
			<point x="1278" y="480" type="line" smooth="yes"/>
			<point x="1292" y="480"/>
			<point x="1299" y="479"/>
			<point x="1299" y="466" type="curve" smooth="yes"/>
			<point x="1294" y="266"/>
			<point x="1191" y="-20"/>
			<point x="810" y="-20" type="curve" smooth="yes"/>
			<point x="484" y="-20"/>
			<point x="270" y="304"/>
			<point x="270" y="750" type="curve" smooth="yes"/>
			<point x="270" y="1196"/>
			<point x="524" y="1520"/>
			<point x="880" y="1520" type="curve" smooth="yes"/>
			<point x="1144" y="1520"/>
			<point x="1262" y="1356"/>
			<point x="1262" y="1152" type="curve" smooth="yes"/>
			<point x="1262" y="1056"/>
			<point x="1192" y="1020"/>
			<point x="1134" y="1020" type="curve" smooth="yes"/>
			<point x="1080" y="1020"/>
			<point x="1020" y="1062"/>
			<point x="1020" y="1136" type="curve" smooth="yes"/>
			<point x="1020" y="1208"/>
			<point x="1114" y="1228"/>
			<point x="1114" y="1274" type="curve" smooth="yes"/>
			<point x="1114" y="1328"/>
			<point x="1058" y="1404"/>
		</contour>
		<component base="equal" xOffset="-70" yOffset="-30"/>
	</outline>
</glyph>
<glyph name="numero" format="2">
	<advance width="1798" height="0"/>
	<unicode hex="2116"/>
	<outline>
		<contour>
			<point x="1168" y="268" type="curve" smooth="yes"/>
			<point x="1674" y="268" type="line" smooth="yes"/>
			<point x="1697" y="268"/>
			<point x="1700" y="264"/>
			<point x="1700" y="240" type="curve" smooth="yes"/>
			<point x="1700" y="191" type="line" smooth="yes"/>
			<point x="1700" y="167"/>
			<point x="1698" y="158"/>
			<point x="1672" y="158" type="curve" smooth="yes"/>
			<point x="1166" y="158" type="line" smooth="yes"/>
			<point x="1141" y="158"/>
			<point x="1140" y="162"/>
			<point x="1140" y="188" type="curve" smooth="yes"/>
			<point x="1140" y="240" type="line" smooth="yes"/>
			<point x="1140" y="263"/>
			<point x="1147" y="268"/>
		</contour>
		<contour>
			<point x="1290" y="910" type="curve" smooth="yes"/>
			<point x="1290" y="702"/>
			<point x="1310" y="510"/>
			<point x="1418" y="510" type="curve" smooth="yes"/>
			<point x="1526" y="510"/>
			<point x="1546" y="702"/>
			<point x="1546" y="870" type="curve" smooth="yes"/>
			<point x="1546" y="1078"/>
			<point x="1526" y="1270"/>
			<point x="1418" y="1270" type="curve" smooth="yes"/>
			<point x="1310" y="1270"/>
			<point x="1290" y="1078"/>
		</contour>
		<contour>
			<point x="1090" y="870" type="curve" smooth="yes"/>
			<point x="1090" y="1150"/>
			<point x="1186" y="1360"/>
			<point x="1418" y="1360" type="curve" smooth="yes"/>
			<point x="1650" y="1360"/>
			<point x="1746" y="1150"/>
			<point x="1746" y="910" type="curve" smooth="yes"/>
			<point x="1746" y="630"/>
			<point x="1650" y="420"/>
			<point x="1418" y="420" type="curve" smooth="yes"/>
			<point x="1186" y="420"/>
			<point x="1090" y="630"/>
		</contour>
		<component base="N"/>
	</outline>
</glyph>
<glyph name="partialdiff" format="2">
	<advance width="1100" height="2310"/>
	<unicode hex="2202"/>
	<outline>
		<contour>
			<point x="354" y="1382" type="curve" smooth="yes"/>
			<point x="354" y="1356"/>
			<point x="402" y="1338"/>
			<point x="402" y="1266" type="curve" smooth="yes"/>
			<point x="402" y="1192"/>
			<point x="342" y="1150"/>
			<point x="288" y="1150" type="curve" smooth="yes"/>
			<point x="230" y="1150"/>
			<point x="160" y="1186"/>
			<point x="160" y="1282" type="curve" smooth="yes"/>
			<point x="160" y="1446"/>
			<point x="308" y="1520"/>
			<point x="472" y="1520" type="curve" smooth="yes"/>
			<point x="794" y="1520"/>
			<point x="1000" y="1220"/>
			<point x="1000" y="740" type="curve" smooth="yes"/>
			<point x="1000" y="170"/>
			<point x="844" y="-20"/>
			<point x="522" y="-20" type="curve" smooth="yes"/>
			<point x="240" y="-20"/>
			<point x="60" y="150"/>
			<point x="60" y="470" type="curve" smooth="yes"/>
			<point x="60" y="800"/>
			<point x="246" y="960"/>
			<point x="468" y="960" type="curve" smooth="yes"/>
			<point x="600" y="960"/>
			<point x="700" y="913"/>
			<point x="767" y="839" type="curve" smooth="yes"/>
			<point x="784" y="820"/>
			<point x="788" y="806"/>
			<point x="796" y="810" type="curve" smooth="yes"/>
			<point x="803" y="814"/>
			<point x="799" y="827"/>
			<point x="797" y="860" type="curve" smooth="yes"/>
			<point x="781" y="1203"/>
			<point x="694" y="1436"/>
			<point x="462" y="1436" type="curve" smooth="yes"/>
			<point x="384" y="1436"/>
			<point x="354" y="1408"/>
		</contour>
		<contour>
			<point x="260" y="470" type="curve" smooth="yes"/>
			<point x="260" y="252"/>
			<point x="324" y="70"/>
			<point x="502" y="70" type="curve" smooth="yes"/>
			<point x="700" y="70"/>
			<point x="800" y="262"/>
			<point x="800" y="560" type="curve" smooth="yes"/>
			<point x="800" y="720"/>
			<point x="678" y="862"/>
			<point x="512" y="862" type="curve" smooth="yes"/>
			<point x="354" y="862"/>
			<point x="260" y="698"/>
		</contour>
	</outline>
</glyph>
<glyph name="lozenge" format="2">
	<advance width="1200" height="0"/>
	<unicode hex="25CA"/>
	<outline>
		<contour>
			<point x="612" y="30" type="line"/>
			<point x="1000" y="712" type="line"/>
			<point x="612" y="1392" type="line"/>
			<point x="200" y="712" type="line"/>
		</contour>
		<contour>
			<point x="612" y="250" type="line"/>
			<point x="340" y="712" type="line"/>
			<point x="612" y="1172" type="line"/>
			<point x="868" y="712" type="line"/>
		</contour>
	</outline>
</glyph>
<glyph name="hammerAndSickle" format="2">
	<advance width="2000" height="0"/>
	<unicode hex="262D"/>
	<outline>
		<contour>
			<point x="420" y="939" type="curve" smooth="yes"/>
			<point x="717" y="1236" type="line" smooth="yes"/>
			<point x="750" y="1269"/>
			<point x="758" y="1273"/>
			<point x="819" y="1266" type="curve" smooth="yes"/>
			<point x="1035" y="1240" type="line" smooth="yes"/>
			<point x="1107" y="1231"/>
			<point x="1067" y="1216"/>
			<point x="1035" y="1184" type="curve" smooth="yes"/>
			<point x="919" y="1068" type="line" smooth="yes"/>
			<point x="863" y="1012"/>
			<point x="858" y="1012"/>
			<point x="916" y="957" type="curve" smooth="yes"/>
			<point x="1290" y="581" type="line" smooth="yes"/>
			<point x="1353" y="521"/>
			<point x="1365" y="515"/>
			<point x="1398" y="612" type="curve" smooth="yes"/>
			<point x="1416" y="665"/>
			<point x="1425" y="722"/>
			<point x="1425" y="782" type="curve" smooth="yes"/>
			<point x="1425" y="1038"/>
			<point x="1230" y="1278"/>
			<point x="1024" y="1431" type="curve" smooth="yes"/>
			<point x="1002" y="1448"/>
			<point x="991" y="1447"/>
			<point x="1008" y="1472" type="curve" smooth="yes"/>
			<point x="1034" y="1508" type="line" smooth="yes"/>
			<point x="1047" y="1527"/>
			<point x="1059" y="1520"/>
			<point x="1078" y="1507" type="curve" smooth="yes"/>
			<point x="1401" y="1291"/>
			<point x="1617" y="1050"/>
			<point x="1617" y="742" type="curve" smooth="yes"/>
			<point x="1617" y="627"/>
			<point x="1588" y="519"/>
			<point x="1534" y="430" type="curve" smooth="yes"/>
			<point x="1511" y="392"/>
			<point x="1493" y="388"/>
			<point x="1527" y="356" type="curve" smooth="yes"/>
			<point x="1666" y="223" type="line" smooth="yes"/>
			<point x="1687" y="203"/>
			<point x="1706" y="199"/>
			<point x="1683" y="175" type="curve" smooth="yes"/>
			<point x="1586" y="75" type="line" smooth="yes"/>
			<point x="1564" y="52"/>
			<point x="1559" y="47"/>
			<point x="1536" y="71" type="curve" smooth="yes"/>
			<point x="1381" y="231" type="line" smooth="yes"/>
			<point x="1360" y="253"/>
			<point x="1360" y="257"/>
			<point x="1331" y="243" type="curve" smooth="yes"/>
			<point x="1264" y="210"/>
			<point x="1186" y="192"/>
			<point x="1099" y="192" type="curve" smooth="yes"/>
			<point x="955" y="192"/>
			<point x="820" y="256"/>
			<point x="736" y="342" type="curve" smooth="yes"/>
			<point x="712" y="367"/>
			<point x="713" y="364"/>
			<point x="689" y="340" type="curve" smooth="yes"/>
			<point x="332" y="-21" type="line" smooth="yes"/>
			<point x="311" y="-43"/>
			<point x="311" y="-39"/>
			<point x="291" y="-17" type="curve" smooth="yes"/>
			<point x="187" y="96" type="line" smooth="yes"/>
			<point x="173" y="111"/>
			<point x="176" y="112"/>
			<point x="191" y="125" type="curve" smooth="yes"/>
			<point x="649" y="517" type="line" smooth="yes"/>
			<point x="674" y="539"/>
			<point x="684" y="547"/>
			<point x="706" y="523" type="curve" smooth="yes"/>
			<point x="844" y="372"/>
			<point x="958" y="356"/>
			<point x="1069" y="356" type="curve" smooth="yes"/>
			<point x="1106" y="356"/>
			<point x="1141" y="361"/>
			<point x="1173" y="372" type="curve" smooth="yes"/>
			<point x="1243" y="395"/>
			<point x="1209" y="411"/>
			<point x="1171" y="450" type="curve" smooth="yes"/>
			<point x="780" y="858" type="line" smooth="yes"/>
			<point x="745" y="895"/>
			<point x="744" y="893"/>
			<point x="708" y="857" type="curve" smooth="yes"/>
			<point x="621" y="770" type="line" smooth="yes"/>
			<point x="581" y="730"/>
			<point x="580" y="720"/>
			<point x="537" y="760" type="curve" smooth="yes"/>
			<point x="420" y="871" type="line" smooth="yes"/>
			<point x="385" y="905"/>
			<point x="385" y="904"/>
		</contour>
	</outline>
</glyph>
<glyph name="f_f_i.liga" format="2">
	<advance width="1358" height="2310"/>
	<anchor x="226" y="0" name="bottom_1"/>
	<anchor x="679" y="0" name="bottom_2"/>
	<anchor x="1132" y="0" name="bottom_3"/>
	<anchor x="452.667" y="0" name="caret_1"/>
	<anchor x="905.333" y="0" name="caret_2"/>
	<anchor x="226" y="1600" name="top_1"/>
	<anchor x="679" y="1600" name="top_2"/>
	<anchor x="1132" y="1600" name="top_3"/>
	<outline>
		<contour>
			<point x="321" y="1040" type="curve" smooth="yes"/>
			<point x="571" y="1040" type="line" smooth="yes"/>
			<point x="606" y="1040"/>
			<point x="608" y="1049"/>
			<point x="608" y="1084" type="curve" smooth="yes"/>
			<point x="610" y="1166" type="line" smooth="yes"/>
			<point x="611" y="1209"/>
			<point x="588" y="1185"/>
			<point x="557" y="1185" type="curve" smooth="yes"/>
			<point x="496" y="1186"/>
			<point x="444" y="1228"/>
			<point x="444" y="1282" type="curve" smooth="yes"/>
			<point x="444" y="1342"/>
			<point x="486" y="1356"/>
			<point x="486" y="1396" type="curve" smooth="yes"/>
			<point x="486" y="1420"/>
			<point x="460" y="1450"/>
			<point x="396" y="1450" type="curve" smooth="yes"/>
			<point x="166" y="1450"/>
			<point x="288" y="1214"/>
			<point x="288" y="1070" type="curve" smooth="yes"/>
			<point x="288" y="1044"/>
			<point x="297" y="1040"/>
		</contour>
		<contour>
			<point x="28" y="31" type="curve" smooth="yes"/>
			<point x="28" y="77" type="line" smooth="yes"/>
			<point x="28" y="104"/>
			<point x="34" y="110"/>
			<point x="60" y="110" type="curve" smooth="yes"/>
			<point x="63" y="110" type="line" smooth="yes"/>
			<point x="104" y="110"/>
			<point x="108" y="119"/>
			<point x="108" y="158" type="curve" smooth="yes"/>
			<point x="108" y="894" type="line" smooth="yes"/>
			<point x="108" y="923"/>
			<point x="105" y="930"/>
			<point x="77" y="930" type="curve" smooth="yes"/>
			<point x="57" y="930" type="line" smooth="yes"/>
			<point x="34" y="930"/>
			<point x="28" y="936"/>
			<point x="28" y="960" type="curve" smooth="yes"/>
			<point x="28" y="1016" type="line" smooth="yes"/>
			<point x="28" y="1037"/>
			<point x="44" y="1040"/>
			<point x="62" y="1040" type="curve" smooth="yes"/>
			<point x="74" y="1040" type="line" smooth="yes"/>
			<point x="102" y="1040"/>
			<point x="108" y="1045"/>
			<point x="108" y="1072" type="curve" smooth="yes"/>
			<point x="109" y="1144" type="line" smooth="yes"/>
			<point x="111" y="1385"/>
			<point x="145" y="1540"/>
			<point x="392" y="1540" type="curve" smooth="yes"/>
			<point x="484" y="1540"/>
			<point x="549" y="1514"/>
			<point x="593" y="1489" type="curve" smooth="yes"/>
			<point x="625" y="1471"/>
			<point x="638" y="1477"/>
			<point x="654" y="1496" type="curve" smooth="yes"/>
			<point x="715" y="1572"/>
			<point x="802" y="1600"/>
			<point x="912" y="1600" type="curve" smooth="yes"/>
			<point x="1134" y="1600"/>
			<point x="1218" y="1472"/>
			<point x="1218" y="1358" type="curve" smooth="yes"/>
			<point x="1218" y="1272"/>
			<point x="1170" y="1226"/>
			<point x="1100" y="1226" type="curve" smooth="yes"/>
			<point x="1030" y="1226"/>
			<point x="984" y="1266"/>
			<point x="984" y="1322" type="curve" smooth="yes"/>
			<point x="984" y="1412"/>
			<point x="1056" y="1416"/>
			<point x="1056" y="1456" type="curve" smooth="yes"/>
			<point x="1056" y="1480"/>
			<point x="1000" y="1530"/>
			<point x="916" y="1530" type="curve" smooth="yes"/>
			<point x="696" y="1530"/>
			<point x="788" y="1254"/>
			<point x="788" y="1100" type="curve" smooth="yes"/>
			<point x="788" y="1074" type="line" smooth="yes"/>
			<point x="788" y="1041"/>
			<point x="806" y="1040"/>
			<point x="836" y="1040" type="curve" smooth="yes"/>
			<point x="1209" y="1040" type="line" smooth="yes"/>
			<point x="1239" y="1040"/>
			<point x="1248" y="1036"/>
			<point x="1248" y="1004" type="curve" smooth="yes"/>
			<point x="1248" y="149" type="line" smooth="yes"/>
			<point x="1248" y="117"/>
			<point x="1253" y="110"/>
			<point x="1287" y="110" type="curve" smooth="yes"/>
			<point x="1301" y="110" type="line" smooth="yes"/>
			<point x="1323" y="110"/>
			<point x="1328" y="103"/>
			<point x="1328" y="80" type="curve" smooth="yes"/>
			<point x="1328" y="39" type="line" smooth="yes"/>
			<point x="1328" y="8"/>
			<point x="1325" y="0"/>
			<point x="1295" y="0" type="curve" smooth="yes"/>
			<point x="1022" y="0" type="line" smooth="yes"/>
			<point x="991" y="0"/>
			<point x="988" y="7"/>
			<point x="988" y="39" type="curve" smooth="yes"/>
			<point x="988" y="83" type="line" smooth="yes"/>
			<point x="988" y="105"/>
			<point x="995" y="110"/>
			<point x="1018" y="110" type="curve" smooth="yes"/>
			<point x="1033" y="110" type="line" smooth="yes"/>
			<point x="1063" y="110"/>
			<point x="1068" y="117"/>
			<point x="1068" y="145" type="curve" smooth="yes"/>
			<point x="1068" y="894" type="line" smooth="yes"/>
			<point x="1068" y="930"/>
			<point x="1068" y="930"/>
			<point x="1032" y="930" type="curve" smooth="yes"/>
			<point x="824" y="930" type="line" smooth="yes"/>
			<point x="793" y="930"/>
			<point x="788" y="924"/>
			<point x="788" y="892" type="curve" smooth="yes"/>
			<point x="788" y="143" type="line" smooth="yes"/>
			<point x="788" y="111"/>
			<point x="797" y="110"/>
			<point x="830" y="110" type="curve" smooth="yes"/>
			<point x="889" y="110" type="line" smooth="yes"/>
			<point x="913" y="110"/>
			<point x="928" y="108"/>
			<point x="928" y="81" type="curve" smooth="yes"/>
			<point x="928" y="41" type="line" smooth="yes"/>
			<point x="928" y="6"/>
			<point x="924" y="0"/>
			<point x="890" y="0" type="curve" smooth="yes"/>
			<point x="562" y="0" type="line" smooth="yes"/>
			<point x="532" y="0"/>
			<point x="528" y="7"/>
			<point x="528" y="38" type="curve" smooth="yes"/>
			<point x="528" y="84" type="line" smooth="yes"/>
			<point x="528" y="105"/>
			<point x="534" y="110"/>
			<point x="557" y="110" type="curve" smooth="yes"/>
			<point x="571" y="110" type="line" smooth="yes"/>
			<point x="600" y="110"/>
			<point x="608" y="115"/>
			<point x="608" y="146" type="curve" smooth="yes"/>
			<point x="608" y="882" type="line" smooth="yes"/>
			<point x="608" y="927"/>
			<point x="598" y="930"/>
			<point x="555" y="930" type="curve" smooth="yes"/>
			<point x="325" y="930" type="line" smooth="yes"/>
			<point x="293" y="930"/>
			<point x="288" y="924"/>
			<point x="288" y="890" type="curve" smooth="yes"/>
			<point x="288" y="146" type="line" smooth="yes"/>
			<point x="288" y="111"/>
			<point x="297" y="110"/>
			<point x="332" y="110" type="curve" smooth="yes"/>
			<point x="382" y="110" type="line" smooth="yes"/>
			<point x="411" y="110"/>
			<point x="428" y="109"/>
			<point x="428" y="77" type="curve" smooth="yes"/>
			<point x="428" y="34" type="line" smooth="yes"/>
			<point x="428" y="4"/>
			<point x="420" y="0"/>
			<point x="392" y="0" type="curve" smooth="yes"/>
			<point x="65" y="0" type="line" smooth="yes"/>
			<point x="36" y="0"/>
			<point x="28" y="3"/>
		</contour>
	</outline>
</glyph>
<glyph name="f_f_l.liga" format="2">
	<advance width="1358" height="2310"/>
	<anchor x="226" y="0" name="bottom_1"/>
	<anchor x="679" y="0" name="bottom_2"/>
	<anchor x="1132" y="0" name="bottom_3"/>
	<anchor x="452.667" y="0" name="caret_1"/>
	<anchor x="905.333" y="0" name="caret_2"/>
	<anchor x="226" y="1600" name="top_1"/>
	<anchor x="679" y="1600" name="top_2"/>
	<anchor x="1132" y="1600" name="top_3"/>
	<outline>
		<contour>
			<point x="321" y="1040" type="curve" smooth="yes"/>
			<point x="558" y="1040" type="line" smooth="yes"/>
			<point x="604" y="1040"/>
			<point x="608" y="1047"/>
			<point x="609" y="1091" type="curve" smooth="yes"/>
			<point x="609" y="1136" type="line" smooth="yes"/>
			<point x="610" y="1192"/>
			<point x="616" y="1190"/>
			<point x="572" y="1186" type="curve" smooth="yes"/>
			<point x="504" y="1179"/>
			<point x="444" y="1223"/>
			<point x="444" y="1282" type="curve" smooth="yes"/>
			<point x="444" y="1342"/>
			<point x="486" y="1356"/>
			<point x="486" y="1396" type="curve" smooth="yes"/>
			<point x="486" y="1420"/>
			<point x="460" y="1450"/>
			<point x="396" y="1450" type="curve" smooth="yes"/>
			<point x="166" y="1450"/>
			<point x="288" y="1214"/>
			<point x="288" y="1070" type="curve" smooth="yes"/>
			<point x="288" y="1044"/>
			<point x="297" y="1040"/>
		</contour>
		<contour>
			<point x="28" y="45" type="curve" smooth="yes"/>
			<point x="28" y="65" type="line" smooth="yes"/>
			<point x="28" y="100"/>
			<point x="31" y="110"/>
			<point x="68" y="110" type="curve" smooth="yes"/>
			<point x="78" y="110" type="line" smooth="yes"/>
			<point x="98" y="110"/>
			<point x="108" y="111"/>
			<point x="108" y="151" type="curve" smooth="yes"/>
			<point x="108" y="903" type="line" smooth="yes"/>
			<point x="108" y="925"/>
			<point x="100" y="930"/>
			<point x="80" y="930" type="curve" smooth="yes"/>
			<point x="60" y="930" type="line" smooth="yes"/>
			<point x="34" y="930"/>
			<point x="28" y="935"/>
			<point x="28" y="963" type="curve" smooth="yes"/>
			<point x="28" y="1009" type="line" smooth="yes"/>
			<point x="28" y="1038"/>
			<point x="36" y="1040"/>
			<point x="66" y="1040" type="curve" smooth="yes"/>
			<point x="70" y="1040" type="line" smooth="yes"/>
			<point x="107" y="1040"/>
			<point x="108" y="1050"/>
			<point x="108" y="1087" type="curve" smooth="yes"/>
			<point x="109" y="1144" type="line" smooth="yes"/>
			<point x="111" y="1385"/>
			<point x="145" y="1540"/>
			<point x="392" y="1540" type="curve" smooth="yes"/>
			<point x="497" y="1540"/>
			<point x="561" y="1501"/>
			<point x="596" y="1465" type="curve" smooth="yes"/>
			<point x="632" y="1428"/>
			<point x="623" y="1420"/>
			<point x="648" y="1468" type="curve" smooth="yes"/>
			<point x="692" y="1554"/>
			<point x="767" y="1600"/>
			<point x="912" y="1600" type="curve" smooth="yes"/>
			<point x="1022" y="1600"/>
			<point x="1105" y="1544"/>
			<point x="1114" y="1534" type="curve" smooth="yes"/>
			<point x="1134" y="1512"/>
			<point x="1138" y="1514"/>
			<point x="1162" y="1533" type="curve" smooth="yes"/>
			<point x="1204" y="1566" type="line" smooth="yes"/>
			<point x="1236" y="1591"/>
			<point x="1248" y="1617"/>
			<point x="1248" y="1549" type="curve" smooth="yes"/>
			<point x="1248" y="163" type="line" smooth="yes"/>
			<point x="1248" y="120"/>
			<point x="1249" y="110"/>
			<point x="1292" y="110" type="curve" smooth="yes"/>
			<point x="1296" y="110" type="line" smooth="yes"/>
			<point x="1321" y="110"/>
			<point x="1328" y="107"/>
			<point x="1328" y="83" type="curve" smooth="yes"/>
			<point x="1328" y="43" type="line" smooth="yes"/>
			<point x="1328" y="5"/>
			<point x="1321" y="0"/>
			<point x="1284" y="0" type="curve" smooth="yes"/>
			<point x="1028" y="0" type="line" smooth="yes"/>
			<point x="993" y="0"/>
			<point x="988" y="8"/>
			<point x="988" y="41" type="curve" smooth="yes"/>
			<point x="988" y="61" type="line" smooth="yes"/>
			<point x="988" y="100"/>
			<point x="989" y="110"/>
			<point x="1028" y="110" type="curve" smooth="yes"/>
			<point x="1038" y="110" type="line" smooth="yes"/>
			<point x="1062" y="110"/>
			<point x="1068" y="115"/>
			<point x="1068" y="161" type="curve" smooth="yes"/>
			<point x="1068" y="1203" type="line" smooth="yes"/>
			<point x="1068" y="1238"/>
			<point x="1053" y="1230"/>
			<point x="1032" y="1242" type="curve" smooth="yes"/>
			<point x="1002" y="1259"/>
			<point x="984" y="1287"/>
			<point x="984" y="1322" type="curve" smooth="yes"/>
			<point x="984" y="1382"/>
			<point x="1026" y="1396"/>
			<point x="1026" y="1436" type="curve" smooth="yes"/>
			<point x="1026" y="1460"/>
			<point x="990" y="1530"/>
			<point x="916" y="1530" type="curve" smooth="yes"/>
			<point x="696" y="1530"/>
			<point x="788" y="1254"/>
			<point x="788" y="1100" type="curve" smooth="yes"/>
			<point x="788" y="1087" type="line" smooth="yes"/>
			<point x="788" y="1050"/>
			<point x="789" y="1040"/>
			<point x="826" y="1040" type="curve" smooth="yes"/>
			<point x="900" y="1040" type="line" smooth="yes"/>
			<point x="942" y="1040"/>
			<point x="958" y="1030"/>
			<point x="958" y="985" type="curve" smooth="yes"/>
			<point x="958" y="971" type="line" smooth="yes"/>
			<point x="958" y="933"/>
			<point x="948" y="930"/>
			<point x="912" y="930" type="curve" smooth="yes"/>
			<point x="820" y="930" type="line" smooth="yes"/>
			<point x="793" y="930"/>
			<point x="788" y="924"/>
			<point x="788" y="895" type="curve" smooth="yes"/>
			<point x="788" y="173" type="line" smooth="yes"/>
			<point x="788" y="114"/>
			<point x="795" y="110"/>
			<point x="852" y="110" type="curve" smooth="yes"/>
			<point x="884" y="110" type="line" smooth="yes"/>
			<point x="916" y="110"/>
			<point x="928" y="108"/>
			<point x="928" y="73" type="curve" smooth="yes"/>
			<point x="928" y="35" type="line" smooth="yes"/>
			<point x="928" y="5"/>
			<point x="922" y="0"/>
			<point x="894" y="0" type="curve" smooth="yes"/>
			<point x="568" y="0" type="line" smooth="yes"/>
			<point x="542" y="0"/>
			<point x="528" y="2"/>
			<point x="528" y="31" type="curve" smooth="yes"/>
			<point x="528" y="71" type="line" smooth="yes"/>
			<point x="528" y="105"/>
			<point x="534" y="110"/>
			<point x="570" y="110" type="curve" smooth="yes"/>
			<point x="573" y="110" type="line" smooth="yes"/>
			<point x="604" y="110"/>
			<point x="608" y="116"/>
			<point x="608" y="165" type="curve" smooth="yes"/>
			<point x="608" y="883" type="line" smooth="yes"/>
			<point x="608" y="924"/>
			<point x="603" y="930"/>
			<point x="564" y="930" type="curve" smooth="yes"/>
			<point x="338" y="930" type="line" smooth="yes"/>
			<point x="295" y="930"/>
			<point x="288" y="927"/>
			<point x="288" y="885" type="curve" smooth="yes"/>
			<point x="288" y="163" type="line" smooth="yes"/>
			<point x="288" y="111"/>
			<point x="292" y="110"/>
			<point x="345" y="110" type="curve" smooth="yes"/>
			<point x="382" y="110" type="line" smooth="yes"/>
			<point x="409" y="110"/>
			<point x="428" y="109"/>
			<point x="428" y="79" type="curve" smooth="yes"/>
			<point x="428" y="45" type="line" smooth="yes"/>
			<point x="428" y="9"/>
			<point x="426" y="0"/>
			<point x="390" y="0" type="curve" smooth="yes"/>
			<point x="68" y="0" type="line" smooth="yes"/>
			<point x="31" y="0"/>
			<point x="28" y="7"/>
		</contour>
	</outline>
</glyph>
<glyph name="five.osf" format="2">
	<advance width="840" height="2310"/>
	<outline>
		<contour>
			<point x="60" y="-202" type="curve" smooth="yes"/>
			<point x="60" y="-96"/>
			<point x="130" y="-50"/>
			<point x="188" y="-50" type="curve" smooth="yes"/>
			<point x="242" y="-50"/>
			<point x="302" y="-92"/>
			<point x="302" y="-166" type="curve" smooth="yes"/>
			<point x="302" y="-238"/>
			<point x="208" y="-278"/>
			<point x="208" y="-324" type="curve" smooth="yes"/>
			<point x="208" y="-358"/>
			<point x="254" y="-396"/>
			<point x="332" y="-396" type="curve" smooth="yes"/>
			<point x="510" y="-396"/>
			<point x="568" y="-208"/>
			<point x="568" y="0" type="curve" smooth="yes"/>
			<point x="568" y="268"/>
			<point x="560" y="442"/>
			<point x="422" y="442" type="curve" smooth="yes"/>
			<point x="339" y="442"/>
			<point x="286" y="409"/>
			<point x="234" y="343" type="curve" smooth="yes"/>
			<point x="219" y="323"/>
			<point x="211" y="314"/>
			<point x="173" y="314" type="curve" smooth="yes"/>
			<point x="131" y="314" type="line" smooth="yes"/>
			<point x="93" y="314"/>
			<point x="96" y="328"/>
			<point x="100" y="358" type="curve" smooth="yes"/>
			<point x="183" y="1002" type="line" smooth="yes"/>
			<point x="187" y="1033"/>
			<point x="194" y="1040"/>
			<point x="228" y="1040" type="curve" smooth="yes"/>
			<point x="374" y="1040" type="line" smooth="yes"/>
			<point x="446" y="1040"/>
			<point x="538" y="1009"/>
			<point x="598" y="1076" type="curve" smooth="yes"/>
			<point x="608" y="1087"/>
			<point x="612" y="1104"/>
			<point x="637" y="1104" type="curve" smooth="yes"/>
			<point x="694" y="1104" type="line" smooth="yes"/>
			<point x="708" y="1104"/>
			<point x="711" y="1102"/>
			<point x="708" y="1090" type="curve" smooth="yes"/>
			<point x="696" y="1040" type="line" smooth="yes"/>
			<point x="660" y="876"/>
			<point x="624" y="860"/>
			<point x="350" y="860" type="curve" smooth="yes"/>
			<point x="306" y="860" type="line" smooth="yes"/>
			<point x="276" y="860"/>
			<point x="265" y="856"/>
			<point x="261" y="828" type="curve" smooth="yes"/>
			<point x="219" y="506" type="line" smooth="yes"/>
			<point x="213" y="458"/>
			<point x="203" y="434"/>
			<point x="211" y="430" type="curve" smooth="yes"/>
			<point x="224" y="424"/>
			<point x="233" y="442"/>
			<point x="266" y="474" type="curve" smooth="yes"/>
			<point x="297" y="504"/>
			<point x="368" y="540"/>
			<point x="446" y="540" type="curve" smooth="yes"/>
			<point x="718" y="540"/>
			<point x="770" y="320"/>
			<point x="770" y="40" type="curve" smooth="yes"/>
			<point x="770" y="-260"/>
			<point x="634" y="-480"/>
			<point x="352" y="-480" type="curve" smooth="yes"/>
			<point x="128" y="-480"/>
			<point x="60" y="-336"/>
		</contour>
	</outline>
</glyph>
<glyph name="m.sc" format="2">
	<advance width="1618" height="0"/>
	<anchor x="832" y="1040" name="Anchor-0"/>
	<anchor x="818" y="4" name="Anchor-1"/>
	<outline>
		<contour>
			<point x="157" y="936" type="curve" smooth="yes"/>
			<point x="46" y="936" type="line" smooth="yes"/>
			<point x="25" y="936"/>
			<point x="22" y="941"/>
			<point x="22" y="964" type="curve" smooth="yes"/>
			<point x="22" y="1008" type="line" smooth="yes"/>
			<point x="22" y="1035"/>
			<point x="27" y="1040"/>
			<point x="51" y="1040" type="curve" smooth="yes"/>
			<point x="425" y="1040" type="line" smooth="yes"/>
			<point x="458" y="1040"/>
			<point x="453" y="1032"/>
			<point x="462" y="1009" type="curve" smooth="yes"/>
			<point x="795" y="259" type="line" smooth="yes"/>
			<point x="800" y="246"/>
			<point x="804" y="236"/>
			<point x="806" y="227" type="curve" smooth="yes"/>
			<point x="808" y="218"/>
			<point x="810" y="214"/>
			<point x="814" y="214" type="curve" smooth="yes"/>
			<point x="817" y="214"/>
			<point x="823" y="225"/>
			<point x="830" y="246" type="curve" smooth="yes"/>
			<point x="1159" y="1008" type="line" smooth="yes"/>
			<point x="1170" y="1033"/>
			<point x="1163" y="1040"/>
			<point x="1196" y="1040" type="curve" smooth="yes"/>
			<point x="1564" y="1040" type="line" smooth="yes"/>
			<point x="1587" y="1040"/>
			<point x="1589" y="1032"/>
			<point x="1589" y="1006" type="curve" smooth="yes"/>
			<point x="1589" y="983" type="line" smooth="yes"/>
			<point x="1589" y="946"/>
			<point x="1590" y="936"/>
			<point x="1557" y="936" type="curve" smooth="yes"/>
			<point x="1467" y="936" type="line" smooth="yes"/>
			<point x="1437" y="936"/>
			<point x="1427" y="928"/>
			<point x="1429" y="901" type="curve" smooth="yes"/>
			<point x="1433" y="131" type="line" smooth="yes"/>
			<point x="1434" y="109"/>
			<point x="1437" y="104"/>
			<point x="1462" y="104" type="curve" smooth="yes"/>
			<point x="1563" y="104" type="line" smooth="yes"/>
			<point x="1593" y="104"/>
			<point x="1590" y="101"/>
			<point x="1590" y="68" type="curve" smooth="yes"/>
			<point x="1590" y="40" type="line" smooth="yes"/>
			<point x="1590" y="12"/>
			<point x="1590" y="0"/>
			<point x="1565" y="0" type="curve" smooth="yes"/>
			<point x="1110" y="0" type="line" smooth="yes"/>
			<point x="1084" y="0"/>
			<point x="1074" y="8"/>
			<point x="1074" y="36" type="curve" smooth="yes"/>
			<point x="1074" y="59" type="line" smooth="yes"/>
			<point x="1074" y="93"/>
			<point x="1073" y="104"/>
			<point x="1104" y="104" type="curve" smooth="yes"/>
			<point x="1218" y="104" type="line" smooth="yes"/>
			<point x="1246" y="104"/>
			<point x="1254" y="107"/>
			<point x="1254" y="132" type="curve" smooth="yes"/>
			<point x="1262" y="798" type="line" smooth="yes"/>
			<point x="1262" y="809"/>
			<point x="1265" y="824"/>
			<point x="1264" y="841" type="curve" smooth="yes"/>
			<point x="1263" y="852"/>
			<point x="1265" y="908"/>
			<point x="1251" y="908" type="curve" smooth="yes"/>
			<point x="1237" y="908"/>
			<point x="1225" y="853"/>
			<point x="1213" y="823" type="curve" smooth="yes"/>
			<point x="1200" y="790"/>
			<point x="1186" y="739"/>
			<point x="1159" y="676" type="curve" smooth="yes"/>
			<point x="876" y="15" type="line" smooth="yes"/>
			<point x="869" y="-4"/>
			<point x="866" y="-14"/>
			<point x="840" y="-14" type="curve" smooth="yes"/>
			<point x="806" y="-14" type="line" smooth="yes"/>
			<point x="770" y="-14"/>
			<point x="770" y="2"/>
			<point x="758" y="27" type="curve" smooth="yes"/>
			<point x="406" y="792" type="line" smooth="yes"/>
			<point x="398" y="812"/>
			<point x="389" y="835"/>
			<point x="380" y="862" type="curve" smooth="yes"/>
			<point x="371" y="889"/>
			<point x="364" y="902"/>
			<point x="360" y="902" type="curve" smooth="yes"/>
			<point x="357" y="902"/>
			<point x="354" y="889"/>
			<point x="353" y="863" type="curve" smooth="yes"/>
			<point x="360" y="146" type="line" smooth="yes"/>
			<point x="360" y="106"/>
			<point x="374" y="104"/>
			<point x="418" y="104" type="curve" smooth="yes"/>
			<point x="517" y="104" type="line" smooth="yes"/>
			<point x="549" y="104"/>
			<point x="551" y="97"/>
			<point x="551" y="62" type="curve" smooth="yes"/>
			<point x="551" y="38" type="line" smooth="yes"/>
			<point x="551" y="7"/>
			<point x="542" y="0"/>
			<point x="513" y="0" type="curve" smooth="yes"/>
			<point x="61" y="0" type="line" smooth="yes"/>
			<point x="33" y="0"/>
			<point x="31" y="7"/>
			<point x="31" y="38" type="curve" smooth="yes"/>
			<point x="31" y="64" type="line" smooth="yes"/>
			<point x="31" y="95"/>
			<point x="32" y="104"/>
			<point x="60" y="104" type="curve" smooth="yes"/>
			<point x="155" y="104" type="line" smooth="yes"/>
			<point x="176" y="104"/>
			<point x="187" y="114"/>
			<point x="188" y="133" type="curve" smooth="yes"/>
			<point x="192" y="910" type="line" smooth="yes"/>
			<point x="193" y="927"/>
			<point x="181" y="936"/>
		</contour>
	</outline>
</glyph>
<glyph name="q.sc" format="2">
	<advance width="1282" height="0"/>
	<anchor x="631" y="1048" name="Anchor-0"/>
	<outline>
		<contour>
			<point x="86" y="520" type="curve" smooth="yes"/>
			<point x="86" y="848"/>
			<point x="302" y="1067"/>
			<point x="634" y="1067" type="curve" smooth="yes"/>
			<point x="962" y="1067"/>
			<point x="1181" y="860"/>
			<point x="1181" y="538" type="curve" smooth="yes"/>
			<point x="1181" y="323"/>
			<point x="1063" y="173"/>
			<point x="913" y="91" type="curve" smooth="yes"/>
			<point x="883" y="76"/>
			<point x="875" y="76"/>
			<point x="898" y="49" type="curve" smooth="yes"/>
			<point x="923" y="15"/>
			<point x="957" y="-29"/>
			<point x="1005" y="-29" type="curve" smooth="yes"/>
			<point x="1094" y="-29"/>
			<point x="1146" y="27"/>
			<point x="1152" y="103" type="curve" smooth="yes"/>
			<point x="1153" y="112"/>
			<point x="1161" y="117"/>
			<point x="1178" y="117" type="curve" smooth="yes"/>
			<point x="1212" y="117" type="line" smooth="yes"/>
			<point x="1236" y="117"/>
			<point x="1247" y="118"/>
			<point x="1247" y="98" type="curve" smooth="yes"/>
			<point x="1247" y="-55"/>
			<point x="1170" y="-197"/>
			<point x="1022" y="-197" type="curve" smooth="yes"/>
			<point x="909" y="-197"/>
			<point x="863" y="-105"/>
			<point x="824" y="-24" type="curve" smooth="yes"/>
			<point x="813" y="7"/>
			<point x="805" y="-1"/>
			<point x="772" y="-10" type="curve" smooth="yes"/>
			<point x="730" y="-22"/>
			<point x="686" y="-28"/>
			<point x="639" y="-28" type="curve" smooth="yes"/>
			<point x="306" y="-28"/>
			<point x="86" y="192"/>
		</contour>
		<contour>
			<point x="876" y="157" type="curve" smooth="yes"/>
			<point x="940" y="240"/>
			<point x="973" y="367"/>
			<point x="973" y="512" type="curve" smooth="yes"/>
			<point x="973" y="759"/>
			<point x="881" y="971"/>
			<point x="634" y="971" type="curve" smooth="yes"/>
			<point x="386" y="971"/>
			<point x="294" y="755"/>
			<point x="294" y="506" type="curve" smooth="yes"/>
			<point x="294" y="392"/>
			<point x="315" y="294"/>
			<point x="356" y="211" type="curve" smooth="yes"/>
			<point x="364" y="196"/>
			<point x="375" y="188"/>
			<point x="377" y="210" type="curve" smooth="yes"/>
			<point x="383" y="318"/>
			<point x="439" y="394"/>
			<point x="560" y="394" type="curve" smooth="yes"/>
			<point x="709" y="394"/>
			<point x="777" y="269"/>
			<point x="830" y="158" type="curve" smooth="yes"/>
			<point x="842" y="133"/>
			<point x="857" y="133"/>
		</contour>
		<contour>
			<point x="563" y="267" type="curve" smooth="yes"/>
			<point x="491" y="267"/>
			<point x="429" y="242"/>
			<point x="432" y="180" type="curve" smooth="yes"/>
			<point x="433" y="156"/>
			<point x="441" y="131"/>
			<point x="464" y="114" type="curve" smooth="yes"/>
			<point x="509" y="81"/>
			<point x="573" y="68"/>
			<point x="634" y="68" type="curve" smooth="yes"/>
			<point x="668" y="68"/>
			<point x="699" y="71"/>
			<point x="727" y="77" type="curve" smooth="yes"/>
			<point x="764" y="83"/>
			<point x="757" y="95"/>
			<point x="752" y="110" type="curve" smooth="yes"/>
			<point x="726" y="189"/>
			<point x="665" y="267"/>
		</contour>
	</outline>
</glyph>
<glyph name="seven.tosf" format="2">
	<advance width="880" height="2310"/>
	<outline>
		<contour>
			<point x="81" y="702" type="curve" smooth="yes"/>
			<point x="85" y="979"/>
			<point x="176" y="1060"/>
			<point x="331" y="1060" type="curve" smooth="yes"/>
			<point x="445" y="1060"/>
			<point x="495" y="940"/>
			<point x="591" y="940" type="curve" smooth="yes"/>
			<point x="665" y="940"/>
			<point x="697" y="973"/>
			<point x="717" y="1023" type="curve" smooth="yes"/>
			<point x="722" y="1036"/>
			<point x="723" y="1040"/>
			<point x="742" y="1040" type="curve" smooth="yes"/>
			<point x="811" y="1040" type="line" smooth="yes"/>
			<point x="834" y="1040"/>
			<point x="830" y="1034"/>
			<point x="827" y="1013" type="curve" smooth="yes"/>
			<point x="803" y="863"/>
			<point x="681" y="548"/>
			<point x="577" y="276" type="curve" smooth="yes"/>
			<point x="505" y="88"/>
			<point x="469" y="12"/>
			<point x="469" y="-76" type="curve" smooth="yes"/>
			<point x="469" y="-222"/>
			<point x="535" y="-252"/>
			<point x="535" y="-344" type="curve" smooth="yes"/>
			<point x="535" y="-418"/>
			<point x="495" y="-480"/>
			<point x="407" y="-480" type="curve" smooth="yes"/>
			<point x="329" y="-480"/>
			<point x="275" y="-406"/>
			<point x="275" y="-268" type="curve" smooth="yes"/>
			<point x="275" y="-90"/>
			<point x="367" y="94"/>
			<point x="459" y="302" type="curve" smooth="yes"/>
			<point x="528" y="458"/>
			<point x="589" y="637"/>
			<point x="642" y="794" type="curve" smooth="yes"/>
			<point x="649" y="816"/>
			<point x="656" y="831"/>
			<point x="651" y="836" type="curve" smooth="yes"/>
			<point x="646" y="841"/>
			<point x="634" y="823"/>
			<point x="613" y="817" type="curve" smooth="yes"/>
			<point x="587" y="809"/>
			<point x="557" y="806"/>
			<point x="521" y="806" type="curve" smooth="yes"/>
			<point x="421" y="806"/>
			<point x="381" y="874"/>
			<point x="299" y="874" type="curve" smooth="yes"/>
			<point x="198" y="874"/>
			<point x="179" y="821"/>
			<point x="175" y="706" type="curve" smooth="yes"/>
			<point x="175" y="691"/>
			<point x="174" y="686"/>
			<point x="159" y="686" type="curve" smooth="yes"/>
			<point x="103" y="686" type="line" smooth="yes"/>
			<point x="88" y="686"/>
			<point x="81" y="687"/>
		</contour>
	</outline>
</glyph>
